<svg xmlns="http://www.w3.org/2000/svg" viewBox="0 0 169.73 169.73"><defs><style>.cls-1{fill:#d3d3d3;}.cls-1,.cls-4{stroke:#d3d3d3;}.cls-1,.cls-3,.cls-4{stroke-linecap:round;stroke-linejoin:round;}.cls-2{font-size:21px;font-family:OldNewspaperTypes;}.cls-3,.cls-4{fill:none;stroke-width:0.5px;}.cls-3{stroke:#000;}</style></defs><g id="Layer_2" data-name="Layer 2"><g id="industrialization_graphic" data-name="industrialization graphic"><g id="TOP_-5" data-name="TOP -5"><path class="cls-1" d="M146,32.31c.49.58,1,1.14,1.47,1.71l3.17-2.09c.91,1.16,1.82,2.34,2.68,3.53L150.43,38c1.1,1.53,2.16,3.08,3.13,4.66L156.94,41c.78,1.28,1.5,2.55,2.2,3.86l-3.07,2c.89,1.66,1.73,3.35,2.5,5.05l3.48-1.18c.6,1.37,1.17,2.73,1.7,4.12l-3.28,1.6c.68,1.77,1.29,3.54,1.83,5.34l3.54-.69c.41,1.43.79,2.85,1.12,4.31l-3.37,1.12c.44,1.84.82,3.7,1.12,5.57l3.51-.22c.24,1.47.43,3,.58,4.42l-3.43.65c.21,1.88.33,3.79.41,5.68l3.43.25c0,1.48,0,3,0,4.43l-3.41.22c0,1.89-.16,3.78-.34,5.69l3.29.66c-.15,1.47-.34,3-.59,4.43l-3.32-.22c-.28,1.88-.65,3.76-1.08,5.61l3.1,1.07c-.34,1.44-.73,2.86-1.15,4.3l-3.18-.65c-.54,1.85-1.14,3.66-1.81,5.45l2.85,1.43c-.54,1.39-1.1,2.74-1.72,4.1l-3-1c-.77,1.75-1.61,3.49-2.51,5.19l2.57,1.73q-1.06,1.94-2.23,3.86L154,127.81c-1,1.63-2.08,3.25-3.23,4.84l2.28,2c-.88,1.18-1.78,2.36-2.72,3.51l-2.48-1.66c-1.22,1.5-2.48,2.95-3.81,4.39l1.92,2.22c-.45.48-.92.95-1.39,1.41s-1.18,1.16-1.77,1.72l-2.16-1.92c-.88.82-1.79,1.64-2.7,2.45l-1.68,1.43,1.59,2.39c-1.16.91-2.34,1.82-3.54,2.68l-1.86-2.14c-1.59,1.18-3.22,2.27-4.86,3.3l1.23,2.51c-1.28.78-2.56,1.5-3.86,2.2l-1.52-2.29c-1.73.94-3.48,1.81-5.27,2.61l.87,2.59c-1.37.6-2.73,1.17-4.12,1.7l-1.18-2.44c-1.85.7-3.7,1.34-5.58,1.91l.51,2.62c-1.43.41-2.85.79-4.31,1.12l-.83-2.51c-1.91.45-3.84.85-5.79,1.15l.15,2.62c-1.47.24-3,.43-4.42.58l-.49-2.58c-2,.21-3.92.33-5.9.38l-.19,2.61c-1.48,0-3,0-4.43,0l-.17-2.58c-2-.07-3.93-.21-5.89-.41l-.51,2.53c-1.47-.15-3-.34-4.43-.59l.16-2.57c-1.93-.32-3.88-.7-5.8-1.17L65,166.85c-1.44-.34-2.87-.73-4.31-1.15l.53-2.52c-1.9-.58-3.76-1.21-5.6-1.92l-1.15,2.3c-1.39-.54-2.75-1.1-4.1-1.72l.83-2.45c-1.81-.8-3.56-1.67-5.3-2.62l-1.44,2.15q-1.94-1.06-3.86-2.23l1.17-2.35c-1.66-1-3.29-2.14-4.9-3.3l-1.74,2c-1.18-.88-2.36-1.78-3.51-2.72L33,148.1c-1.51-1.26-3-2.56-4.41-3.93l-2,1.74c-.48-.45-.95-.92-1.41-1.39s-1.16-1.18-1.72-1.77l1.77-2c-.62-.68-1.22-1.36-1.82-2.05s-1.36-1.6-2-2.41l-2.27,1.49c-.92-1.16-1.82-2.34-2.68-3.54l2-1.79q-1.71-2.44-3.24-4.91l-2.47,1.21c-.78-1.28-1.5-2.56-2.2-3.86l2.31-1.55c-.92-1.74-1.77-3.5-2.53-5.28L7.68,119c-.61-1.37-1.17-2.73-1.7-4.12l2.58-1.26c-.68-1.82-1.29-3.68-1.83-5.55l-2.84.56c-.41-1.43-.79-2.85-1.12-4.31l2.75-.92c-.42-1.9-.78-3.8-1.06-5.73l-2.95.18c-.24-1.47-.43-3-.58-4.42l2.94-.57C3.7,90.93,3.6,89,3.56,87.06l-3-.22c0-1.48,0-3,0-4.43l3.09-.21c.08-1.92.22-3.84.45-5.74L1,75.84c.15-1.47.34-3,.59-4.43l3.15.22Q5.23,68.79,5.92,66l-3-1c.34-1.44.72-2.87,1.15-4.31l3.21.66c.56-1.82,1.19-3.63,1.89-5.4l-3-1.48c.53-1.39,1.1-2.75,1.71-4.1l3.17,1.08c.8-1.73,1.66-3.41,2.58-5.1l-2.82-1.89q1.06-1.94,2.23-3.86l3.1,1.54c1-1.61,2.07-3.17,3.2-4.71l-2.61-2.3c.88-1.18,1.78-2.36,2.72-3.51l2.92,2c1.22-1.44,2.48-2.84,3.8-4.21l-2.35-2.7c.45-.48.92-.95,1.39-1.41s1.18-1.16,1.76-1.72l2.71,2.4c.6-.55,1.2-1.1,1.82-1.63.81-.7,1.63-1.39,2.47-2.06l-2-3.06c1.16-.92,2.34-1.82,3.53-2.68l2.43,2.78c1.54-1.1,3.11-2.13,4.71-3.11L41,12.79c1.28-.78,2.55-1.5,3.86-2.2l2.08,3.12c1.65-.88,3.35-1.7,5.05-2.44L50.74,7.68c1.37-.61,2.73-1.17,4.12-1.7l1.67,3.43c1.76-.66,3.52-1.25,5.31-1.77l-.73-3.75c1.43-.41,2.85-.79,4.31-1.12L66.64,6.4c1.81-.41,3.65-.77,5.48-1l-.23-3.85c1.47-.24,3-.43,4.42-.58l.74,3.81c1.85-.17,3.71-.28,5.57-.33L82.89.52c1.48,0,3,0,4.43,0l.25,3.9c1.85.07,3.71.2,5.56.38L93.89,1c1.47.15,3,.34,4.43.59l-.26,3.9c1.82.32,3.65.69,5.44,1.11l1.28-3.71c1.44.34,2.86.72,4.3,1.15l-.78,3.85c1.77.54,3.53,1.14,5.26,1.8l1.75-3.51c1.39.53,2.74,1.1,4.1,1.71l-1.26,3.71c1.69.75,3.36,1.57,5,2.47l2.18-3.25q1.94,1.06,3.86,2.23l-1.75,3.5q2.37,1.46,4.64,3.1l2.58-2.91c1.18.88,2.36,1.78,3.51,2.72L136,22.65c1.43,1.18,2.83,2.42,4.18,3.69l2.91-2.52c.48.45.95.92,1.41,1.39s1.16,1.18,1.72,1.76l-2.54,2.87C144.47,30.64,145.21,31.46,146,32.31Z"/><text class="cls-2" transform="matrix(0.09, 1, -1, 0.09, 25.59, 86.65)">I</text><text class="cls-2" transform="translate(26.94 98.19) rotate(73.32)">I</text><text class="cls-2" transform="translate(29.89 107.45) rotate(65.45)">:</text><text class="cls-2" transform="translate(32.71 113.59) rotate(57.98)"> </text><text class="cls-2" transform="translate(37.61 121.78) rotate(45.04)">L</text><text class="cls-2" transform="matrix(0.87, 0.49, -0.49, 0.87, 50.55, 133.95)">o</text><text class="cls-2" transform="translate(62.6 140.54) rotate(15.77)">n</text><text class="cls-2" transform="matrix(1, 0.02, -0.02, 1, 77.83, 144.31)">g</text><text class="cls-2" transform="translate(91.15 144.2) rotate(-9.36)">i</text><text class="cls-2" transform="translate(100.04 142.79) rotate(-21.1)">n</text><text class="cls-2" transform="matrix(0.81, -0.58, 0.58, 0.81, 114.5, 136.66)">g</text><circle class="cls-3" cx="84.69" cy="85.51" r="9.2"/><path class="cls-4" d="M96.37,83.52a11.81,11.81,0,0,1-8,13.27,11.63,11.63,0,0,1-4.46.55A11.85,11.85,0,1,1,96.37,83.52Z"/><path class="cls-4" d="M96.37,83.52a11.81,11.81,0,0,1-8,13.27,11.63,11.63,0,0,1-4.46.55A11.85,11.85,0,1,1,96.37,83.52Z"/></g></g></g></svg>