<svg xmlns="http://www.w3.org/2000/svg" viewBox="0 0 173.62 173.65"><defs><style>.cls-1,.cls-2{stroke:#d3d3d3;stroke-linecap:round;stroke-linejoin:round;}.cls-2{fill:#d3d3d3;stroke-width:0.5px;}.cls-3{fill:#d9d9d9;}</style></defs><g id="Layer_2" data-name="Layer 2"><g id="industrialization_graphic" data-name="industrialization graphic"><g id="TOP_-2" data-name="TOP -2"><path class="cls-1" d="M147.25,30.44c.55.58,1.08,1.16,1.6,1.77L152,30.32A82.73,82.73,0,0,1,160.61,42l-2.71,2.51,1.18,2,3.47-1.13a81.87,81.87,0,0,1,5.87,13.3l-3.17,1.85c.25.71.48,1.44.7,2.18l3.67-.37a88.38,88.38,0,0,1,2.9,14.26L169,77.8c.1.72.15,1.46.22,2.22l3.66.42A88.62,88.62,0,0,1,172.73,95l-3.69.37c-.08.74-.18,1.47-.27,2.19l3.52,1.22A85.8,85.8,0,0,1,169.07,113l-3.77-.46c-.22.72-.46,1.42-.73,2.1l3.25,2a83.61,83.61,0,0,1-6.17,13.19l-3.66-1.3c-.37.64-.76,1.28-1.17,1.91l2.81,2.73a86.35,86.35,0,0,1-8.8,11.52l-3.39-2.1c-.51.56-1,1.11-1.56,1.64l2.22,3.35-.26.26A85.41,85.41,0,0,1,137.08,157l-2.94-2.86c-.63.44-1.28.86-1.92,1.29l1.5,3.86A82.92,82.92,0,0,1,121,166.09l-2.36-3.56c-.71.3-1.45.57-2.19.85l.66,4.27a82.44,82.44,0,0,1-13.81,3.89l-1.6-4.12c-.79.14-1.59.28-2.38.39l-.28,4.47a89.6,89.6,0,0,1-14.26.85l-.7-4.52c-.84,0-1.66-.09-2.48-.15l-1.28,4.43a83.57,83.57,0,0,1-14-2.22l.3-4.66c-.81-.23-1.63-.45-2.45-.7l-2.27,4.15a85.17,85.17,0,0,1-13.18-5.17L50,159.66c-.77-.39-1.55-.81-2.32-1.22l-3.17,3.66a84.63,84.63,0,0,1-11.7-7.91l2.35-4.32c-.67-.54-1.32-1.1-2-1.66l-.09-.09-4,2.95c-1.16-1-2.3-2.11-3.41-3.22a86.93,86.93,0,0,1-6.26-7l3.25-3.74c-.56-.73-1.12-1.45-1.66-2.21L16.56,137a85,85,0,0,1-7.2-12l4-3c-.41-.85-.79-1.7-1.16-2.54l-4.93,1a84.87,84.87,0,0,1-4.39-13.27l4.6-2.07c-.21-.92-.41-1.84-.58-2.77l-5-.06A85.62,85.62,0,0,1,.5,88.37l4.92-1c0-.94,0-1.89,0-2.84L.55,83.38a86.08,86.08,0,0,1,1.69-13.9l5,.06c.19-.93.39-1.88.63-2.8L3.38,64.62A84.42,84.42,0,0,1,8.06,51.44l4.74,1.09c.4-.86.83-1.72,1.25-2.59l-3.84-3a83.89,83.89,0,0,1,7.47-11.86L22,37.17c.58-.76,1.15-1.51,1.76-2.25l-3-3.62c1.59-1.89,3.26-3.73,5.05-5.51q2.36-2.37,4.84-4.48l3.63,2.83c.73-.61,1.46-1.2,2.18-1.79l-2.11-4.06A85,85,0,0,1,46.2,10.64l2.86,3.46c.81-.45,1.64-.86,2.47-1.26L50.39,8.55a83.9,83.9,0,0,1,13.29-4.9l2,3.87c.87-.24,1.74-.48,2.62-.67l-.2-4.31A84.22,84.22,0,0,1,82.23.64L83.3,4.7c.87-.06,1.74-.1,2.62-.1L86.64.5a86.07,86.07,0,0,1,14.25,1.17l.18,4c.85.14,1.69.29,2.52.47l1.53-3.72a86.63,86.63,0,0,1,13.74,4.2l-.69,3.87c.78.31,1.55.64,2.31,1L122.7,8.3a85.76,85.76,0,0,1,12.56,7.08l-1.45,3.54,2,1.41,2.77-2.58a86.22,86.22,0,0,1,9.27,8c.52.52,1,1,1.55,1.58Z"/><circle class="cls-2" cx="87.45" cy="86.63" r="8.01" transform="matrix(0.85, -0.52, 0.52, 0.85, -32.44, 58.74)"/><path class="cls-3" d="M94.22,70.91c-.06,0-.07.11.07.16l.17-.1Z"/><path class="cls-3" d="M95,71.64c.19,0,.45,0,.41-.21-.23.06-.24,0-.5.07s-.22-.17-.17-.21-.2-.14-.32-.09a.77.77,0,0,0,.64.35C95.12,71.61,95.05,71.62,95,71.64Z"/><path class="cls-3" d="M103.62,83.15v0Z"/><path class="cls-3" d="M103,92.11c0-.06,0-.1,0-.1S102.94,92.12,103,92.11Z"/><path class="cls-3" d="M102.21,93.47l.05-.07A.1.1,0,0,0,102.21,93.47Z"/><path class="cls-3" d="M103.62,83.15v.25C103.69,83.4,103.64,83.27,103.62,83.15Z"/><path class="cls-3" d="M97,72.34a.32.32,0,0,0-.14,0l.12,0Z"/><path class="cls-3" d="M102.19,79.41l0-.06-.09,0Z"/><path class="cls-3" d="M100.57,76.82c0,.06.17,0,.23,0a.19.19,0,0,1-.16-.07A.17.17,0,0,0,100.57,76.82Z"/><path class="cls-3" d="M97.29,73.22l-.08,0Z"/><path class="cls-3" d="M103,81.45s0,0,0,0Z"/><path class="cls-3" d="M90.75,69.5s0,0,0,0S90.77,69.51,90.75,69.5Z"/><path class="cls-3" d="M94.08,71.24h0l0,.07Z"/><path class="cls-3" d="M100.68,95.81h0C100.71,95.73,100.7,95.77,100.68,95.81Z"/><path class="cls-3" d="M78.05,99.82c.15.28-.48-.17-.21.22C77.84,100,78.29,100.11,78.05,99.82Z"/><path class="cls-3" d="M97.09,72.4l.12.07A.4.4,0,0,0,97.09,72.4Z"/><path class="cls-3" d="M77.84,100h0l0,0Z"/><path class="cls-3" d="M96.14,100.28a.13.13,0,0,0,.09,0S96.2,100.28,96.14,100.28Z"/><path class="cls-3" d="M99.9,97.29l-.09.07A.35.35,0,0,0,99.9,97.29Z"/><path class="cls-3" d="M94,101.62a.5.5,0,0,0-.17.06h0A.16.16,0,0,1,94,101.62Z"/><polygon class="cls-3" points="91.55 102.48 91.6 102.49 91.68 102.47 91.55 102.48"/><path class="cls-3" d="M82.38,70a.27.27,0,0,1,.16.08C82.47,70,82.85,69.85,82.38,70Z"/><path class="cls-3" d="M97,72.41a.12.12,0,0,1,.1,0l-.08,0A0,0,0,0,0,97,72.41Z"/><path class="cls-3" d="M94.36,102.68l-.41.17A3.27,3.27,0,0,0,94.36,102.68Z"/><path class="cls-3" d="M70.25,84.44v-.1S70.23,84.41,70.25,84.44Z"/><path class="cls-3" d="M92.71,103.3a.82.82,0,0,0-.27,0,.09.09,0,0,0,0,0Z"/><path class="cls-3" d="M82.54,70.1Z"/><path class="cls-3" d="M85.33,69.19c-.43,0-.18.21-.25.32-.49.12-.25-.1-.44-.17-.3.09-.51.3-.73.35,0,0-.07,0,0-.07-.29.22-1,.23-1.28.5a.08.08,0,0,1-.06,0,.32.32,0,0,1,.13.22c-.18.06-.29.22-.39.13.11,0,.1-.08.14-.13l-.17.11c-.22-.11.23-.15.2-.27a4.79,4.79,0,0,1-1,.51c-.12-.14.63-.28.21-.29l.45-.09c-.42-.14.26-.07-.13-.24-.58.16-.62.28-1.19.47-.08.14.1.11,0,.26-.69.5-.78-.12-1.26.35-.09.17,0,.4-.48.52l0-.25c-.52.28-.15.41-.74.6.05-.12.36-.28.27-.26-.42.07-.18.23-.44.38L78,72c-.48.4-1,.86-1.48,1.32,0-.06,0-.18-.11-.11a9.73,9.73,0,0,1-1,.89c-.34.31-.69.61-1,.88l-.11.33c0,.05-.14.06-.11,0-.24.22.06.07,0,.24s-.22.13-.18,0a9.19,9.19,0,0,1-1.21,1.89l0-.13c-.3.37,0,.61-.37.91l0-.09c-.53.87-.9,1.93-1.34,2.59.14.21-.44.92-.15,1.08a4.65,4.65,0,0,0-.6,1.12c-.08.21.11.36.1.63l-.16,0,.11.39-.22.16v.26c0-.1.11-.2.15-.18a1.81,1.81,0,0,1-.31,1l.08.94c-.06,0-.07-.18-.11-.3.13.51-.16.08,0,.55,0-.06.09,0,.12,0a2.62,2.62,0,0,0,0,1.13L70,87.41a14.31,14.31,0,0,0,.29,2.25c0-.29.2-.25.25,0l-.15.12c.12.13,0-.25.19,0s-.14.23-.23.07l.14.34s-.09,0-.15-.06c.13.12,0,.64.2.81l0,0a11.36,11.36,0,0,0,.59,1.69c.14,0,.19.21.36.34A10,10,0,0,0,72,94.47c.24.33.15,0,.31.17-.1.08.19.57,0,.36a6.51,6.51,0,0,0,1,1.39c0-.1,0-.2,0-.18s.16.32.1.33l0,0c.67.67,1.08,2,1.82,2.35l0,0,.68.45c.25.26-.23-.08-.08.16.74.45,1,.88,1.66,1.22.09.34.53.57,1,.82l.66.38a2,2,0,0,1,.55.37v-.1c.21,0,.18.14.3.23,0-.08-.15-.17,0-.16A26.47,26.47,0,0,0,84.51,104c.61.12.41-.4,1.14-.08l-.24.14a14.59,14.59,0,0,1,1.87,0,10.16,10.16,0,0,0,1.84-.15c-.07,0-.07.1-.19.1a1.24,1.24,0,0,0,.93-.21c.18,0,0,.08.17.11s.61-.23.76-.15-.06.06-.1.08c.15-.1.75-.17.57-.27.45,0,.82-.24,1.18-.27.18-.23.76-.18.75-.41,0,.22.82-.07,1-.31-.06.1.25,0,.18.09.3-.14.55-.3.45-.38.68,0,1-.74,1.42-.6l.57-.43.52-.45c.34-.31.7-.56,1-.87.14.21-.73.6-.57.76.64-.53.82-1,1.48-1.52.18-.11,0,.15-.05.23a14,14,0,0,0,1.52-1.74.42.42,0,0,1,0,.16c.08-.12.23-.24.14-.3l-.06.13c-.26.09.1-.64,0-.71.09.37.49-.51.56,0,0-.08.07-.21,0-.23.1-.1.16-.11.13,0,.27-.44.06-.37.31-.75,0,0,0,.12,0,.19a1.67,1.67,0,0,1,.33-.81s.07,0,0,.11c.36-.57.32-1.12.73-1.73.1.29.18-.19.36-.15a2.5,2.5,0,0,0,.11-.39l-.14.12a5.3,5.3,0,0,1,.26-.92l0,.27.2-.62-.2.32c0-.36-.23,0,0-.45,0,.09.13-.32.27-.46h0a1.1,1.1,0,0,1,.08-.6c.07-.05.18.1.23.07-.11-.2.18-.79,0-1,0,.08.13.1.15.08l-.1-.16c.06-.15.09-.17.16-.13.1-.47-.26.11-.07-.44,0,0,0,0,0,.12a13.15,13.15,0,0,0,.17-1.61c.2-.14,0,.46.19.3,0-.39,0-.78,0-1.17s-.11-.78-.1-1.14v.13c-.27-.08.11-.55,0-.91,0,.09.16.11.13.08a8.62,8.62,0,0,0-.41-1.74l.09.08c0-.3-.15-.77-.19-1.09-.09-.07-.12-.25-.19-.12a2.27,2.27,0,0,0-.35-1.37A3.66,3.66,0,0,1,103,79.6c0,.09.15.2.12.13l-.37-.66c-.08.11,0,.12,0,.3a1,1,0,0,1-.31-.38c.21.27.18-.09.16-.25,0,0-.08,0-.11,0,0-.43-.23.06-.37-.46h.06a2.41,2.41,0,0,1-.37-.46c.07-.15.16.15.26.1-.16-.25-.5-.38-.55-.66a3.06,3.06,0,0,1,.3.32c0-.34-.09-.34-.19-.54v0l-.24-.45,0,.13c-.51-.1-.47-.61-1-.84.49.24.15,0,.29-.08,0-.13-.15-.31-.08-.29-.25-.1-.19-.37-.55-.51,0,0-.16-.2,0-.24-.23-.21,0,.12-.07.14-.44-.25-.68-.94-1.33-1.25s-.72-.24-1.2-.51c-.1-.18.23,0,.23,0a1.49,1.49,0,0,0-.64-.48c.07,0,0-.07,0-.16-.21-.11-.23.07-.45-.15a.68.68,0,0,1,.3,0c-.25-.11-.52-.17-.78-.28,0-.11.21,0,.32,0-.29-.13-.73-.37-.88-.28l.15.13c-.1,0,0-.13.09-.11.28,0,.31.25.29.3L95.9,72c0,.35.69.38,1,.6l-.25.09.44.07c0,.09,0,.22-.16.14.17.24.24.09.37.32,0,0,0,0,0,0l.25.11c-.07,0-.05.15-.17,0,.31.39.72.36.77.59h0c.56.38.15-.08.65.13v.52l.15-.07s.14.16.08.18c.26.11,0-.08.2,0,.16.31.7.61.56.84.17,0-.14-.3.16-.08-.13.25.3.28.41.59-.16,0-.3-.24-.19.06.3,0,.35.48.53.67.15-.1.38.41.68.73,0,0,.35.75.49,1.13h0c.19,0,.4.34.55.61-.11,0-.16,0-.28-.12l.12.26c.08,0,.14.1.24.26h-.15a4.26,4.26,0,0,1,.56,1.11c.13,0,.2-.5.45,0-.06,0-.16.1-.23,0a.61.61,0,0,1,.11.23l-.18-.15c0,.22.13.07.18.24s0,.15-.11.15,0-.16-.07-.21a1.15,1.15,0,0,1,0,.54s.12,0,.18.1c.13.35-.07.15,0,.38.11.06.09.31.23.28s0,.14-.06.2.23.87.33.63v0h0c.33.6.14,1.34.31,1.95h0c.11.37.08.84.2,1.1s-.08.27-.14.23a1.13,1.13,0,0,1,0,.74c-.07-.3-.08.09,0-.3a1.39,1.39,0,0,0,0,.86c-.12-.14-.18.27-.15.45l.1-.25a3.26,3.26,0,0,1,0,.55l-.16-.11c-.31.71.16,1.42-.31,1.92.06.22.18-.39.27-.18a4.54,4.54,0,0,1-.46.74c-.22.43.13.5-.08,1,.08,0,.25-.05.17.33s-.39.32-.36.1.06-.11.08-.1.05-.26-.06-.16l0,.07c-.12.14-.28.59-.33.45,0,.27,0,.15.14,0-.24.39-.22.67-.49,1.06.06-.06.15-.09.12,0-.37.58,0,.31-.21.74-.2.2-.15-.18-.29.27-.18.23-.17,0-.16-.14-.07.44-.47.63-.6.83l.08-.21a1.79,1.79,0,0,1-.16.31l.17-.05c-.09.1-.15.2-.19.17,0,.15.22,0,.17.3-.15.11-.22.49-.4.45.35-.43-.15,0,.07-.44a1.07,1.07,0,0,1-.17.27s0,0,0-.07c-.42.33,0,.29-.33.72,0-.11-.21,0-.25.08.13-.17.18,0,.11.21-.26.23-.19.33-.31.47l.15-.14c0,.11-.08.24-.24.43-.06,0,.12-.19,0-.14-.07.3-.54.33-.72.68-.17.08-.13-.11-.27,0-.2.4-.41.23-.67.59.18,0,.18,0,0,.26l.49-.54-.24.43c.17-.14.31-.35.41-.44-.09.23-.1.19,0,.19-.35.07-.38.48-.73.62L98,99c-.47.25-.62.71-1.22,1l.21-.09c0,.15-.34.26-.49.43,0-.1-.17,0-.28,0,0,.06-.43.24-.38.44l-.33,0c-.5.22-.4.58-.91.76.1-.16-.15-.13.14-.34-.16.07-.32.12-.29.18s-.39.33-.57.31,0,.17-.22.25,0,0,0,0-.27.18-.06.22c-.63-.13-1.44.56-2,.38-.37.12-.81.27-1.15.35,0,0,0,0,.06,0-.5,0-.25.32-.82.3-.3-.12.28-.13.1-.16-.12-.32-.65.15-1,0l.08,0c-.28-.09-.67.16-1.14.15,0,0,0,0,0,0a3.26,3.26,0,0,1-1.37.23c.14-.12.2-.06.13-.19s0,.21-.36.22c-.13-.08-.41-.14-.43-.3a2.3,2.3,0,0,0,.37,0c-.17-.17-.48,0-.67-.1l0-.07c-.56-.06-.6.13-1.22,0l.06.07c-.38.13-.26-.17-.62-.11l-.05-.22a8.49,8.49,0,0,1-1.21-.09,7,7,0,0,1,1,0,2.56,2.56,0,0,0-.87-.11c.09,0,.22,0,.29,0a1.74,1.74,0,0,1-1.09-.13c.21-.33-1-.48-1.2-.93a4.35,4.35,0,0,1-1-.49,10.37,10.37,0,0,0-1-.72c.1.41-.23-.13-.36.15-.19-.1-.24-.17-.25-.19l-.39-.54c-.07-.16.19.07.22,0-.35-.29-.07-.22-.26-.46,0,.12-.22,0-.4-.17l.2.34c-.62-.27-.25-.56-.83-.86l.21.06c-.28-.18-.87-.82-1.25-.92,0-.06,0-.18.11-.08a12.18,12.18,0,0,0-.87-.9,3.12,3.12,0,0,1-.66-.9H74c-.1-.11-.27-.13-.29-.34,0,0,.09,0,.06,0a1.32,1.32,0,0,1-.37-.46l.16.1a2.4,2.4,0,0,0-.55-.79,4.6,4.6,0,0,1-.52-.72c.2-.09,0-.66-.06-1h0c-.27-.84-.68-1.36-.93-2.17a6.61,6.61,0,0,0-.06-1.18,5.54,5.54,0,0,1-.08-1.39c0,.13-.17,0-.2-.16S71,87,71.23,87v.07c.19-.15.1-.54.14-.85l-.26-.06a3.45,3.45,0,0,0,.22-1.42,1.92,1.92,0,0,1,.26-1.13,3.42,3.42,0,0,1,0-.64l.13,0c.18-.51.23-.78.42-1.42l0,.16c.14-.35-.22-.58-.11-.92l.24,0c.2-.64.7-1.13.81-1.81a.14.14,0,0,1,0,.17c.12-.3.72-1,.41-1,.17.09.37-.58.51-.93l.08.13a1.28,1.28,0,0,1,.23-.75c.08-.07.14,0,0,.08.27-.22.06-.29.37-.57l0,.18c.23-.26.16-.28.22-.49s.48-.45.61-.4a.45.45,0,0,1,.2-.42s0,.08,0,.12c.45-.36.53-.7.91-.87a.11.11,0,0,0,.11,0c-.35.3-.64.54-.62.51s.38-.13.28.19a2.89,2.89,0,0,1,.71-.94.08.08,0,0,1,.07,0l0,0a.49.49,0,0,0,.16-.16l.27-.14c.09.06.37-.2.52-.3-.09-.11.12-.23-.13-.19,0,0,0,0-.12.11l0,.06v0l-.37.27a.58.58,0,0,1,.38-.33c0-.13.06-.27.08-.34.32,0,.78-.18.91-.1a6.06,6.06,0,0,0,1.33-1.09c.13-.1.2,0,.27,0s-.18.1-.2.16c.26-.2.85-.42.85-.63.41-.08-.15.25.36,0l0,.08a2.82,2.82,0,0,0,1.35-.55,2.65,2.65,0,0,1,1.5-.38c-.08,0-.13,0-.15,0,1.38-.1,2.85-.57,4.23-.2.38.08.43,0,.68-.11l.07.15.42-.11c.6,0,.94.47,1.69.44l-.07-.12c.25.08.83.15.75.25s.12-.08.2,0v.08a3.5,3.5,0,0,1,.65.07c.46.22-.17.27.5.53.26.07.81.06.74,0s-.25-.14-.22-.22l.25,0c.13-.2.42-.34-.12-.72l-.47,0-.1-.16.36.13a.5.5,0,0,0-.49-.13.28.28,0,0,0-.13-.18l-.49.06c0-.1.25-.12,0-.24-.23,0,.13.24-.22.22C92.18,70,92.26,70,92,70c0-.07.05-.09.15-.09-.24,0-.58-.12-.72,0-.19-.19-.74-.14-.68-.34a1.53,1.53,0,0,1-.62.08c.41-.2-.75-.13-.62-.39-.3.18-1,0-1.52.13,0,0,.09-.06.13,0a2.06,2.06,0,0,1-.53-.17c0,.2-.47.26-.7.39-.34-.17.2-.23.09-.41,0,.16-.58.18-.46.31-.27-.11-.23-.05-.37-.2,0,.24-.24,0-.44.23-.38-.07-.12-.22-.52-.09C85,69.33,85.33,69.19,85.33,69.19Zm-8.76,4.18h0l.15-.14Zm-.61.54.27-.23s.06.08,0,.13S76.08,73.86,76,73.91Zm1.91-.31c-.08.09-.13.09-.16.08l.16-.14v0A.11.11,0,0,1,77.87,73.6Z"/><path class="cls-3" d="M77.94,73.33s0,0,0,0l-.08,0v.06Z"/><path class="cls-3" d="M103.62,83h0v0S103.62,83,103.62,83Z"/><polygon class="cls-3" points="70.32 83.52 70.35 83.53 70.33 83.45 70.32 83.52"/><path class="cls-3" d="M102.58,78.74a.11.11,0,0,0,0-.06S102.58,78.71,102.58,78.74Z"/><path class="cls-3" d="M101.61,77.07l-.12-.25C101.54,76.94,101.58,77,101.61,77.07Z"/><path class="cls-3" d="M100.79,75.83a.12.12,0,0,0-.07,0h0Z"/><path class="cls-3" d="M100.68,97.82l0,.05C100.58,98,100.64,97.92,100.68,97.82Z"/><path class="cls-3" d="M103.73,91.5a1.93,1.93,0,0,1,0,.24C103.78,91.62,103.81,91.52,103.73,91.5Z"/><polygon class="cls-3" points="94.41 102.67 94.41 102.66 94.36 102.68 94.41 102.67"/><path class="cls-3" d="M103.62,92a.89.89,0,0,0,.12-.3A1.11,1.11,0,0,0,103.62,92Z"/><path class="cls-3" d="M95.91,71.62l-.06,0s0,0,0,0Z"/><path class="cls-3" d="M95.83,71.6l-.08,0S95.81,71.61,95.83,71.6Z"/><path class="cls-3" d="M95.58,71.53l.17,0S95.64,71.51,95.58,71.53Z"/><path class="cls-3" d="M97.53,72.75l0,0Z"/><path class="cls-3" d="M98,73.11c-.11-.1-.22-.31-.4-.41l0,0C97.7,72.72,97.86,73.09,98,73.11Z"/><path class="cls-3" d="M99.43,75.21c-.1-.13-.21-.24-.32-.36,0,.09,0,.22-.12.08C99.32,75.46,99,74.75,99.43,75.21Z"/><path class="cls-3" d="M100.35,76.4c-.18-.18,0,0-.09.06C100.4,76.55,100.44,76.58,100.35,76.4Z"/><path class="cls-3" d="M103.91,86.41l-.13,0C103.81,86.58,103.83,86.38,103.91,86.41Z"/><path class="cls-3" d="M104.47,88.54a.69.69,0,0,0,.1-.19l-.11-.11A1.51,1.51,0,0,1,104.47,88.54Z"/><polygon class="cls-3" points="103.38 89.63 103.38 89.54 103.37 89.87 103.38 89.63"/><path class="cls-3" d="M92,102.25l.1.13C92.19,102.31,92.16,102.14,92,102.25Z"/><path class="cls-3" d="M84.27,102.73a.49.49,0,0,0-.42-.14C84,102.64,84.18,102.75,84.27,102.73Z"/><polygon class="cls-3" points="71.33 85.77 71.37 85.93 71.35 85.64 71.33 85.77"/><path class="cls-3" d="M102,65.83c-.09,0-.11.09.09.22l.22,0Z"/><path class="cls-3" d="M103.08,67c.26.1.6.19.56,0-.32,0-.33-.13-.67-.16-.19-.13-.29-.29-.22-.32-.09,0-.26-.25-.42-.24a1.64,1.64,0,0,0,.83.68C103.21,67,103.11,67,103.08,67Z"/><path class="cls-3" d="M112.27,86.46l0-.14A.59.59,0,0,0,112.27,86.46Z"/><path class="cls-3" d="M108.59,99.45c0-.09.06-.14,0-.15S108.56,99.46,108.59,99.45Z"/><path class="cls-3" d="M107.14,101.28l.1-.11S107.15,101.24,107.14,101.28Z"/><path class="cls-3" d="M112.27,86.46l0,.37C112.29,86.85,112.26,86.64,112.27,86.46Z"/><path class="cls-3" d="M105.66,68.8a.87.87,0,0,0-.18-.11l.15.12Z"/><path class="cls-3" d="M111.37,80.52l0-.11-.09-.07Z"/><path class="cls-3" d="M109.8,76.19c0,.1.18.08.25.09a.37.37,0,0,1-.18-.17S109.82,76.15,109.8,76.19Z"/><path class="cls-3" d="M106,70l-.1-.08Z"/><path class="cls-3" d="M111.93,83.77s0,0,0,0S111.92,83.79,111.93,83.77Z"/><path class="cls-3" d="M97.36,62.89a0,0,0,0,0,0,0S97.39,62.91,97.36,62.89Z"/><path class="cls-3" d="M101.83,66.14l-.07,0-.06.06Z"/><path class="cls-3" d="M104.23,104.33h0C104.31,104.22,104.27,104.27,104.23,104.33Z"/><path class="cls-3" d="M69.47,103.24c.2.42-.58-.44-.25.16C69.22,103.32,69.77,103.71,69.47,103.24Z"/><path class="cls-3" d="M105.74,68.9l.14.13Z"/><path class="cls-3" d="M69.22,103.4h0l0,.07Z"/><path class="cls-3" d="M96.1,109.52l.12,0S96.18,109.52,96.1,109.52Z"/><path class="cls-3" d="M102.53,106.16l-.16.09Z"/><path class="cls-3" d="M92.53,110.74a.69.69,0,0,0-.26.05h0A.39.39,0,0,1,92.53,110.74Z"/><path class="cls-3" d="M88.62,111.24l.08,0h.12Z"/><path class="cls-3" d="M85.12,61.09a.47.47,0,0,1,.2.1C85.25,61.1,85.84,61,85.12,61.09Z"/><path class="cls-3" d="M105.61,68.86a.14.14,0,0,1,.13,0l-.11-.09S105.59,68.83,105.61,68.86Z"/><path class="cls-3" d="M92.59,111.86,92,112Z"/><path class="cls-3" d="M63.22,78.28l0-.14A.43.43,0,0,0,63.22,78.28Z"/><path class="cls-3" d="M90,112.26a1.59,1.59,0,0,0-.38-.06l-.07,0Z"/><path class="cls-3" d="M85.32,61.19Z"/><path class="cls-3" d="M89.62,60.87c-.63,0-.31.16-.45.26-.74,0-.33-.16-.58-.27-.47,0-.82.17-1.17.19,0,0-.09,0,0-.08-.49.16-1.46,0-2,.26a.19.19,0,0,1-.08,0,.26.26,0,0,1,.11.24c-.27,0-.49.18-.61.07a.33.33,0,0,0,.25-.11l-.28.09c-.28-.14.39-.11.37-.24a9.82,9.82,0,0,1-1.62.36c-.11-.16,1-.19.4-.26l.68,0c-.54-.2.41,0-.1-.26-.89.08-1,.18-1.86.31-.17.13.09.12-.08.26-1.18.43-1.06-.2-1.91.22a1.15,1.15,0,0,1-.88.51l.15-.25c-.82.25-.38.41-1.27.57.13-.12.62-.27.49-.25-.61,0-.36.23-.78.37l-.15-.13c-.82.41-1.72.87-2.58,1.38,0-.07.15-.2-.08-.13-.54.35-1.14.67-1.74,1s-1.15.71-1.69,1l-.3.39c-.09.06-.19.08-.12,0-.4.27,0,.09-.1.29s-.33.17-.23,0c-.28.32-.7.77-1.14,1.19A14.71,14.71,0,0,1,69,68.91l.09-.15c-.53.46-.32.77-.87,1.14l.07-.11c-1,1.12-1.91,2.5-2.67,3.39.06.29-.87,1.22-.62,1.46A10.64,10.64,0,0,0,64,76.15c-.17.28,0,.52-.14.9l-.15,0,0,.57-.27.2-.1.37c.06-.14.18-.28.21-.24a3.64,3.64,0,0,1-.36.86c-.13.26-.24.45-.28.45l-.23,1.38c-.06,0,0-.28,0-.47,0,.76-.19.1-.23.79.06-.08.08.07.11.09a4.83,4.83,0,0,0-.35,1.64L62,82.52a21.65,21.65,0,0,0-.28,3.33c.07-.42.25-.31.25,0l-.18.13c.09.22.09-.35.18.1s-.18.29-.24,0l.07.53s-.07-.1-.14-.13c.11.21-.13.92.05,1.22l-.05,0A19.8,19.8,0,0,0,62,90.41c.14,0,.16.37.3.63.11.68.17,1.45.37,2.26.21.55.15.14.31.36-.11.08.16.87-.06.48l.4,1.11a7.29,7.29,0,0,0,.58,1.24c0-.15,0-.3,0-.24s.16.49.09.49l0,0a23,23,0,0,1,.93,2.11,5,5,0,0,0,1,1.82l0,0,.79.88c.29.46-.27-.21-.1.17a7.56,7.56,0,0,1,.56.65c.18.2.33.38.48.57a7.76,7.76,0,0,0,1,1.07c.1.46.67.92,1.22,1.43l.83.76a5.13,5.13,0,0,1,.71.65v-.1c.27.1.23.25.39.39,0-.07-.2-.25,0-.18.94.73,2,1.37,3,2.08.52.34,1.08.62,1.62.93l.82.46.85.36c.84.34.64-.25,1.62.35l-.35,0c.89.2,1.79.4,2.68.65a19.31,19.31,0,0,0,2.69.37c-.11,0-.12.08-.29,0a2.49,2.49,0,0,0,1.39,0c.27,0,.06.09.22.15.38.09,1-.08,1.15,0,0,0-.11,0-.18,0,.25-.06,1.14,0,.91-.15.66,0,1.26-.08,1.79-.06.33-.19,1.14-.06,1.22-.29,0,.22,1.19,0,1.57-.18-.13.1.37,0,.23.12.46-.11.88-.25.78-.34.94.1,1.63-.7,2.21-.51l1-.41.9-.47c.58-.32,1.19-.55,1.72-.91.08.25-1.26.63-1.11.82a8.63,8.63,0,0,0,1.32-.84,9.77,9.77,0,0,1,1.32-.81c.29-.13-.1.17-.17.25.52-.31,1-.68,1.45-1a7.37,7.37,0,0,0,1.3-1s-.06.11-.14.2c.16-.15.4-.3.32-.36l-.14.15c-.35.11.44-.78.41-.86-.08.45.85-.63.66,0,.1-.11.2-.26.13-.29.17-.12.25-.13.14.06.54-.53.24-.46.73-.94,0,0,0,.15-.06.25a3.3,3.3,0,0,1,.77-1s.07,0-.05.15c.71-.71.9-1.46,1.65-2.24,0,.38.29-.25.47-.19a2.9,2.9,0,0,0,.29-.51l-.2.14a13.28,13.28,0,0,1,.69-1.22l-.14.36.49-.83-.35.42c.19-.49-.24-.08.17-.62-.06.12.28-.42.48-.62h0a2.34,2.34,0,0,1,.33-.83c.09-.06.15.17.21.13,0-.3.51-1.09.46-1.45,0,.11.09.15.12.13l0-.25c.12-.2.15-.23.21-.16.27-.66-.3.12.09-.63,0,.07,0,0,0,.18a18.63,18.63,0,0,0,.75-2.3c.24-.17-.14.68.08.47.13-.56.23-1.14.33-1.71s.12-1.14.24-1.68l0,.2c-.24-.19.27-.78.22-1.34,0,.14.12.19.1.15a16.5,16.5,0,0,0,0-2.66l.07.15c0-.44,0-1.16,0-1.64-.07-.14-.07-.41-.16-.24a4.56,4.56,0,0,0-.14-2.09,10.27,10.27,0,0,1-.32-2c0,.15.14.35.11.23l-.3-1.07c-.1.12,0,.16-.08.41a2.15,2.15,0,0,1-.27-.67c.17.46.19-.06.18-.28,0,0-.09,0-.11,0,0-.6-.26,0-.37-.81l.07,0a5.27,5.27,0,0,1-.36-.8c.08-.17.15.27.27.26-.16-.42-.5-.75-.55-1.16a6.28,6.28,0,0,1,.31.57,1.65,1.65,0,0,0-.18-.81v0l-.24-.73,0,.2c-.56-.36-.47-1-1.07-1.58.55.54.17,0,.33,0,0-.19-.15-.47-.08-.42-.28-.25-.2-.57-.61-.92,0,0-.18-.34,0-.33-.26-.39,0,.14-.09.14a18.61,18.61,0,0,0-1.54-2.23c-.63-.63-.87-.64-1.46-1.2-.12-.27.28,0,.28,0a3,3,0,0,0-.79-.9c.09,0,0-.06,0-.18-.25-.23-.29,0-.56-.39a1.13,1.13,0,0,1,.38.09c-.32-.24-.67-.45-1-.7,0-.14.26.08.41.14-.37-.3-.92-.79-1.13-.75l.2.22c-.14-.1,0-.15.12-.08.35.19.38.43.36.48l-.23-.18c0,.42.88.77,1.29,1.2l-.32,0,.56.3c0,.13,0,.27-.2.09.21.37.3.22.45.57,0,0,0,0,0,0l.31.27c-.09,0-.07.15-.21-.06.38.63.89.8.94,1.1l-.05,0c.68.75.19,0,.78.49v.64h.18c.06.09.17.27.09.27.31.26,0-.09.23,0a4,4,0,0,0,.47.77c.15.26.26.48.18.6.19.09-.16-.47.18,0-.15.26.34.52.46,1-.19-.06-.34-.47-.22,0,.35.13.39.8.57,1.14.17-.06.41.74.72,1.31,0,0,.32,1.19.44,1.78h0c.2.06.4.65.52,1.09-.11,0-.16-.06-.27-.28,0,.13.06.27.1.41a1.13,1.13,0,0,1,.22.47l-.16-.07a8.11,8.11,0,0,1,.45,1.81c.13,0,.28-.64.46.12-.06,0-.18.08-.23-.11a1,1,0,0,1,.08.36L112,82.7c0,.34.12.16.14.43-.1,0,0,.2-.12.17s0-.23,0-.33a2.28,2.28,0,0,1-.06.8c.06,0,.14,0,.18.2.07.56-.1.2-.11.53.1.13,0,.5.18.5a.32.32,0,0,1-.1.26c.08.29.06,1.37.21,1v0h0a14.52,14.52,0,0,1-.13,3h0c0,.58-.16,1.26-.11,1.68,0,.17-.15.38-.2.3a2.33,2.33,0,0,1-.21,1.09c0-.44-.11.13.05-.45a3.44,3.44,0,0,0-.32,1.26c-.07-.23-.26.37-.29.64l.18-.36a7.11,7.11,0,0,1-.21.8l-.12-.19c-.59,1-.37,2.08-1.06,2.75,0,.32.36-.53.36-.23a9.29,9.29,0,0,1-.79,1c-.41.6-.06.73-.5,1.36.11,0,.29,0,0,.46s-.57.43-.43.12c.07-.11.11-.15.13-.14.07-.15.17-.36,0-.21l0,.09c-.2.19-.58.81-.57.61-.16.37,0,.2.18,0-.45.52-.54.92-1,1.42.09-.06.21-.1.14,0-.69.77-.19.43-.6,1-.31.25-.08-.25-.45.35-.31.3-.17,0-.11-.2-.28.6-.85.82-1.1,1.08l.19-.27a3.54,3.54,0,0,1-.34.4l.22-.06c-.15.13-.27.25-.3.21-.09.2.25,0,0,.39-.22.15-.5.64-.68.57.62-.54-.17,0,.3-.56a1.92,1.92,0,0,1-.35.35s0,0,0-.08c-.68.41-.15.36-.77.89,0-.13-.25,0-.34.1.25-.21.21,0,0,.26-.45.29-.4.41-.62.58l.26-.18c0,.15-.23.31-.52.53-.07,0,.24-.23.12-.17-.25.35-.85.39-1.26.8-.25.1-.11-.12-.32,0-.45.47-.64.26-1.17.67.23,0,.25,0-.11.3l.92-.6-.53.49c.29-.17.58-.4.75-.5-.23.27-.22.21,0,.22-.49.07-.74.53-1.26.69l-.13-.27a4.86,4.86,0,0,0-1,.55,6.58,6.58,0,0,1-1.16.58l.32-.09c-.08.16-.57.27-.86.45,0-.11-.21-.06-.36-.06,0,.06-.71.23-.74.44L95,110c-.8.2-.81.59-1.61.72.21-.16-.16-.15.34-.34-.26.06-.49.1-.48.16-.17,0-.69.29-1,.26-.1.06-.11.17-.41.23,0,0,0,0,0,0s-.45.15-.17.22c-.86-.23-2.28.37-3,.07-.58,0-1.28.11-1.81.12,0,0,0,0,.1,0-.72-.14-.45.25-1.28.09-.41-.19.45-.06.19-.13-.09-.35-1,0-1.54-.28h.14a12.66,12.66,0,0,0-1.72-.18s0,0,0-.05a6.38,6.38,0,0,1-2.05-.22c.23-.07.31,0,.22-.14-.29-.06,0,.22-.56.1-.17-.12-.58-.28-.58-.45a4.77,4.77,0,0,0,.54.15c-.23-.23-.7-.2-1-.34l.06-.06c-.82-.28-.9-.1-1.77-.44l.07.09c-.55,0-.34-.28-.86-.37l-.06-.25a15,15,0,0,1-1.69-.6c.36.06,1,.28,1.46.4a4.88,4.88,0,0,0-1.21-.48,1.59,1.59,0,0,1,.4.16,3.44,3.44,0,0,1-1.5-.62c.31-.26-1.42-1-1.59-1.57a8.38,8.38,0,0,1-1.4-1.07c-.41-.44-.83-.9-1.33-1.36.14.54-.29-.26-.45,0-.25-.2-.3-.31-.31-.34l-.49-.86c-.08-.23.24.19.28.12-.43-.54-.09-.3-.32-.7,0,.14-.28-.08-.5-.4l.25.5c-.77-.62-.31-.81-1-1.5l.25.2A20.9,20.9,0,0,0,66.22,99c0-.09,0-.24.13-.06-.26-.53-.68-1-1-1.61a7.73,7.73,0,0,1-.69-1.55l.11.06c-.11-.2-.3-.3-.31-.59,0,0,.1.06.07,0a3.08,3.08,0,0,1-.36-.82l.16.22a5.3,5.3,0,0,0-.52-1.36A8.46,8.46,0,0,1,63.36,92c.23,0,.06-.94,0-1.4h0a13.57,13.57,0,0,0-.32-1.78,14.38,14.38,0,0,1-.25-1.73c.09-.39.1-1,.18-1.76a10.35,10.35,0,0,1,.28-2.1c-.07.18-.16,0-.15-.28s0-.83.17-.74l0,.1c.24-.18.25-.79.4-1.24l-.23-.13a8.24,8.24,0,0,0,.7-2,4.19,4.19,0,0,1,.69-1.6,7.11,7.11,0,0,1,.27-.93l.12.07c.42-.71.57-1.09,1-2l0,.22c.31-.47,0-.81.31-1.27l.26,0c.5-.89,1.32-1.53,1.77-2.44,0,0,0,.1-.05.23.26-.4,1.32-1.25,1-1.33.15.12.72-.75,1.06-1.18l0,.15a2.51,2.51,0,0,1,.66-.93c.13-.08.17,0,0,.11.43-.28.21-.36.73-.71l-.12.22a1.62,1.62,0,0,0,.51-.59c.24-.24.84-.55,1-.48a.92.92,0,0,1,.47-.5c.06,0,0,.1-.06.15a9.45,9.45,0,0,1,1.62-1s.07,0,.12,0c-.6.33-1.09.6-1,.56.07.11.56-.14.27.23a6,6,0,0,1,1.4-1.07h.09l0,0a1.28,1.28,0,0,0,.3-.19l.42-.14c.11.07.61-.21.87-.31-.08-.12.26-.25-.1-.22,0,0,0,0-.21.12l-.1.06v0l-.63.29a1.27,1.27,0,0,1,.68-.36,2.57,2.57,0,0,1,.27-.36c.42,0,1.14-.17,1.28-.07a15.63,15.63,0,0,0,2.34-1c.23-.09.29,0,.39,0a1.93,1.93,0,0,0-.36.14c.46-.17,1.39-.34,1.47-.55.62,0-.31.23.51.05l-.1.07A6.46,6.46,0,0,0,85.44,62a5.66,5.66,0,0,1,2.32-.1c-.12,0-.19,0-.21-.06,2.07.21,4.35.12,6.28,1a2,2,0,0,0,1,.11l.08.18c.21,0,.42,0,.63.05a3.35,3.35,0,0,1,1.11.53,5.13,5.13,0,0,0,1.26.57l-.09-.16c.35.2,1.16.51,1,.58a.32.32,0,0,1,.28.08l0,.08a6.37,6.37,0,0,1,.91.36c.61.45-.26.21.66.8.35.19,1.11.43,1,.3s-.33-.26-.3-.34l.34.17c.19-.15.58-.19-.13-.83L101,65l-.12-.21.47.29a1.08,1.08,0,0,0-.65-.35.51.51,0,0,0-.17-.25l-.66-.15c0-.12.34,0,0-.27-.32,0,.16.31-.32.15-.23-.24-.11-.27-.48-.36,0-.07.07-.07.21,0-.33-.08-.8-.36-1-.33-.24-.28-1-.44-.91-.61a3.38,3.38,0,0,1-.9-.15c.61-.05-1-.41-.82-.63a19.72,19.72,0,0,1-2.2-.37.31.31,0,0,1,.19,0,4.51,4.51,0,0,1-.74-.33c-.09.18-.73.12-1.08.18-.46-.26.33-.17.21-.38,0,.16-.89,0-.74.17-.36-.17-.31-.1-.49-.3-.1.24-.36,0-.69.11-.54-.15-.12-.24-.74-.2C89.07,60.92,89.62,60.87,89.62,60.87Zm-14,3.23h0l.25-.15Zm-1.06.59.46-.25c.06,0,.05.08-.06.14S74.79,64.64,74.61,64.69Zm2.68-.29c-.16.09-.23.09-.27.07l.29-.14v0A.16.16,0,0,1,77.29,64.4Z"/><path class="cls-3" d="M77.51,64.1l.07,0h-.11l0,.07Z"/><path class="cls-3" d="M112.29,86.3v0a.43.43,0,0,1,0,0S112.29,86.28,112.29,86.3Z"/><polygon class="cls-3" points="63.64 76.99 63.67 77 63.68 76.89 63.64 76.99"/><path class="cls-3" d="M111.84,79.74s0,0,0-.09Z"/><path class="cls-3" d="M110.92,77l-.12-.39C110.85,76.81,110.89,76.93,110.92,77Z"/><path class="cls-3" d="M110.07,75s-.06,0-.08,0h.08Z"/><path class="cls-3" d="M103.22,106.81l-.06.06C103,107,103.12,106.92,103.22,106.81Z"/><path class="cls-3" d="M109.68,98.65c0,.11-.05.22-.09.33C109.68,98.82,109.75,98.7,109.68,98.65Z"/><polygon class="cls-3" points="92.67 111.85 92.67 111.85 92.59 111.86 92.67 111.85"/><path class="cls-3" d="M109.33,99.39a1.56,1.56,0,0,0,.26-.41A2.57,2.57,0,0,0,109.33,99.39Z"/><path class="cls-3" d="M104.24,67.43l-.07-.08h0Z"/><path class="cls-3" d="M104.14,67.36l-.1-.06A.28.28,0,0,0,104.14,67.36Z"/><path class="cls-3" d="M103.82,67.17l.22.13C104,67.24,103.89,67.17,103.82,67.17Z"/><path class="cls-3" d="M106.28,69.53h0Z"/><path class="cls-3" d="M106.87,70.2a4.8,4.8,0,0,0-.48-.68h0C106.49,69.58,106.67,70.1,106.87,70.2Z"/><path class="cls-3" d="M108.54,73.52c-.11-.22-.25-.42-.37-.63,0,.14.06.32-.14,0C108.41,73.78,108,72.72,108.54,73.52Z"/><path class="cls-3" d="M109.57,75.52c-.21-.33-.07,0-.1,0C109.62,75.75,109.66,75.81,109.57,75.52Z"/><path class="cls-3" d="M111.74,91.34l-.12-.06C111.59,91.58,111.67,91.29,111.74,91.34Z"/><path class="cls-3" d="M111.59,94.55a1.45,1.45,0,0,0,.17-.26l-.07-.17A2.07,2.07,0,0,1,111.59,94.55Z"/><polygon class="cls-3" points="110.09 95.97 110.12 95.84 109.98 96.32 110.09 95.97"/><path class="cls-3" d="M89.32,111.1l.1.15C89.62,111.19,89.64,111,89.32,111.1Z"/><path class="cls-3" d="M77.83,109.37a1.21,1.21,0,0,0-.58-.32A2.72,2.72,0,0,0,77.83,109.37Z"/><polygon class="cls-3" points="63.84 80.39 63.83 80.63 63.9 80.19 63.84 80.39"/></g></g></g></svg>