<svg xmlns="http://www.w3.org/2000/svg" viewBox="0 0 227.17 228.56"><defs><style>.cls-1,.cls-2{fill:#d3d3d3;}.cls-1{stroke:#d3d3d3;stroke-linecap:round;stroke-linejoin:round;stroke-width:0.5px;}.cls-3{fill:none;}.cls-4{fill:#202020;}</style></defs><g id="Layer_2" data-name="Layer 2"><g id="industrialization_graphic" data-name="industrialization graphic"><g id="TOP_-1" data-name="TOP -1"><circle class="cls-1" cx="103.81" cy="93.88" r="9.41" transform="translate(-27.81 46.27) rotate(-22.24)"/><path class="cls-2" d="M212.9,36.57A14.9,14.9,0,0,0,197,50.44a14.72,14.72,0,0,0,1.32,7.22l-81.45,26.5a16.19,16.19,0,0,0-8.8-6,16.14,16.14,0,0,0-12.3,1.53L9.37,1.94A5.19,5.19,0,0,0,2,2.32H2a5.2,5.2,0,0,0,.39,7.33L88.85,87.4a18.32,18.32,0,0,0-.77,2.19,16.31,16.31,0,0,0,7.44,18.33L71.39,221.63a5.2,5.2,0,0,0,4,6.16h0a5.2,5.2,0,0,0,6.16-4l24.12-113.71a16.52,16.52,0,0,0,6.14-2,16.13,16.13,0,0,0,7.71-9.9,16.92,16.92,0,0,0,.58-4.13l87.23-28.39a14.7,14.7,0,0,0,3.54.68,14.91,14.91,0,1,0,2-29.76ZM111.46,103.29a12.13,12.13,0,1,1,0-18.81A12.18,12.18,0,0,1,111.46,103.29ZM223.57,49.45a11.82,11.82,0,0,1-8,13.28,11.61,11.61,0,0,1-4.46.55,11.84,11.84,0,0,1-9.82-6.57,11.69,11.69,0,0,1-1.21-6.06,11.85,11.85,0,0,1,23.51-1.2Z"/><path class="cls-3" d="M212.9,36.57A14.9,14.9,0,0,0,197,50.44a14.72,14.72,0,0,0,1.32,7.22l-81.45,26.5a16.19,16.19,0,0,0-8.8-6,16.14,16.14,0,0,0-12.3,1.53L9.37,1.94A5.19,5.19,0,0,0,2,2.32H2a5.2,5.2,0,0,0,.39,7.33L88.85,87.4a18.32,18.32,0,0,0-.77,2.19,16.31,16.31,0,0,0,7.44,18.33L71.39,221.63a5.2,5.2,0,0,0,4,6.16h0a5.2,5.2,0,0,0,6.16-4l24.12-113.71a16.52,16.52,0,0,0,6.14-2,16.13,16.13,0,0,0,7.71-9.9,16.92,16.92,0,0,0,.58-4.13l87.23-28.39a14.7,14.7,0,0,0,3.54.68,14.91,14.91,0,1,0,2-29.76ZM111.46,103.29a12.13,12.13,0,1,1,0-18.81A12.18,12.18,0,0,1,111.46,103.29ZM223.57,49.45a11.82,11.82,0,0,1-8,13.28,11.61,11.61,0,0,1-4.46.55,11.84,11.84,0,0,1-9.82-6.57,11.69,11.69,0,0,1-1.21-6.06,11.85,11.85,0,0,1,23.51-1.2Z"/><path class="cls-4" d="M223.25,49.51s.14,0,.1-.11l-.18,0Z"/><path class="cls-4" d="M223.4,48.75c-.11-.11-.27-.21-.4-.1.18.08.12.13.33.21,0,.11,0,.2-.08.19s0,.17.12.21a.42.42,0,0,0-.08-.5S223.37,48.74,223.4,48.75Z"/><path class="cls-4" d="M217.13,40.57l.06,0A.15.15,0,0,0,217.13,40.57Z"/><path class="cls-4" d="M210.64,39.35c.05,0,.07,0,.07,0S210.62,39.33,210.64,39.35Z"/><path class="cls-4" d="M209.47,39.34h.07A.08.08,0,0,0,209.47,39.34Z"/><path class="cls-4" d="M217.13,40.57l-.14-.13S217.06,40.52,217.13,40.57Z"/><path class="cls-4" d="M222.61,47.49a.16.16,0,0,0,.07.07l-.05-.07Z"/><path class="cls-4" d="M219.69,42.05l0,0,.08,0Z"/><path class="cls-4" d="M221.32,43.64s-.15,0-.21.06a.2.2,0,0,1,.14,0S221.3,43.68,221.32,43.64Z"/><path class="cls-4" d="M223,46.83l0,.05Z"/><path class="cls-4" d="M218.38,41.06a.11.11,0,0,0,0-.05A.07.07,0,0,0,218.38,41.06Z"/><path class="cls-4" d="M223.07,52h0S223.08,52,223.07,52Z"/><path class="cls-4" d="M223.61,49.45v0h.08Z"/><path class="cls-4" d="M207.36,39.77h0S207.39,39.75,207.36,39.77Z"/><path class="cls-4" d="M200.35,56.1c0-.25.29.27.29-.09C200.6,56.06,200.33,55.81,200.35,56.1Z"/><path class="cls-4" d="M222.6,47.44l0-.08Z"/><path class="cls-4" d="M200.64,56h0v0Z"/><path class="cls-4" d="M203.25,42.5h.08S203.3,42.49,203.25,42.5Z"/><path class="cls-4" d="M206.33,40.54l-.09,0Z"/><path class="cls-4" d="M202.13,44a.16.16,0,0,0-.08.1h0A.1.1,0,0,1,202.13,44Z"/><polygon class="cls-4" points="201.08 45.69 201.12 45.67 201.14 45.62 201.08 45.69"/><path class="cls-4" d="M221.59,57.18a.45.45,0,0,1,.16,0C221.65,57.14,221.75,56.9,221.59,57.18Z"/><path class="cls-4" d="M222.68,47.47a.1.1,0,0,1-.08,0l0,.05A.06.06,0,0,0,222.68,47.47Z"/><path class="cls-4" d="M203,44.77l-.18.22A2.13,2.13,0,0,0,203,44.77Z"/><path class="cls-4" d="M210.65,62.66h.07A.08.08,0,0,0,210.65,62.66Z"/><path class="cls-4" d="M202.34,45.7a.51.51,0,0,0-.16.09s0,0,0,.05Z"/><path class="cls-4" d="M221.75,57.17Z"/><path class="cls-4" d="M222.25,55.33c-.1.25.12.19.2.28-.08.32-.18.09-.32.15s.06.42,0,.55-.05,0-.07,0c0,.26-.29.57-.25.89h-.05a.52.52,0,0,1,.24.09c-.07.11,0,.26-.16.24,0-.06,0-.09,0-.14l0,.14c-.21,0,0-.19-.07-.25-.08.24-.12.57-.27.71-.16-.06.2-.42-.06-.28l.21-.22c-.35,0,.11-.14-.24-.12-.25.3-.16.42-.43.7,0,.13.13.06.15.19-.19.56-.6.08-.68.54,0,.15.15.33-.13.47l-.07-.2c-.28.25,0,.34-.33.54,0-.11.17-.26.11-.24-.29.08-.05.21-.19.35l-.15-.09a10.86,10.86,0,0,1-.87,1s0-.14-.1-.12a3.5,3.5,0,0,1-1.52.83l-.12.23s-.1,0-.07-.07c-.21.05,0,.09,0,.19s-.18,0-.13-.08a4.07,4.07,0,0,1-.6.44,1.47,1.47,0,0,1-.71.21l.06-.06c-.31,0-.24.4-.56.35l.05,0a4.37,4.37,0,0,1-1.91.22c-.07.23-.66,0-.69.26a2.89,2.89,0,0,0-.81-.29c-.14,0-.22.18-.4.2v-.16l-.25.14-.12-.19-.16,0c.06,0,.13.08.12.13-.27,0-.62-.18-.61-.26l-.63,0c0-.06.13-.06.22-.08-.35.09,0-.17-.35-.09,0,0,0,.08-.05.11a1.56,1.56,0,0,0-.7-.24l.07-.08c-.42-.15-.91-.25-1.38-.45.15.12,0,.27-.11.23l0-.18c-.13.05.11.13-.12.15s0-.22.08-.22l-.23,0s.07,0,.11-.1c-.13.05-.29-.31-.48-.22v0c-.44-.24-.66-.32-1-.53-.09.12-.2,0-.37,0-.23-.22-.43-.51-.71-.74s-.14,0-.28,0c.07-.11-.21-.35,0-.29-.33-.28-.42-.36-.88-.7,0,.08,0,.14,0,.14s-.12-.2-.07-.23h0c-.57-.37-.61-1.35-1.07-1.63l0,0A3.41,3.41,0,0,1,202,57c-.1-.22.15.08.13-.11-.45-.39-.37-.79-.68-1.16.21-.46-.46-1.17-.33-1.71l-.08.05c-.11-.1,0-.16,0-.25s0,.15-.11.09a6.92,6.92,0,0,1,0-3.2c.07-.38-.43-.27-.16-.74l.14.16a2.83,2.83,0,0,1,.12-1.19c.07-.39.21-.77.26-1.16,0,0,.06.07,0,.14.17-.11.19-.57.11-.6s.09,0,.17-.05,0-.43.17-.46,0,.06,0,.09.21-.45,0-.42c.19-.23.22-.51.4-.68-.06-.21.31-.39.16-.54.18.14.45-.32.47-.53,0,.09.15-.09.18,0,.11-.18.22-.34.1-.39.46-.11.34-.75.75-.66.18-.26.36-.5.55-.74a7.15,7.15,0,0,1,.61-.62c.12.19-.48.4-.31.57.36-.39.47-.77,1-1,.14,0,0,.13,0,.18a3.9,3.9,0,0,1,.64-.45,2.82,2.82,0,0,0,.62-.39s0,.06-.06.1.21-.07.15-.16l-.07.07c-.2-.06.2-.46.19-.53,0,.33.48-.11.39.33.05,0,.1-.12.06-.18s.14,0,.08.12c.29-.18.14-.23.43-.35,0,.05,0,.09-.05.16a.66.66,0,0,1,.49-.32s0,.06,0,.08c.43-.13.67-.49,1.18-.47-.1.24.18,0,.24.22l.25-.1-.12-.07c.22,0,.41-.21.62-.16l-.17.09.43-.07-.25,0c.23-.12,0-.24.27-.21-.06,0,.24,0,.37.08h0a.45.45,0,0,1,.41-.09c.05.06,0,.21,0,.25.11-.16.54,0,.69-.2a.16.16,0,0,0,0,.15l.1-.12c.11,0,.12.06.1.14.32,0-.09-.25.29-.12,0,0,0,0-.08,0,.38.1.76,0,1.1.12.08.2-.31,0-.22.17a5.67,5.67,0,0,1,1.55.16l-.08,0c.14-.23.32.22.6.18-.07,0-.13.11-.1.09a6.63,6.63,0,0,0,1.18.32l-.09,0c.15.14.46.26.64.39.09,0,.19,0,.17-.09a1.31,1.31,0,0,0,.79.57,1.26,1.26,0,0,1,.71.55s-.17,0-.12,0l.42.26c.05-.11,0-.09,0-.23a.54.54,0,0,1,.34.12c-.23-.09-.12.15-.09.26s.06,0,.08-.08c.06.33.2-.15.37.2l-.06,0c.12.07.27.1.36.22s-.15-.06-.23,0c.15.14.47.11.51.34-.09,0-.18-.13-.27-.17,0,.26.08.24.16.37h0l.17.31,0-.1c.42,0,.4.34.77.5-.37-.15-.13,0-.27.1,0,.09.06.23,0,.22.2.06.08.27.36.36,0,0,.1.14,0,.18.14.16.05-.09.11-.11.3.2.24.74.64,1s.46.31.67.64c0,.15-.2,0-.2,0a.86.86,0,0,0,.2.52c-.05,0-.07,0-.1.1s.21,0,.21.25a.67.67,0,0,1-.24-.08c.11.16.24.3.34.47-.07.07-.16-.07-.23-.12.1.19.23.5.38.53V48.3c0,.07-.1.07-.14,0a.17.17,0,0,1,0-.29l.07.12c.23-.21-.18-.52-.28-.77l.24,0-.27-.2c0-.08.12-.16.2,0,0-.23-.13-.14-.09-.34,0,0,0,0,0,0l-.13-.16s.12-.09.14,0c0-.38-.39-.45-.3-.64l0,0c-.28-.41-.15,0-.47-.21l.21-.4-.16,0s-.06-.13,0-.15c-.19-.1,0,.06-.18,0,0-.28-.4-.53-.24-.7-.14,0,.06.23-.15.07.17-.21-.21-.22-.25-.46.15,0,.22.18.18-.07-.25,0-.21-.38-.38-.5-.14.11-.32-.26-.57-.46.06,0-.35-.48-.51-.74l0,0c-.16.09-.37-.12-.56-.24.08-.08.14-.08.26,0l-.16-.14a.31.31,0,0,1-.26-.07l.12-.08c-.21-.18-.54-.21-.78-.49-.08.09,0,.45-.32.31,0-.07.08-.17.18-.14s-.13,0-.16-.08h.18c-.1-.13-.12,0-.22-.05.06-.08,0-.11,0-.17s.07.1.13.1c-.1-.11-.23-.24-.24-.34a.11.11,0,0,1-.17.07c-.24-.13,0-.15-.13-.28-.09,0-.21-.12-.29,0-.07,0,0-.11-.06-.16s-.61-.28-.53-.07l0,0h0c-.47-.08-.85-.47-1.31-.58l0,0a2.86,2.86,0,0,0-.82-.11c-.08,0-.17-.14-.12-.18a1.07,1.07,0,0,1-.53-.12c.23,0-.06-.09.23,0-.26-.1-.31-.19-.63-.12.12-.1-.18-.2-.32-.18l.18.12a2.4,2.4,0,0,1-.4-.06l.09-.15c-.56-.28-1.05.23-1.47-.1-.16.11.3.08.17.22-.26,0-.54-.27-.62-.27-.37-.11-.33.25-.71.21,0,.06.11.21-.16.29s-.35-.22-.19-.28.1,0,.1,0,.19-.07.08-.12l0,.06c-.13,0-.5,0-.42-.12-.2.08-.08.11.07.13-.35-.06-.52.08-.87.08.06,0,.12.08.07.09-.52,0-.2.15-.53.24s0-.23-.3-.06c-.22,0-.09-.14,0-.21-.28.2-.6.1-.79.13l.15-.09a1.63,1.63,0,0,1-.25.1l.13.08c-.1,0-.18,0-.2,0s.14.16,0,.33c-.15,0-.35.21-.45.08.4-.11-.1-.13.22-.29a.4.4,0,0,1-.24.09s0,0,0,0c-.43,0-.11.23-.49.38,0-.1-.16-.12-.21-.07.15-.06.13.1,0,.23-.26.06-.23.18-.35.23l.15,0c0,.1-.13.15-.27.26-.05,0,.12-.12,0-.11-.1.23-.49.05-.67.3-.14,0-.1-.13-.22-.11-.21.27-.36.09-.59.35.15.05.15,0,0,.24l.41-.37-.2.34c.14-.09.25-.25.34-.29-.08.17-.08.14,0,.18-.29,0-.32.32-.6.37l-.16-.24c-.39.14-.47.54-.9.82l.15-.07c0,.12-.21.22-.3.37-.06-.08-.16,0-.25,0s-.28.25-.17.42l-.26.07c-.31.28-.09.55-.37.82,0-.16-.18-.07-.06-.32-.09.1-.18.18-.13.23-.11,0-.13.36-.27.41s.08.14,0,.26a0,0,0,0,1,0,0s-.08.22.08.18c-.5.15-.58,1-1,1.12-.13.26-.22.6-.32.84,0,0-.05,0,0-.06-.23.29.17.31-.09.64-.22.13,0-.23-.1-.14-.34-.07-.12.48-.39.68v-.07c-.17.17-.07.52-.16.85,0,0,0,0,0,0a2.75,2.75,0,0,1,0,1c-.11-.13,0-.16-.18-.12s.21,0,.21.28c-.08.09-.17.29-.31.3l0-.28c-.2.12,0,.36-.09.5l-.07,0c0,.44.16.46.12.91l.07,0c.18.25-.12.2,0,.45l-.2.08c0,.16.2.57.26.86a2.39,2.39,0,0,1-.34-.72c0,.17,0,.57.14.65s-.07-.15-.05-.22a1.33,1.33,0,0,1,.29.77c-.39,0,0,.85-.21,1.14.26.54.21,1.15.47,1.79.2-.33.08.19.35,0,.08.13.1.19.08.21,0,.17,0,.34,0,.51s-.12-.11-.17-.07c.12.33-.06.19,0,.44.08-.1.19,0,.25.24v-.32c.36.36,0,.49.34.86l-.15-.09c.16.19.48.81.83.88,0,0,0,.15-.12.07.32.53,1,.92,1.22,1.35h-.09c.1.07.24,0,.28.21,0,0-.09,0,0,.06s.3.11.38.25l-.15,0c.36.49.81.46,1.21.72-.14.18.2.51.37.68l0,0a5.41,5.41,0,0,0,1.69.68c.25.39,1.17.65,1.75.94-.09-.06.06-.15.17-.14s.44,0,.36.15l-.05,0c.06.22.38.24.61.31l.09-.25c.55.5,1.62.1,1.93.45.15-.06.34-.05.49-.12v.14a4,4,0,0,0,1.15,0l-.1.1c.3,0,.33-.43.59-.47l.11.2a3.19,3.19,0,0,0,1.49-.3.11.11,0,0,1-.08.12c.24,0,.94-.12.77-.37.06.17.5-.17.72-.34V63c.15-.24.13-.3.4-.47.08,0,.11.07,0,.08.26,0,.13-.2.43-.26l-.06.13c.24-.1.2-.14.27-.3s.45-.2.55-.11a.32.32,0,0,1,.2-.29c.05,0,0,.08,0,.11.41-.16.46-.47.77-.54a.09.09,0,0,0,.09,0,2.68,2.68,0,0,1-.51.32c.07.11.32,0,.23.24.15-.2.33-.6.58-.71h.06v0a.34.34,0,0,0,.12-.12,1.39,1.39,0,0,0,.21-.11c.09.06.28-.17.39-.26-.11-.1,0-.2-.16-.18,0,0,0,0-.07.1l0,.05v0l-.25.24a.33.33,0,0,1,.25-.29c0-.12,0-.24,0-.3.28,0,.61-.15.73-.1.26-.35.66-.77.62-1.15.06-.11.15,0,.21-.06s-.08.13-.07.18c.11-.22.41-.58.3-.73.25-.2,0,.23.26-.12v.08c.72-.53.32-1.35,1-2,0,0-.06.07-.1.07.61-.88.61-2,1-3,.1-.28,0-.33-.07-.52l.16,0-.14-.32c-.08-.42.45-.71.21-1.26l-.11.07c0-.2-.06-.61,0-.58s-.1-.06-.06-.14H224l-.16-.46c0-.37.32,0,.27-.52,0-.2-.31-.53-.35-.45s0,.21-.1.23l-.07-.17c-.23,0-.49-.08-.58.36l.18.27-.1.11,0-.25c-.09.15,0,.23.09.32a.23.23,0,0,0-.11.13l.24.27c-.09,0-.19-.11-.22.08s.19-.14.27.08c-.1.15-.18.11-.09.27-.06,0-.1,0-.12-.07.07.14,0,.38.16.46-.13.14,0,.49-.2.47a.7.7,0,0,1,.15.4c-.24-.26-.07.5-.34.4.23.21,0,.66.08,1,0,0-.05-.07,0-.09a1,1,0,0,1-.2.31c.18.06.15.35.23.53-.24.16-.19-.19-.38-.17.16,0,.06.41.2.37-.15.13-.1.13-.28.16.22.1,0,.16.08.34-.19.19-.23,0-.25.26C222.25,55.58,222.25,55.33,222.25,55.33Zm-3.45,5.28h0l.11-.09Zm-.43.32a.92.92,0,0,0,.19-.13c.05,0,.06.08,0,.11S218.46,60.93,218.37,60.93Zm1.54,0c-.06.08-.1.08-.13.06l.12-.12v0A.24.24,0,0,1,219.91,61Z"/><path class="cls-4" d="M219.92,60.73l0,0h-.06v0Z"/><path class="cls-4" d="M217.2,40.62h0v0Z"/><polygon class="cls-4" points="211.25 62.65 211.25 62.68 211.3 62.66 211.25 62.65"/><path class="cls-4" d="M219.5,42.73a.11.11,0,0,0,0,.05A.11.11,0,0,0,219.5,42.73Z"/><path class="cls-4" d="M220.42,43.66l.08.18A1.78,1.78,0,0,0,220.42,43.66Z"/><path class="cls-4" d="M221,44.48l.06,0h0Z"/><path class="cls-4" d="M206.82,41.35l0,0C206.72,41.44,206.77,41.4,206.82,41.35Z"/><path class="cls-4" d="M211.26,39.83l-.14.08C211.2,39.91,211.27,39.91,211.26,39.83Z"/><polygon class="cls-4" points="202.99 44.75 202.99 44.75 202.97 44.77 202.99 44.75"/><path class="cls-4" d="M210.89,39.93a.35.35,0,0,0,.23,0A.6.6,0,0,0,210.89,39.93Z"/><path class="cls-4" d="M222.87,48.34v0h0Z"/><path class="cls-4" d="M222.9,48.39l0,0S222.92,48.39,222.9,48.39Z"/><path class="cls-4" d="M223,48.53l-.07-.1S223,48.52,223,48.53Z"/><path class="cls-4" d="M222.5,47.07h0Z"/><path class="cls-4" d="M222.33,46.71c0,.09,0,.26.07.37h0C222.35,47.05,222.45,46.76,222.33,46.71Z"/><path class="cls-4" d="M222.06,44.9l.14.33c0-.09,0-.19.13-.06C222.24,44.7,222.28,45.31,222.06,44.9Z"/><path class="cls-4" d="M221.48,44c.14.14.07-.05.1-.06C221.46,43.83,221.43,43.81,221.48,44Z"/><path class="cls-4" d="M214.91,39.65l.05-.11C214.81,39.51,215,39.58,214.91,39.65Z"/><polygon class="cls-4" points="213.32 40.03 213.45 40.13 213.53 40.02 213.32 40.03"/><polygon class="cls-4" points="212.52 39.05 212.59 39.03 212.33 39.07 212.52 39.05"/><path class="cls-4" d="M201.14,45.33l.16,0C201.33,45.27,201.18,45.16,201.14,45.33Z"/><path class="cls-4" d="M199.68,50.94a.26.26,0,0,0-.06.33C199.63,51.14,199.69,51,199.68,50.94Z"/><polygon class="cls-4" points="209.61 63.72 209.49 63.75 209.72 63.74 209.61 63.72"/><path class="cls-4" d="M111.25,103c0,.06.07.12.14,0l0-.18Z"/><path class="cls-4" d="M112,102.76c0-.14.05-.34-.12-.4,0,.2-.05.17,0,.41-.07.08-.18.09-.2,0s-.15.08-.13.2a.42.42,0,0,0,.4-.32S112,102.74,112,102.76Z"/><path class="cls-4" d="M116.12,93.08l0,.08A.19.19,0,0,0,116.12,93.08Z"/><path class="cls-4" d="M114,86.69s.06,0,.07,0S114,86.67,114,86.69Z"/><path class="cls-4" d="M113.36,85.65l0,.06A.07.07,0,0,0,113.36,85.65Z"/><path class="cls-4" d="M116.12,93.08l0-.18S116.13,93,116.12,93.08Z"/><path class="cls-4" d="M112.71,101.44a.29.29,0,0,0,0,.1l0-.08Z"/><path class="cls-4" d="M116.08,96.1v.06l.06,0Z"/><path class="cls-4" d="M115.48,98.35s-.1-.11-.15-.15a.16.16,0,0,1,0,.14Z"/><path class="cls-4" d="M113.48,101.42l0,.06Z"/><path class="cls-4" d="M116.3,94.44h0Z"/><path class="cls-4" d="M109,104.11v0S109,104.11,109,104.11Z"/><path class="cls-4" d="M111.48,103.31l0,0a.25.25,0,0,0,0,.07Z"/><path class="cls-4" d="M111.94,84h0C112,84,112,84,111.94,84Z"/><path class="cls-4" d="M93.89,86c.25-.1-.11.37.22.2C94,86.15,94.14,85.78,93.89,86Z"/><path class="cls-4" d="M112.76,101.41l.06-.07Z"/><path class="cls-4" d="M94.11,86.15h0l0,0Z"/><path class="cls-4" d="M107.44,81.7l0,.07S107.47,81.74,107.44,81.7Z"/><path class="cls-4" d="M110.74,83.44l-.07-.06A.19.19,0,0,0,110.74,83.44Z"/><path class="cls-4" d="M105.51,81.48c-.05,0-.06,0-.13,0v0S105.45,81.46,105.51,81.48Z"/><polygon class="cls-4" points="103.51 81.37 103.55 81.4 103.61 81.39 103.51 81.37"/><path class="cls-4" d="M103.57,105.39a.51.51,0,0,1,.09.13C103.63,105.42,103.9,105.4,103.57,105.39Z"/><path class="cls-4" d="M112.77,101.49a.08.08,0,0,1,0-.08l0,0S112.75,101.49,112.77,101.49Z"/><path class="cls-4" d="M105.29,82.57l-.29,0Z"/><path class="cls-4" d="M93.19,98.4l0,.06A.09.09,0,0,0,93.19,98.4Z"/><path class="cls-4" d="M104.14,82.48a.47.47,0,0,0-.16-.1l0,0Z"/><path class="cls-4" d="M103.66,105.52Z"/><path class="cls-4" d="M105.55,105.06c-.27,0-.1.19-.14.3-.33.1-.17-.11-.3-.19s-.34.27-.5.26,0,0,0-.08c-.21.15-.65,0-.91.22,0,0,0,0,0,0a.52.52,0,0,1,0,.26c-.13,0-.25.1-.29,0s.08,0,.12-.08l-.13,0c-.12-.18.18,0,.18-.18a2,2,0,0,1-.77.12c0-.17.47,0,.22-.2l.3.08c-.22-.28.18,0,0-.27-.39-.07-.45.07-.84,0-.1.08,0,.14-.08.23-.6.09-.39-.47-.83-.34-.12.09-.21.29-.48.12l.14-.17c-.37-.09-.29.23-.64,0,.09,0,.31,0,.26,0-.22-.22-.21.05-.41,0v-.17a10.05,10.05,0,0,1-1.31-.29s.14,0,.06-.14a3.89,3.89,0,0,1-1.51-.94h-.26s0-.1,0-.1c-.15-.16-.06.08-.18.07s-.08-.17,0-.16a2.18,2.18,0,0,1-1.23-.85l.09,0c-.19-.26-.47,0-.59-.32l.06,0c-.25-.24-.46-.54-.7-.79a1.73,1.73,0,0,1-.46-.8c-.23,0-.3-.61-.58-.48-.1-.4,0-.35-.15-.87,0-.13-.26-.11-.38-.25l.14-.08-.26-.14.12-.2-.1-.14c0,.06,0,.16-.06.17C93,98.4,93,98,93.11,98a4.42,4.42,0,0,1-.34-.54c.06,0,.11.09.17.15-.24-.27.14-.11-.08-.35,0,.05-.09,0-.12,0a1.55,1.55,0,0,0-.15-.74l.11,0c-.08-.45-.22-.94-.29-1.45,0,.19-.23.17-.25,0l.15-.08c-.1-.09,0,.17-.18,0s.18-.14.23,0l-.06-.23s.07,0,.13,0c-.1-.09.15-.41,0-.55h0c0-.51,0-.75,0-1.17-.14,0-.1-.18-.21-.32a5.59,5.59,0,0,0,.3-1c0-.28-.1-.1-.16-.24.11,0,.21-.35.25-.15a7,7,0,0,0,.18-1.14c-.07,0-.11.11-.14.06s.13-.21.18-.18v0a2.17,2.17,0,0,1,.46-.94,1.52,1.52,0,0,0,.46-.83v0c0-.18.08-.37.13-.54s0,.17.17.06c.15-.58.52-.73.7-1.18.53,0,.81-1,1.37-1.14l-.08,0c0-.14.15-.06.23-.11s-.16,0-.13-.05a6.75,6.75,0,0,1,2.82-1.65c.36-.16,0-.52.57-.52l-.07.21a9.83,9.83,0,0,1,2.29-.84s0,.09-.11.11c.19.07.61-.09.6-.19s0,.08.13.12.4-.2.5-.09,0,0-.08,0,.51,0,.4-.14c.3.06.57-.1.81,0,.16-.15.5.09.56-.12,0,.21.51.21.71.14-.07.06.15.09.07.18.21,0,.41,0,.39-.12.34.35.83,0,1,.34q.48,0,.93.12a8.56,8.56,0,0,1,.87.23c-.11.2-.61-.22-.67,0a3.25,3.25,0,0,1,1.38.36c.11.09-.12,0-.18.06.54.15.9.54,1.38.69,0,0-.06,0-.12,0,.09,0,.16.16.22.07l-.1,0c0-.22.49,0,.56-.08-.31.14.35.36-.09.49a.14.14,0,0,0,.19,0c.06.08.06.12-.07.13.31.16.28,0,.51.22,0,0-.09,0-.15,0a.76.76,0,0,1,.53.28s0,.06-.1,0c.36.29.76.36,1,.82-.26,0,.06.17-.06.31l.21.17v-.14c.16.18.39.27.45.48l-.16-.1.28.34-.08-.25c.21.15.17-.15.31.14,0,0,.14.2.12.37h0a.45.45,0,0,1,.29.31c0,.07-.2.07-.22.12.19,0,.3.47.51.52a.17.17,0,0,0-.15,0l.16,0c0,.12,0,.14-.08.16.14.3.17-.2.26.2,0,0,0,0-.08-.05.12.38.36.68.44,1-.13.16-.16-.28-.26-.11a5.9,5.9,0,0,1,.64,1.46v-.1c.28,0,0,.4.12.63,0-.06-.16,0-.13,0a9.32,9.32,0,0,0,.31,1.2l-.07-.06a6.49,6.49,0,0,0,0,.77c.07.06.06.19.16.11a1.48,1.48,0,0,0-.12,1,1.07,1.07,0,0,1-.13.92c0-.07,0-.18,0-.12l0,.51c.12,0,.08-.05.18-.14a.51.51,0,0,1,.07.36c0-.25-.19,0-.27,0s.07,0,.11,0c-.25.23.22.1,0,.43l0,0a1.26,1.26,0,0,1,0,.43c-.15,0,0-.16-.12-.2,0,.2.13.47,0,.62,0-.1,0-.22,0-.32-.21.15-.17.19-.24.33v0a2,2,0,0,1-.19.31l.08-.07c.23.36-.14.52-.06.94-.07-.41-.1-.1-.22-.19-.08.07-.17.17-.19.12.05.21-.21.2-.15.49,0,0-.09.15-.18.06-.07.21.1,0,.14,0,0,.37-.51.6-.61,1.1s-.06.55-.22.93c-.14,0-.08-.2-.08-.2a1,1,0,0,0-.36.44c0-.06-.07,0-.15,0s.07.19-.12.3a.57.57,0,0,1,0-.24c-.08.16-.14.36-.23.54-.1,0,0-.17,0-.26-.1.19-.32.46-.28.59l.14-.06c-.06.06-.12,0-.09-.11a.18.18,0,0,1,.26-.13l-.07.13c.31.09.34-.46.53-.66l.08.23.06-.33c.08,0,.2,0,.13.15.22-.09.06-.18.27-.24,0,0,0,0,0,0a1.18,1.18,0,0,0,.07-.2c0,.06.14.06,0,.14.31-.22.21-.57.41-.59v0c.22-.45-.1-.12,0-.52h.45l-.1-.13s.08-.12.13-.07c0-.23-.08,0-.11-.16.24-.15.26-.62.51-.56-.07-.13-.2.16-.14-.1.26,0,.11-.29.29-.45.1.12,0,.29.15.13-.16-.22.21-.4.24-.59-.18-.08.1-.41.12-.74a5.19,5.19,0,0,0,.4-.84l0,0c-.15-.1-.05-.39-.06-.62.1,0,.14.08.17.21l0-.21a.43.43,0,0,1-.07-.28l.13.08a3.89,3.89,0,0,1,.06-.94c-.13,0-.37.25-.43-.13.07,0,.18,0,.21.09a.29.29,0,0,1,0-.19l.11.16c.06-.16-.1-.09-.08-.22s.08-.09.16-.07,0,.11,0,.17a.75.75,0,0,1,.18-.39c-.06,0-.14,0-.14-.11,0-.28.12-.09.18-.26s0-.25-.14-.26.07-.09.1-.13,0-.69-.2-.51v0h0c-.15-.46,0-1-.14-1.45h0a2.37,2.37,0,0,0-.31-.79c0-.08,0-.21.1-.19a.93.93,0,0,1-.16-.53c.15.19.06-.1.12.2,0-.29,0-.38-.2-.62.16,0,.07-.26,0-.37v.22a1.73,1.73,0,0,1-.15-.39h.18c0-.64-.73-.82-.64-1.36-.18-.09.07.32-.11.26-.11-.25,0-.61-.07-.69-.1-.37-.4-.16-.55-.52,0,.08-.13.2-.34,0s0-.41.16-.3,0,.08,0,.09.15.14.15,0h-.07c0-.14-.24-.45-.12-.43-.16-.14-.12,0-.06.13-.12-.35-.34-.43-.52-.74,0,.07,0,.15,0,.11-.29-.44-.24-.1-.48-.35-.07-.21.2-.09-.09-.31-.11-.19.08-.14.18-.11-.32-.15-.4-.47-.52-.62l.16.09a1.06,1.06,0,0,1-.23-.17v.15c-.06-.08-.13-.14-.09-.17-.13,0-.08.2-.3.14-.06-.14-.33-.23-.27-.38.28.32.06-.15.35.07a.46.46,0,0,1-.19-.18s0,0,.06,0c-.24-.36-.26,0-.6-.23.1,0,0-.2,0-.22.14.1,0,.17-.19.13-.17-.22-.26-.14-.37-.22l.11.12c-.09,0-.2,0-.37-.11,0-.07.17,0,.13,0-.26,0-.31-.39-.61-.45-.09-.12.07-.15,0-.25-.35,0-.27-.26-.62-.33,0,.15.06.13-.2.13l.54.17h-.4c.15.07.35.09.43.15-.2,0-.17,0-.14.12-.12-.26-.45-.11-.63-.34l.13-.26c-.32-.29-.72-.14-1.18-.39l.14.1c-.1.08-.31-.08-.49-.09.05-.09,0-.15-.1-.23,0,.07-.36-.12-.46.06-.06-.07-.13-.12-.19-.18-.41-.14-.53.17-.91.06.13-.08,0-.19.25-.21-.14,0-.25-.07-.27,0s-.39.08-.5,0-.09.13-.24.11a.05.05,0,0,1,0,0s-.24,0-.12.16c-.38-.35-1.14-.06-1.49-.3l-.91.12s0,0,0,0c-.37,0-.19.31-.61.26-.23-.13.2-.11.07-.15-.11-.32-.5.1-.8,0l.06,0c-.23-.06-.49.22-.84.28,0,0,0,0,0,0a2.85,2.85,0,0,1-.9.55c.06-.16.12-.11,0-.21-.13.07.11.18-.16.32-.11,0-.33,0-.41-.13l.26-.11c-.2-.11-.34.14-.49.17v-.08c-.41.18-.32.39-.74.58l.07,0c-.14.29-.24,0-.4.24L97.64,83c-.13.13-.41.47-.64.66a2.55,2.55,0,0,1,.47-.65c-.15.09-.48.31-.5.44,0,0,.09-.14.16-.15a1.45,1.45,0,0,1-.54.64c-.17-.34-.75.44-1.11.4-.34.5-.92.75-1.35,1.32.39,0-.12.16.14.32-.09.13-.13.18-.16.17a3.29,3.29,0,0,0-.44.28c-.14,0,0-.17,0-.2-.22.29-.19,0-.39.2.12,0,.06.19-.09.34l.28-.16c-.15.51-.47.21-.61.73a1.15,1.15,0,0,1,0-.19c-.09.25-.47.86-.37,1.18,0,0-.16,0-.12-.06-.32.54-.3,1.36-.59,1.76L91.7,90c0,.12.08.23,0,.35s-.06-.07-.08,0a.89.89,0,0,1,0,.47l0-.15c-.28.56,0,1,0,1.44-.21,0-.38.43-.41.66h0a5.38,5.38,0,0,0,.25,1.85c-.25.42,0,1.36,0,2,0-.1.16,0,.21.09s.26.36.06.39v0c-.16.16,0,.45,0,.69l.27,0a1.53,1.53,0,0,0,.27,1.08c.17.34.36.63.3.86.13.1.22.27.35.37l-.13.06a3,3,0,0,0,.6,1l-.15,0c.17.26.55.08.71.3l-.12.19a3.71,3.71,0,0,0,1,1.18.14.14,0,0,1-.15,0c.15.19.6.75.72.48-.12.14.39.38.64.5l-.12.08a1,1,0,0,1,.63.12c0,.06,0,.13-.08,0,.17.22.24,0,.45.26h-.15c.21.17.23.11.4.11s.41.29.38.41a.3.3,0,0,1,.35.06s-.06,0-.1,0c.35.3.66.16.87.42a.13.13,0,0,0,0,.09A4.18,4.18,0,0,1,98,105c-.06.12.19.27-.1.32a2.13,2.13,0,0,1,.93.17.43.43,0,0,1,0,0h0a.28.28,0,0,0,.17,0,1.51,1.51,0,0,0,.2.12c0,.11.29.18.43.23,0-.13.2-.06.07-.22,0,0,0,0-.12,0h0l-.33-.12a.37.37,0,0,1,.38.09l.26-.15c.12.25.45.46.46.59a2.21,2.21,0,0,0,1.33,0c.13,0,.13.1.17.15s-.16,0-.21,0c.26,0,.73.07.81-.1.3.12-.19.14.23.17l-.06,0c.84.37,1.36-.39,2.28-.06-.06,0-.09,0-.11-.06,1.08.07,2.1-.46,3.15-.54.3,0,.29-.17.42-.32l.12.12.22-.28c.34-.27.84,0,1.23-.45l-.12,0c.19-.08.51-.38.54-.26,0,0,0-.12.09-.12l.05.06c.11-.12.23-.24.34-.37.33-.18.13.29.58,0,.15-.15.33-.53.24-.52s-.2.08-.26,0l.13-.14c-.12-.2-.17-.46-.61-.33l-.16.29-.14,0,.19-.16c-.17,0-.19.13-.23.24a.26.26,0,0,0-.17,0c0,.13-.08.24-.12.35-.08-.06,0-.22-.18-.16s.22.1.06.28c-.18,0-.19-.11-.28.06,0,0,0-.09,0-.15-.09.14-.32.23-.33.38-.19,0-.43.26-.52,0a.86.86,0,0,1-.28.35c.12-.34-.48.19-.53-.1-.08.28-.57.35-.85.55,0,0,0-.07.07-.06a1.08,1.08,0,0,1-.38,0c0,.19-.23.33-.36.47-.27-.13.08-.25,0-.41,0,.15-.35.24-.24.35-.2-.08-.16,0-.28-.17,0,.25-.15.08-.26.26-.27-.08-.1-.22-.36-.11C105.33,105.17,105.55,105.06,105.55,105.06Zm-6.44-.41h0l.13,0Zm-.5-.24.21.11c0,.06,0,.09-.09.06S98.66,104.48,98.61,104.41Zm.74,1.38c-.1,0-.12-.05-.12-.09l.16,0h0Z"/><path class="cls-4" d="M99.57,105.68h0l0-.06,0,0Z"/><path class="cls-4" d="M116.1,93.17h0a0,0,0,0,1,0,0Z"/><polygon class="cls-4" points="93.5 98.93 93.47 98.94 93.52 98.97 93.5 98.93"/><path class="cls-4" d="M115.4,96.28l0,0A.05.05,0,0,0,115.4,96.28Z"/><path class="cls-4" d="M115,97.57l-.11.16A.76.76,0,0,0,115,97.57Z"/><path class="cls-4" d="M114.6,98.5a.1.1,0,0,0,.05,0h0Z"/><path class="cls-4" d="M110.27,84.26h0C110.15,84.22,110.2,84.25,110.27,84.26Z"/><path class="cls-4" d="M113.85,87.49l-.15-.1C113.74,87.47,113.78,87.53,113.85,87.49Z"/><polygon class="cls-4" points="105.32 82.58 105.32 82.58 105.28 82.57 105.32 82.58"/><path class="cls-4" d="M113.58,87.2a.33.33,0,0,0,.12.19A.76.76,0,0,0,113.58,87.2Z"/><path class="cls-4" d="M112.1,102.1l0,0a0,0,0,0,0,0,0Z"/><path class="cls-4" d="M112.07,102.15l0,0S112.07,102.17,112.07,102.15Z"/><path class="cls-4" d="M112,102.3l.06-.1S112,102.26,112,102.3Z"/><path class="cls-4" d="M113,101.14l0,0S113,101.12,113,101.14Z"/><path class="cls-4" d="M113.27,100.8c-.07.07-.22.14-.28.26l0,0C113,101,113.29,100.93,113.27,100.8Z"/><path class="cls-4" d="M114.73,99.64l-.2.3c.07,0,.18-.07.11.08C115,99.7,114.49,100.05,114.73,99.64Z"/><path class="cls-4" d="M115.28,98.65c0,.2.08,0,.1,0C115.38,98.57,115.38,98.54,115.28,98.65Z"/><path class="cls-4" d="M115.81,90.65h.13C115.88,90.49,115.89,90.65,115.81,90.65Z"/><polygon class="cls-4" points="114.7 89.42 114.68 89.58 114.81 89.6 114.7 89.42"/><polygon class="cls-4" points="115.16 88.22 115.2 88.27 115.04 88.06 115.16 88.22"/><path class="cls-4" d="M103.87,81.24l0,.16C104,81.37,104,81.2,103.87,81.24Z"/><path class="cls-4" d="M98.14,82.76a.28.28,0,0,0-.33.1C97.94,82.81,98.08,82.81,98.14,82.76Z"/><path class="cls-4" d="M91.74,98l-.08-.1a1.32,1.32,0,0,0,.12.2Z"/><path class="cls-4" d="M212.92,36.24c-.43,0-.2.11,1,.23a8.81,8.81,0,0,1,.89,0A15.36,15.36,0,0,0,212.92,36.24Z"/><path class="cls-4" d="M220.43,39.21c1.22.72,2.47,1.82,1.91,1.06a13.13,13.13,0,0,0-2.8-1.75c-1-.61-1.87-1-1.65-1l-1.11-.42a9,9,0,0,0-1.32-.33,22.87,22.87,0,0,1,5.11,2.37C220.91,39.45,220.53,39.24,220.43,39.21Z"/><path class="cls-4" d="M136.05,88.6l.73-.21Z"/><path class="cls-4" d="M98.67,141.55a4.59,4.59,0,0,0,.13-.8A5,5,0,0,0,98.67,141.55Z"/><path class="cls-4" d="M95.92,153.65l.16-.72A6.61,6.61,0,0,0,95.92,153.65Z"/><path class="cls-4" d="M136.05,88.6l-1.86.55A13.31,13.31,0,0,0,136.05,88.6Z"/><path class="cls-4" d="M227.11,53.33a7.07,7.07,0,0,0,0-1.08c0,.34,0,.67-.07,1A.64.64,0,0,1,227.11,53.33Z"/><path class="cls-4" d="M166.47,78.56l.56-.18a4.71,4.71,0,0,0,.45-.22Z"/><path class="cls-4" d="M189.84,70.93a2.18,2.18,0,0,0-.85.49,7,7,0,0,1,1.12-.47S190,70.91,189.84,70.93Z"/><path class="cls-4" d="M224.91,58.43c.1-.21.2-.41.29-.62C225.13,58,225,58.24,224.91,58.43Z"/><path class="cls-4" d="M149.73,84a.7.7,0,0,0-.23,0S149.6,84,149.73,84Z"/><path class="cls-4" d="M196.9,55.65s0,0,0,0S196.85,55.46,196.9,55.65Z"/><path class="cls-4" d="M212.9,36.61h-.4s-.08,0-.08.08Z"/><path class="cls-4" d="M91,175.82l0-.1C91.16,175.14,91.09,175.47,91,175.82Z"/><path class="cls-4" d="M86.69,84.68c1.68,1.68-3-2.45-.41,0C86.07,84.45,88.83,86.71,86.69,84.68Z"/><path class="cls-4" d="M227,54c-.06.34-.12.68-.2,1C226.91,54.53,227,54.22,227,54Z"/><path class="cls-4" d="M86.28,84.72h0l.26.25Z"/><path class="cls-4" d="M79.44,226.21a1.62,1.62,0,0,0,.39-.28S79.73,226,79.44,226.21Z"/><path class="cls-4" d="M88.54,188.93l-.22.94Z"/><path class="cls-4" d="M73.31,214.53c.12-.51.18-.68.31-1.39l-.06.21A11.24,11.24,0,0,1,73.31,214.53Z"/><path class="cls-4" d="M77.68,193.92l-.11.38-.13.65Z"/><path class="cls-4" d="M139.5,76.18c.46-.1.74-.15,1-.18C140.13,76,143.06,75,139.5,76.18Z"/><path class="cls-4" d="M227,53.33a2.14,2.14,0,0,1,0,.64c0-.24.07-.48.09-.71C227.08,53.2,227.06,53.18,227,53.33Z"/><path class="cls-4" d="M72.41,213.46l.71-3.27Z"/><path class="cls-4" d="M19.19,10l.58.5A7,7,0,0,0,19.19,10Z"/><path class="cls-4" d="M75.16,200.47c.17-.57.33-1.19.49-1.82a3.43,3.43,0,0,0,0-.39Z"/><path class="cls-4" d="M140.48,76h0Z"/><path class="cls-4" d="M161.33,68.86c-3,1-1.37.64-2,1-3.6,1.23-1.71.41-3,.72-2.25.79-3.93,1.51-5.62,2-.13,0-.46.11-.09,0-2.34.92-7.09,2.31-9.82,3.39a1.71,1.71,0,0,1-.37.08c.48-.06.57,0,.5.1a24.63,24.63,0,0,1-3,1,7.75,7.75,0,0,0,1.26-.49l-1.4.51c-1.34.25,1.92-.69,1.88-.81-2.76.95-5.95,2.14-8.09,2.79-.5,0,5-1.67,2.07-.89l3.31-1c-2.6.56,2-.64-.39-.16-4.35,1.37-4.82,1.66-9.16,3-1,.41.36,0-.58.44-6.09,2.16-5,1.16-9.42,2.85l-.19.09,0,0s-.09.08-.13.07l-.12-.08s-.2-.21-.32-.32a32.79,32.79,0,0,0-2.47-2.37c.35.19.69.4,1,.62a10.65,10.65,0,0,0-3-2,30.36,30.36,0,0,0-3.44-1.47,10.78,10.78,0,0,1,1.91.65c.64.28,1.09.52.79.35a7.82,7.82,0,0,0-2.35-1l-2-.41-.45-.26a16.38,16.38,0,0,0-7.52.49,15.66,15.66,0,0,0-1.84.68q-.45.19-.9.42L96,79l-.18.1-2.68-2.36c.25.16.94.71.07-.14-4.93-4.33-10.39-9.38-15-13.69l-1.9-1.51c-.41-.38-.73-.75-.26-.36-1.79-1.69-.15,0-1.07-.77-1-.93-1.33-1.3-.64-.74C71,56.74,65,51.47,61.65,48.28l.7.57c-2.62-2.43-3.2-2.47-5.57-4.79l.49.41c-5.72-5.23-12.18-10.86-16.42-15-1-.6-5.64-5.2-6.21-5.32-3.19-3.07-2.22-2.26-6.78-6.5-1.23-1.12-2-1.52-3.52-2.88l.06-.14L22.22,12.9l-1-1.13L19.77,10.5a6.74,6.74,0,0,1,1.06,1.1c-1.15-1-2.5-2.23-3.56-3.25A25.32,25.32,0,0,1,15.43,6.5L10,1.82c.16.06,1.06.85,1.79,1.45-1.47-1.21-1.57-1.36-1.64-1.48a.87.87,0,0,0-.25-.29,5.16,5.16,0,0,0-1.48-1c.45.28-.29-.05-.39,0A5.6,5.6,0,0,0,3.86.35,5.76,5.76,0,0,0,.36,4.11a4.66,4.66,0,0,1,.12-.63A5.85,5.85,0,0,0,.42,8a6,6,0,0,0,1.31,2c.57.54,1.07,1,1.62,1.45L9.9,17.27c-1.55-1.46-1.06-1.27.25-.12l.41.59c.9.67-1.32-1.27.48.18,1.64,1.5,1,1.14,0,.33l2,1.76c.08.14-.4-.26-.57-.33.89.67,3.35,3.24,4.66,4.18l.08.13,10,9A33,33,0,0,1,30,35.08c2.61,2.41,5.47,5.13,8.66,8,2.28,2,.73.5,1.79,1.34.08.25,3.27,3.1,1.56,1.68,3.83,3.43,4.89,4.38,9.79,8.64-.49-.51-1.06-1-.72-.81a12.06,12.06,0,0,1,1.79,1.77l-.24-.2C58.19,60.21,64.9,67,69.4,70.7l-.25-.2,4.57,3.92c2,1.87-1.3-1,.17.39,5,4.19,7.61,6.89,11.69,10.37.35.38.79.82,1.29,1.3l.79.76.35.33s0,0,0,.07v0l-.11.3-.23.64a11,11,0,0,0-.42,1.34,16.31,16.31,0,0,0-.42,2.92,17.33,17.33,0,0,0,.71,5.91,19.55,19.55,0,0,0,2.14,4.67l-.11-.33c.91,1.2,1,1.51,1.74,2.36-.07-.16-1-1.29-.37-.61a17.43,17.43,0,0,0,3.6,3.14l.27.17c.08,0,0,.09,0,.14l-.22,1-.49,2.29q-1,4.6-2,9.27c-1.37,6.2-2.76,12.44-4.12,18.57-1,4.49-.09,2.64-1.49,8.26l.18-1.64C85,155.2,82.74,164.63,81,173.53a13.14,13.14,0,0,1,.21-1.42c-.25.92-.62,2.65-.92,4.16l-.36,2a4.8,4.8,0,0,0-.1.85c-.31,1.38-.16.31-.39,1.15-.46,1.86-.85,4.75-1.18,5.72a7.51,7.51,0,0,1,.14-.88c-.2,1.23-1.22,5.7-.84,4.56-.77,3.31-1.29,6.38-1.93,9-.22,1.76-1.28,5.68-1.19,6.28-.17-.29-1.41,5.8-1.76,7.92.09-.72-.45,1.82-.37,1-.51,2.41-.93,4.62-.73,4.22-.3,1.09-.56,2.2-.78,3.28a5.79,5.79,0,0,0,.27,3.48A6.13,6.13,0,0,0,73,227.25a7.6,7.6,0,0,0,2.21,1.18,5.83,5.83,0,0,0,5.49-1.75A5.59,5.59,0,0,0,82,224.15c.21-.89.35-1.71.52-2.56.68-3.35,1.34-6.61,2-9.83.18.28-1.48,7.1-1.19,6.88,1.2-6.11,1.76-9.67,3.09-15.69.36-1.56-.09.9-.17,1.44,1.2-6.1,2.52-11.76,3.55-17.2,0,0-.09.61-.19,1.16a13.62,13.62,0,0,0,.44-2.37l-.2,1.05c-.5,1.67.6-4.31.56-4.51-.1,1.87,1.21-5.34,1-2.38.13-.71.27-1.6.17-1.45.24-1,.35-1.36.2-.29.76-3.83.36-2.5,1.1-6a10.08,10.08,0,0,1-.1,1.1c.27-1.78.55-3.56,1.21-6.48,0,.19.11-.15-.08.73,1.05-5,1.57-8.62,2.83-14.11-.14,1.67.46-1.87.71-2.12l.57-3-.34,1.17c.56-2.6.91-4.92,1.44-7.14l-.33,1.94,1-4.87-.66,2.74c.47-2.65-.29.23.5-3.21-.13.7.55-2.6.94-3.93h0c.22-1.3.44-2.63.89-4.54.16-.49.11.44.22.12.12-1.3,1.25-6.09,1.43-7.73-.08.55,0,.59.07.42l.1-1.09c.3-1.19.35-1.36.39-1.15.79-3.62-.48,1.1.53-3.18-.06.34,0,.19-.14.89.49-2.15.91-4.24,1.32-6.28l.31-1.52.15-.71a1.1,1.1,0,0,1,.06-.26l.28,0a19.32,19.32,0,0,0,3-.7c.6-.12-.24.22-1.09.45s-1.71.36-1,.32a16.55,16.55,0,0,0,8-4.18,17,17,0,0,0,4.62-7.55l-.37,1a3.07,3.07,0,0,1,.18-.79,10.92,10.92,0,0,0,.39-1.27,15.61,15.61,0,0,0,.35-1.64,8.71,8.71,0,0,0,.11-.91l0-.43v-.3l.52-.18.69-.25c-.66.24-.82.43-.65.34,3.69-1.16,7.5-2.51,13-4.41l-.67.29c2.19-.64,5.73-1.82,8.08-2.55.68-.3,2-.72,1.18-.55,7.34-2,13.71-4.68,20.22-6.46-.76.25-1.8.65-1.19.45L167,79.08a15.39,15.39,0,0,0-1.92.46c.67-.29,2.2-.84,3.55-1.28-2.43.87.08.17,1.16-.12-.19,0,.16-.13.06-.13,2.92-.74.41-.38,4.35-1.52l-.19.13c1.45-.51,2.77-1,4.34-1.51.7-.09-1.53.56-1.59.7,2.2-.73,4.27-1.66,6.31-2.18l-3.2,1.12c2.23-.56,2.47-.68,4.09-1.19l-.16,0,3.76-1.15-1,.27c2.65-1.23,5.6-1.89,9.25-3.32-3.55,1.39-.56.32-.79.55a12.51,12.51,0,0,1,2-.52c1.72-.69,3-.86,5.39-1.84.13,0,1.88-.61,1.52-.36,2.28-.78-.56.09-.39,0,.87-.32,1.83-.64,2.85-1l.75-.23c.08-.05.16,0,.24,0l.41.12A14.25,14.25,0,0,0,221.57,63a17,17,0,0,0,3-3.68c.4-.6.29-.33.07.1s-.59,1-.59,1a13,13,0,0,0,2.59-5.73c-.07.45.09,0,.26-.65a7.16,7.16,0,0,0,.1-1.56l0-2a8.58,8.58,0,0,1,.2,1.79A15.26,15.26,0,0,0,226,46c-.14-.57.6,1.18.78,1.94a14.22,14.22,0,0,0-1.58-3.89,10.71,10.71,0,0,0-1.76-2.32c.32.41.62.84.9,1.27-.53-.71-.15-.45.23.09a6.83,6.83,0,0,1,1.36,2.83c-.22-.47-.41-.95-.67-1.39a32.9,32.9,0,0,1,1.28,3.84,13.83,13.83,0,0,1,.28,5.17c0-.44,0-.87-.08-1.3a15.08,15.08,0,0,1-.33,3.14c-.25.64-.47,1-.1-.42-.32,1.05-.48,1.5-.63,1.92a6.89,6.89,0,0,1-.78,1.62c-.11.17-.08.08,0-.09a14.83,14.83,0,0,1-1.09,1.84c.2-.37-.31.21.44-.86a17.93,17.93,0,0,1-3.11,3.48,8.79,8.79,0,0,1-2.42,1.58l.27-.16a18,18,0,0,1-2.14,1c-.33.14-.34.17-.32.19s.3.09-1.65.65a14.48,14.48,0,0,1-2.72-.09,4.48,4.48,0,0,1-.52.16c-.55,0-1.63-.12-1.42-.17-2-.18.34.13-.85,0-.33-.07-.68-.16-1-.26l-.56-.16c-.19,0-.41-.21-.62-.07l-2.35.76a18.07,18.07,0,0,1-3.08.87c-.87.41,2.45-.7-.23.25-.85,0-3.11,1.06-5.46,1.7.67-.36,2.89-1,.53-.36-1.32.67-4.51,1.41-6.45,2.09,0,.2-4.22,1.45-7.47,2.57.19-.12-6.19,1.91-9.26,2.84l.08-.06a62.76,62.76,0,0,1-6,2.14c.05-.14.45-.31,1.67-.76l-2.15.7c-.49.22-1.15.47-2.53.94L165,79c-2.85.93-5.71,2-9.42,3.14-.16.18,3-.62-.83.73-.16,0-.34-.08.67-.44-.33.11-1.17.44-1.86.63l1.52-.62c-1.69.5-.84.38-2.19.81,0-.11-1,.25-.84.11.34-.12,1.18-.34,1.68-.54-1.52.47-3.36,1-4,1.14.15,0,0,.12-1.06.5a17.75,17.75,0,0,1-2.7.7,19.68,19.68,0,0,0-2.52,1,6.78,6.78,0,0,1-1.35.32c-1.46.55-6.91,2.27-5.2,1.88l.39-.11-.24.08h0c-4.81,1.72-10.11,3.2-14.91,4.83V93.1l-2.26.77a17.63,17.63,0,0,1-.11,2c-.07.6-.18,1.19-.3,1.74a14.26,14.26,0,0,1-.46,1.55c-.16.48-.28.93-.42,1.32-.35.82-1,1.81-.91,1.45a16.06,16.06,0,0,1-1.39,2.11,13.81,13.81,0,0,1-2.35,2.29c.84-.77.66-.67.6-.61a9.08,9.08,0,0,0,1.06-1,15.54,15.54,0,0,1-2.51,2.13,21.33,21.33,0,0,1-3,1.77c.47-.28-.05-.07-.86.21a20,20,0,0,1-2.62.71,15.72,15.72,0,0,0,2-.41,14.62,14.62,0,0,1-2.17.54l-.62.09-.38.05-.09,0,0,.09,0,.18-.27,1.2c0-.28,0-.49,0-.83-1.49,6-2,10.93-3.27,15.46-.23,1.61.77-3.25.6-1.8-.61,2.76-1.45,5.59-1.64,6.46-.89,3.76-.51,3.58-1.41,7.53.17-.49.42-.94-.15,2-.61,2.77-1,3.35-.64,1.6a4.68,4.68,0,0,1,.23-.95c.17-.9.4-2.08.1-1l0,.37c-.35,1.36-1.15,5.17-1,4.26-.39,2.1-.1.91.26-.63-.84,3.53-1.18,5.54-2,9.18.16-.57.34-1.09.21-.51-1.2,5.34-.39,2.38-1.13,6-.53,2-.06-.79-.76,2.88-.53,2.22-.25.44-.11-.45-.59,3.35-1.39,6.2-1.82,8.1l.33-1.77c-.2,1.06-.38,1.92-.57,2.79l.33-1a13.91,13.91,0,0,1-.47,1.86c-.14,1.08.37-.77,0,1.36-.35,1.36-.83,4.19-1.08,4.64,1-4.31-.26.44.49-3.22-.13.71-.31,1.57-.55,2.6,0,.15,0-.16,0-.44-1,4.1-.23,1.94-1.14,6.22,0-.56-.38,1-.51,1.66.37-1.73.32-.8.06.8-.65,2.73-.59,3-.9,4.43l.38-1.63c0,.57-.33,1.94-.71,3.86-.1.15.32-1.75.15-1.07-.3,2.16-1.18,4.77-1.71,7.75-.35,1.36-.19.1-.48,1.3-.6,3.34-.89,3.57-1.53,7.08.33-1,.34-1.16-.07,1.32l1.13-5.76-.61,3.72c.37-1.73.7-3.67.94-4.7-.27,1.77-.26,1.59,0,.78-.68,2.33-.9,4.72-1.6,7.43l-.27-.14c-1,4.09-1.4,7.35-2.61,12.68l.42-1.71a18.92,18.92,0,0,1-.4,2.15,15.81,15.81,0,0,1-.72,2.78c0-.17-.49.74-1,1.16A3.61,3.61,0,0,1,78.37,227a7.84,7.84,0,0,1-2.19.53,4.69,4.69,0,0,1-2.09-.77,5.14,5.14,0,0,1-1.73-1.72,5.42,5.42,0,0,1-.67-1.7c-.26-1.12.09-2.33.51-4.41-.16,1.28.31-.6-.2,2.2a23.72,23.72,0,0,0,.51-2.66c.23-.8.68-3.87,1-5.13a15.32,15.32,0,0,1,.36-2.36c0-.16,0,0,0,0s.45-2.45.06-1.12c1.21-4.2,2.51-11.93,3.55-15.59.62-3,1.37-6.68,1.93-9.43,0,.18,0,0-.07.53.89-3.76.21-2.38,1.23-6.67.62-2.17-.4,2.31,0,1,.44-.54,1.06-5.22,1.86-8.08l-.13.71c.58-2.19,1-5.43,1.82-9.05,0,0,0,.18,0,0,.36-2.51,1.3-7.21,2-10.71-.11,1.11-.27,1.6,0,1,.31-1.57-.3.41.32-2.72a34.8,34.8,0,0,1,1-3.5l-.62,2.94c.5-1.47.8-3.81,1.16-5.35l0,.21c.93-4.51.75-4.61,1.79-9.45l-.16.49c.37-2.69.57-2.2,1-4.87l.37-.76c.32-1.76,1.11-6.16,1.74-9.3-.24,1.81-.94,5.49-1.34,7.78.37-1.74,1.24-5.89,1.33-6.81-.13.7-.27,1.59-.44,2.27.3-2.16.81-5,1.55-8.42.12.35.62-1.89,1.2-4.53l.43-2,.23-1,.16-.74c-.11-.17-.39-.26-.57-.4a11.13,11.13,0,0,1-2.28-1.91A15.45,15.45,0,0,1,89.26,88a2.64,2.64,0,0,1-.11.25l-.08.16-.12.21c-.06.1-.08.13-.08.09a2.55,2.55,0,0,1,.08-.26l.18-.55.16-.45,0-.12,0-.06,0,0-.18-.16-.35-.3-.22-.19c-.27-.21-.45-.32-.42-.19-1.27-1.12-1.75-1.55-1.85-1.67l-3.69-3.57c-.84-.88,1.24,1,1.17.88-2.74-2.5-1.07-1.14-2.84-2.84.31.42-1.06-.75-2.6-2.19l2.12,2.09c-4-3.34-3.16-3.18-7.15-6.56l1.29,1c-2-1.75-7.35-6.62-9.46-8.19-.33-.34-.74-.82.15,0C60.54,61,54.5,56,50.9,52.55l.41.27c-.9-.79-1.64-1.29-2.7-2.35.08,0,.41.27,0-.1s-2.45-2-3.6-3.12l1.07.84c-4.58-4.25-7.27-6.26-11.19-9.72.15-.16-3.45-3.5-5.25-5.16l.08,0c-5.39-4.89-9.31-8.13-14.37-12.57-1.47-1.49-4.09-3.87-6.95-6.46L4,10.26,3,9.29a4.51,4.51,0,0,1-.82-.95,4.26,4.26,0,0,1-.73-2.16c.1.9-.31-.12-.14-1.21a5.12,5.12,0,0,1,1-2.24c.5-.62,1-.91,1-.77s-.27.21-.4.31a6.06,6.06,0,0,1,2.42-.94,4.58,4.58,0,0,1,3.27.83l.45,0c4.66,4.69,13,11.49,15.44,14.16l3.92,3.35-.15.05c3.26,3,4.89,4.47,9,8.11l-.9-.67c2.29,2.07,3.17,2.3,5.29,4.2l.5.73c4,3.59,7.93,7.38,12,10.79a3.52,3.52,0,0,1-.9-.67c1.88,1.7,7.19,6.66,6.7,5.83-.07.18,4.12,3.73,6.34,5.61l-.43-.2c1.94,1.51,2,1.53,4.61,3.78.59.56.46.56-.32-.19,2,1.87,1.65,1.31,4,3.56l-1-.75a35.63,35.63,0,0,0,3.13,2.64,47.69,47.69,0,0,1,4.13,3.92,25.32,25.32,0,0,1,2.73,2.26c.13.19-.34-.19-.57-.38,3.4,3.18,5.26,4.51,7.54,6.75a1.54,1.54,0,0,0,.35.43c-2.75-2.48-5-4.48-4.74-4.3-.09.1,2.12,2.11.23.65C87.83,73.39,91,76,93.14,78l.26.29-.23-.19c.49.46.94.86,1.38,1.22l.47.45a7.72,7.72,0,0,0,.72.62l.83-.44.54-.26c.17,0,.92-.37,1.84-.66a15.14,15.14,0,0,1,2.7-.63c-.15-.14,1.74-.32,0-.24a11.21,11.21,0,0,1-1.21.24l-.6.16.09,0a15.88,15.88,0,0,0-3.36,1.29,10.75,10.75,0,0,1,3.68-1.42,14.39,14.39,0,0,1,2-.55,18.77,18.77,0,0,1,3.74.31,10.38,10.38,0,0,1,2.52.74,15.58,15.58,0,0,1,6.19,3.5,14.44,14.44,0,0,1,1.23,1.25l.27.32.38.46.19.24c.08,0,.2,0,.29-.06l.57-.2c1-.36,1.85-.69,2.51-1A9.37,9.37,0,0,1,122,82.9c-.71.25-1.55.52-1.92.68,2.43-.86,7.27-2.39,7.8-2.76,3.13-.93-1.69.73,2.56-.68l-.56.24c8.47-2.45,13.48-4.88,22.88-7.54a10.05,10.05,0,0,1-1.12.29c10.64-3.28,21.78-7.25,32.3-10.39,3-.92,3.28-1.14,5.06-1.81l.69-.07,3-1.17c1-.36,2-.66,2.89-.95l3.1-.91c-.15-.35-.29-.71-.43-1.08s-.18-.55-.27-.83c-.16-.57-.3-1.16-.41-1.78a17.59,17.59,0,0,1-.22-4.14c-.06.24-.13.49-.17.73,0-.51.13-1.18.22-1.88A14.65,14.65,0,0,1,198,46.8a9.52,9.52,0,0,1,.62-1.54c.16-.37.28-.55.27-.46a5.91,5.91,0,0,1,.7-1.31h.1A14.22,14.22,0,0,1,203,39.7c1.64-1.12,1.58-.92,1.67-.9s.15,0,.55-.17a17.44,17.44,0,0,1,2.44-1,17.11,17.11,0,0,1,3.61-.76c1.14-.06,1.93-.1,1.53-.14s-1,0-1.43-.06a3,3,0,0,1-.85,0,13,13,0,0,1,2-.09c.19-.12.67-.22.5-.33a2.71,2.71,0,0,0-.9-.18,11.55,11.55,0,0,0-2.66,0,13.7,13.7,0,0,0-1.7.45l-.84.28-.8.36a7.91,7.91,0,0,0-1.07.36,14.18,14.18,0,0,1,2.76-1.06,10.2,10.2,0,0,0-3.61,1.55,8.22,8.22,0,0,0-1.31.69,17.11,17.11,0,0,0-2.41,2.48c-.34.26.88-1.3-.67.43-.91,1.34,1.07-1.11-.45,1.07a11.64,11.64,0,0,0-.88,1.17,6.11,6.11,0,0,0-.73,1.53c-.16.23,0-.17.27-.9l-.57,1.38c-.15.51-.34,1-.47,1.55s-.21,1-.28,1.42-.05.78-.05,1a11.79,11.79,0,0,0,0,3.58,10.94,10.94,0,0,1,.31,2.14l.33.86.13.31a1.73,1.73,0,0,0,.12.26l.15.28-.19.08-.1,0-.25.09-1,.35c2.63-1.14-5.55,1.79-4.92,1.29-1.93.87-7.21,2.45-10.72,3.73.19-.08.57-.24.89-.34-2,.64-2.61.76-3.91,1.13a49.76,49.76,0,0,1-4.93,2c-2.51.62,1.42-.7.59-.63.17.11-4.2,1.54-3.33,1.39a18.48,18.48,0,0,1-2.65.63c-.25.34-1.73.61-3.24,1.26a24.85,24.85,0,0,0-3.72,1C158.71,69.81,161.33,68.86,161.33,68.86ZM93.14,76.8h0l1.15,1Zm-4.65-4.19c.56.52,1.27,1.15,2,1.82.13.19-.08.07-.55-.36C90.23,74.28,89.15,73.27,88.49,72.61ZM98.79,79a13.76,13.76,0,0,1-1.33.47c.42-.18.9-.39,1.56-.61l.1-.05A2.09,2.09,0,0,1,98.79,79Z"/><path class="cls-4" d="M100.4,78.36l.39-.09-.58.09-.32.13Z"/><path class="cls-4" d="M136.9,88.35l-.12,0,.27-.07Z"/><polygon class="cls-4" points="24.42 14.61 24.4 14.64 24.83 14.99 24.42 14.61"/><path class="cls-4" d="M169.83,78.14a3,3,0,0,0,.44-.1A2.71,2.71,0,0,0,169.83,78.14Z"/><path class="cls-4" d="M184,73.56l2-.6Z"/><path class="cls-4" d="M194.91,70.09a.67.67,0,0,0,.19-.13h0Z"/><path class="cls-4" d="M89.62,188.35l-.08.44C89.35,189.81,89.49,189.12,89.62,188.35Z"/><path class="cls-4" d="M100.54,135.3l-.29,1.71A6.71,6.71,0,0,0,100.54,135.3Z"/><path class="cls-4" d="M72.33,213.82h0l.08-.36Z"/><path class="cls-4" d="M99.72,139.48c.23-.94.39-1.73.53-2.47C100.07,137.79,99.86,138.69,99.72,139.48Z"/><path class="cls-4" d="M224.87,43.28l-.29-.48s0,0-.06,0Z"/><path class="cls-4" d="M224.52,42.75l-.39-.49A6.22,6.22,0,0,0,224.52,42.75Z"/><path class="cls-4" d="M223.26,41.26a11.75,11.75,0,0,1,.87,1A5.32,5.32,0,0,0,223.26,41.26Z"/><path class="cls-4" d="M225.63,58.16l0,.19A.34.34,0,0,0,225.63,58.16Z"/><path class="cls-4" d="M222.94,62a13.39,13.39,0,0,0,2.62-3.54l0-.14a9.58,9.58,0,0,1-1.12,1.83C223.93,60.92,223.28,61.61,222.94,62Z"/><path class="cls-4" d="M204.83,66.21l1.84-.58.49-.15c.18-.12.41,0,.56.06.3.1.61.18.92.26-.64-.22-1.45-.5.21-.1-.29-.07-.53-.14-.74-.21l-.59-.19a.32.32,0,0,0-.3,0l-.24.08-.22.07c-.2.07-.08,0,0,0S207.24,65.44,204.83,66.21Z"/><path class="cls-4" d="M193.43,69.84c2-.67-.05-.07,0-.13C192.24,70.16,191.94,70.27,193.43,69.84Z"/><path class="cls-4" d="M117.19,102.61v-.24C116.35,103.68,117.23,102.41,117.19,102.61Z"/><path class="cls-4" d="M105.55,112.32l.4-1.51a1.7,1.7,0,0,0,0-.25c0-.06,0-.2,0-.22-.09,0-.06.22-.1.31l-.1.54Z"/><polygon class="cls-4" points="102.63 121.68 102.76 121 102.25 123.61 102.63 121.68"/><path class="cls-4" d="M77,197.61l-.26.44C76.58,199.12,76.7,199.37,77,197.61Z"/><path class="cls-4" d="M89.88,136.25a25.27,25.27,0,0,0,.79-3.45C90.36,134.18,90,135.54,89.88,136.25Z"/><polygon class="cls-4" points="11.21 4.43 10.24 3.63 12.04 5.18 11.21 4.43"/></g></g></g></svg>