<svg xmlns="http://www.w3.org/2000/svg" viewBox="0 0 173.92 173.93"><defs><style>.cls-1,.cls-2{fill:#d3d3d3;stroke:#d3d3d3;stroke-linecap:round;stroke-linejoin:round;}.cls-2{stroke-width:0.5px;}.cls-3{fill:#202020;}.cls-4{font-size:21px;font-family:OldNewspaperTypes;}</style></defs><g id="Layer_2" data-name="Layer 2"><g id="industrialization_graphic" data-name="industrialization graphic"><g id="TOP_-3" data-name="TOP -3"><path class="cls-1" d="M147.53,30.69c.61.66,1.21,1.32,1.8,2l3.22-2.07a84.78,84.78,0,0,1,6.09,8l-2.88,2.58c.5.75,1,1.5,1.45,2.26l3.55-1.54a87.45,87.45,0,0,1,4.73,8.84l-3.27,2.09c.37.82.73,1.64,1.07,2.47l3.76-.95a83.94,83.94,0,0,1,3.22,9.48l-3.55,1.53c.24.87.45,1.75.65,2.62l3.87-.34a84.87,84.87,0,0,1,1.66,9.88l-3.77.95c.1.89.18,1.78.23,2.68l3.88.29a85.88,85.88,0,0,1,.06,10l-3.89.33c0,.9-.12,1.79-.2,2.68l3.8.92a89.53,89.53,0,0,1-1.54,9.89l-3.91-.29q-.28,1.3-.63,2.61l3.62,1.52a88,88,0,0,1-3.11,9.51l-3.81-.92c-.34.83-.68,1.66-1,2.48l3.32,2.08a86,86,0,0,1-4.61,8.88l-3.59-1.51c-.47.77-.94,1.53-1.44,2.28l2.94,2.57a85,85,0,0,1-6,8l-3.29-2.06c-.57.69-1.17,1.36-1.77,2l2.46,3c-.81.9-1.66,1.78-2.53,2.64-1.51,1.52-3.07,3-4.67,4.34l-2.91-2.56c-.67.58-1.36,1.15-2.07,1.72l2,3.34a87.26,87.26,0,0,1-8.22,5.74l-2.46-3c-.77.48-1.55.93-2.33,1.37l1.4,3.6a85.12,85.12,0,0,1-9,4.34l-1.93-3.32c-.83.34-1.67.66-2.52,1l.79,3.75a83.86,83.86,0,0,1-9.62,2.81l-1.36-3.54c-.88.2-1.76.38-2.64.55l.17,3.79a85.58,85.58,0,0,1-10,1.24l-.77-3.7q-1.35.09-2.7.12l-.42,3.75a88.33,88.33,0,0,1-10-.37l-.17-3.76c-.9-.08-1.79-.19-2.67-.31l-1,3.62a87.57,87.57,0,0,1-9.85-2l.44-3.71c-.86-.23-1.73-.48-2.59-.74l-1.58,3.39A85.44,85.44,0,0,1,51.91,166l1-3.57c-.82-.37-1.64-.75-2.44-1.14l-2.09,3.07a87.07,87.07,0,0,1-8.71-5l1.56-3.32c-.75-.49-1.49-1-2.22-1.52L36.5,157.2a86.23,86.23,0,0,1-7.8-6.35l2-3c-.65-.6-1.3-1.23-1.94-1.86l-2.89,2.2-.09-.1a88.12,88.12,0,0,1-6.61-7.4l2.5-2.63c-.55-.7-1.09-1.41-1.62-2.14l-3.21,1.7a84.42,84.42,0,0,1-5.42-8.48L14.34,127q-.66-1.18-1.26-2.37l-3.42,1.16a87.26,87.26,0,0,1-4-9.24l3.18-1.68c-.31-.84-.6-1.69-.88-2.55l-3.52.59A85.58,85.58,0,0,1,2,103.11L5.37,102c-.16-.88-.31-1.76-.44-2.65l-3.55,0a86.63,86.63,0,0,1-.86-10L4,88.72c0-.9,0-1.8,0-2.69L.5,85.48a86.81,86.81,0,0,1,.76-10H4.81c.12-.89.26-1.77.42-2.66l-3.38-1.1A85,85,0,0,1,4.2,61.87l3.51.55c.27-.86.55-1.71.84-2.56L5.39,58.22a85,85,0,0,1,3.88-9.28l3.39,1.11c.39-.8.8-1.6,1.23-2.39L11,45.53A85.46,85.46,0,0,1,16.37,37l3.16,1.63c.51-.73,1-1.45,1.61-2.16l-2.48-2.55a87.17,87.17,0,0,1,6.63-7.57l2.86,2.12c.63-.63,1.27-1.26,1.93-1.87l-2-2.92a86.47,86.47,0,0,1,7.74-6.43l2.51,2.58,1.54-1.09c.22-.15.44-.3.67-.44l-1.57-3.25A85.56,85.56,0,0,1,47.6,9.94l2.07,3c.81-.41,1.61-.8,2.43-1.17l-1-3.48a84.86,84.86,0,0,1,9.38-3.63L62,7.92c.86-.28,1.72-.54,2.58-.77l-.46-3.6A85.82,85.82,0,0,1,74,1.47L75,5c.89-.13,1.77-.24,2.67-.33L77.81,1a84.42,84.42,0,0,1,10-.47l.46,3.65c.9,0,1.79,0,2.68.09L91.72.64a81.71,81.71,0,0,1,10,1.13l-.13,3.71c.88.16,1.76.33,2.64.52l1.3-3.5a86.12,86.12,0,0,1,9.66,2.72l-.73,3.68q1.28.45,2.52.93l1.86-3.26a84.27,84.27,0,0,1,9.11,4.23l-1.32,3.54c.78.42,1.56.87,2.33,1.33l2.38-2.94a85.28,85.28,0,0,1,8.29,5.64l-1.88,3.29c.71.55,1.41,1.12,2.1,1.7l2.82-2.53q2.81,2.36,5.44,5c.63.62,1.24,1.25,1.84,1.9Z"/><circle class="cls-2" cx="86.78" cy="86.92" r="6.2" transform="translate(-30.64 122.93) rotate(-62.1)"/><path class="cls-3" d="M73.27,73.41c0,.07.08.11.2,0l0-.21Z"/><path class="cls-3" d="M74.34,72.85c.1-.19.18-.46,0-.49,0,.26-.13.24-.16.53-.12.13-.26.16-.28.1s-.23.15-.23.29a1,1,0,0,0,.62-.52C74.35,72.75,74.34,72.82,74.34,72.85Z"/><path class="cls-3" d="M89.86,68.65l-.1,0Z"/><path class="cls-3" d="M98.92,73.05c-.06,0-.1-.06-.11,0S98.92,73.07,98.92,73.05Z"/><path class="cls-3" d="M100,74.38,100,74.3S100,74.37,100,74.38Z"/><path class="cls-3" d="M89.86,68.65l.26.09S90,68.68,89.86,68.65Z"/><path class="cls-3" d="M75.93,71.09l-.1.13.11-.1Z"/><path class="cls-3" d="M85.38,68.58h-.09l-.06.07Z"/><path class="cls-3" d="M82,69.18c.08,0,.07-.15.08-.22a.19.19,0,0,1-.14.13A.24.24,0,0,0,82,69.18Z"/><path class="cls-3" d="M76.9,71.14l-.07.06Z"/><path class="cls-3" d="M87.83,68.59l0,0A.09.09,0,0,0,87.83,68.59Z"/><path class="cls-3" d="M70.42,76.45l0,0S70.43,76.43,70.42,76.45Z"/><path class="cls-3" d="M73.53,73.67l0,0,0,.06Z"/><path class="cls-3" d="M101.86,76.93h0C101.79,76.86,101.82,76.9,101.86,76.93Z"/><path class="cls-3" d="M96.63,102.21c.35-.07-.38.4.13.27C96.69,102.46,97,102.07,96.63,102.21Z"/><path class="cls-3" d="M76,71.05l.12-.08Z"/><path class="cls-3" d="M96.76,102.48h0l0,0Z"/><path class="cls-3" d="M104.63,83.53a.19.19,0,0,0,.05-.09A.2.2,0,0,0,104.63,83.53Z"/><path class="cls-3" d="M103.05,78.37l0,.13A.5.5,0,0,0,103.05,78.37Z"/><path class="cls-3" d="M105.12,86.3a.4.4,0,0,0,0,.19s0,0,0,0S105.1,86.38,105.12,86.3Z"/><path class="cls-3" d="M105,89.23l0,0v-.1Z"/><path class="cls-3" d="M67.49,85.32a.55.55,0,0,1,.14-.13C67.52,85.23,67.51,84.77,67.49,85.32Z"/><path class="cls-3" d="M76,71.16a.12.12,0,0,1,0-.11l-.07.07A0,0,0,0,0,76,71.16Z"/><path class="cls-3" d="M106.24,86.39v0Z"/><path class="cls-3" d="M77.42,103.83l-.1,0A.14.14,0,0,0,77.42,103.83Z"/><path class="cls-3" d="M106.19,88.35a1.09,1.09,0,0,0-.11.27.21.21,0,0,0,0,.06Z"/><path class="cls-3" d="M67.63,85.19Z"/><path class="cls-3" d="M67.87,81.94c-.11.46.13.26.2.38-.08.55-.19.22-.33.38,0,.36.07.65,0,.91,0,0,0,.06-.08,0,.09.39-.16,1.09,0,1.54l-.05,0a.3.3,0,0,1,.25,0c0,.2.1.39,0,.45,0-.12,0-.14-.08-.2l0,.22c-.19.19,0-.3-.18-.31a5.14,5.14,0,0,1,.09,1.25c-.17.07,0-.76-.19-.33l.09-.5c-.29.37,0-.31-.27,0-.07.67,0,.75,0,1.42.1.15.13-.05.23.1.22.93-.39.77-.13,1.45.13.17.36.21.32.71l-.22-.14c.08.65.33.33.3,1-.09-.11-.14-.5-.15-.4-.08.46.16.29.2.63l-.15.1c.2.66.45,1.38.73,2.09-.06,0-.15-.14-.14.05a10.33,10.33,0,0,1,.5,1.42c.19.47.36,1,.51,1.4l.28.26c0,.07,0,.16-.05.1.13.34.09,0,.23.09s.06.28,0,.19a12.37,12.37,0,0,1,1.44,2l-.11-.08c.26.46.58.3.76.77l-.07-.06c.68.91,1.62,1.73,2.14,2.45.25,0,.77.82,1,.61a6.07,6.07,0,0,0,.94,1.06c.18.16.4,0,.68.18l-.08.13.44.07.09.27.27.11c-.1-.07-.18-.18-.14-.21a2.22,2.22,0,0,1,.87.69l1,.32s-.22,0-.36,0c.57.09,0,.19.55.28,0-.06.07-.07.09-.1a3.1,3.1,0,0,0,1.17.49l-.11.08a16.7,16.7,0,0,0,2.44.63c-.29-.12-.18-.29.07-.24l.07.18c.18-.06-.25-.12.1-.16s.18.21,0,.24h.4c0,.05-.08.06-.12.12.18-.08.66.26.92.12l0,0a12.68,12.68,0,0,0,2,.09c0-.14.3-.09.51-.2a13.42,13.42,0,0,0,1.73.07c.43-.11.12-.13.31-.24,0,.12.66,0,.35.16a7.72,7.72,0,0,0,1.86-.46c-.11,0-.23,0-.18-.08s.39,0,.39,0l0,0c1-.39,2.49-.34,3.19-.92l0,0,.75-.5c.37-.15-.18.19.12.14a10.62,10.62,0,0,1,1-.64,4.34,4.34,0,0,0,.92-.57c.37,0,.79-.34,1.24-.69l.67-.52a2.66,2.66,0,0,1,.59-.43l-.09,0c.1-.2.22-.13.35-.22-.06,0-.22.09-.16,0,.66-.61,1.28-1.3,2-2,.33-.34.62-.71.93-1.07l.45-.54.39-.59c.37-.57-.2-.56.41-1.19l0,.29a20,20,0,0,1,.81-1.92,11.86,11.86,0,0,0,.61-2c0,.08.07.1,0,.22a1.44,1.44,0,0,0,.17-1c.06-.2.1,0,.18-.14.13-.27,0-.72.16-.85s0,.08,0,.14c0-.2.14-.85,0-.7.13-.49.09-.95.2-1.34-.14-.27.12-.85-.1-1,.22,0,.24-.87.09-1.18.08.1.06-.28.16-.16,0-.36-.08-.69-.19-.62.27-.69-.35-1.3-.05-1.72l-.2-.77-.25-.72a14.18,14.18,0,0,0-.48-1.39c.25,0,.32,1,.53.91-.28-.88-.71-1.29-.94-2.16-.05-.23.14.09.2.15-.18-.42-.39-.81-.56-1.2a4.44,4.44,0,0,0-.61-1.09s.09,0,.14.11c-.08-.13-.16-.33-.24-.27l.11.12c0,.29-.59-.39-.67-.37.38.08-.34-.72.19-.54-.07-.08-.18-.17-.22-.11-.07-.15-.06-.21.09-.12-.34-.46-.34-.22-.64-.64,0,0,.12,0,.2.06a2,2,0,0,1-.69-.69s0-.06.12,0c-.44-.62-1-.82-1.48-1.49.32,0-.13-.26,0-.42a3,3,0,0,0-.35-.27l.06.18c-.28-.26-.63-.39-.83-.65l.26.13-.56-.46.26.33c-.35-.19-.12.2-.47-.17.09,0-.27-.27-.37-.46h0a1.39,1.39,0,0,1-.58-.33c0-.1.17-.14.15-.2-.24,0-.74-.51-1-.49.09,0,.15-.07.13-.1L97,71c-.13-.13-.14-.16-.08-.21-.45-.29,0,.29-.47-.12,0,0,0,0,.14,0A13.09,13.09,0,0,0,95,69.8c-.08-.25.48.17.37,0-.39-.17-.82-.3-1.23-.44s-.84-.22-1.22-.39l.14.07c-.19.22-.53-.33-1-.33.1,0,.17-.11.13-.09a10.32,10.32,0,0,0-2-.31l.11-.05c-.31-.11-.85-.16-1.2-.25-.12.06-.32,0-.21.13a2.74,2.74,0,0,0-1.56-.19,5,5,0,0,1-1.49,0c.11,0,.27-.08.18-.07l-.83.1c.08.11.12.07.3.15a1.08,1.08,0,0,1-.53.14c.36-.08,0-.19-.19-.23,0,0,0,.08,0,.12-.45-.15,0,.24-.65.18l0-.06a3.38,3.38,0,0,1-.64.19c-.12-.12.22-.1.22-.21-.33.06-.61.33-.93.28a3.75,3.75,0,0,1,.47-.17,1,1,0,0,0-.63,0h0l-.57.06h.15c-.31.45-.82.23-1.28.66.45-.39,0-.15,0-.31-.15,0-.37,0-.33,0-.21.21-.45.06-.75.36,0,0-.28.09-.26-.05-.32.15.11.05.1.12-.44.33-1.24.34-1.85.86s-.55.62-1,1c-.21,0,.06-.24.06-.24a1.78,1.78,0,0,0-.77.47c0-.07,0-.07-.15,0s0,.24-.35.38a.74.74,0,0,1,.09-.31c-.22.22-.4.47-.62.68-.12,0,.07-.21.12-.32-.25.24-.68.59-.67.78l.2-.11c-.09.09-.12,0-.06-.12.17-.26.37-.22.41-.19l-.15.15c.35.09.68-.56,1-.81l0,.28.26-.41c.11,0,.23,0,.07.2.31-.09.19-.2.48-.25,0,0,0,0,0,0l.23-.21c0,.07.12.1,0,.17.53-.17.68-.58.93-.55l0,0c.63-.41,0-.17.42-.58l.51.18V70c.07,0,.22-.09.22,0,.22-.22-.08,0,0-.2.39-.05.93-.47,1.1-.26.09-.15-.37,0,0-.17.2.2.43-.2.8-.2-.06.16-.39.2,0,.2.12-.29.64-.17.91-.27,0-.17.59-.22,1-.39,0,0,.92-.06,1.37-.06v0c.06-.19.52-.25.86-.3,0,.12-.06.16-.24.22l.31,0a.71.71,0,0,1,.38-.13l-.08.14A5,5,0,0,1,87,68.48c0-.13-.44-.38.15-.44,0,.07,0,.19-.11.21a.62.62,0,0,1,.28,0l-.24.1c.25.07.13-.09.33-.07,0,.1.15.08.12.16s-.17-.05-.25,0a1.31,1.31,0,0,1,.57.18c0-.06,0-.13.17-.14.43,0,.14.13.38.19s.37,0,.39-.1.14.09.18.13c.22,0,1,.13.79-.06l0,0h0c.75-.08,1.45.4,2.16.49l0,0c.43,0,.91.27,1.23.27.12,0,.25.18.18.22a1.43,1.43,0,0,1,.78.29c-.33-.06.07.12-.33-.08a1.81,1.81,0,0,0,.88.39c-.19.05.22.28.42.33l-.23-.21a4.88,4.88,0,0,1,.56.27l-.17.1c.63.6,1.52.46,1.87,1.12.25,0-.32-.34-.09-.33a5.62,5.62,0,0,1,.6.76c.37.4.56.09,1,.5,0-.09,0-.26.39,0s.2.52,0,.39S98.8,73,98.81,73s-.25-.16-.17,0h.07c.11.18.51.54.35.52.26.16.16,0,0-.15.31.41.61.51.9,1,0-.09,0-.19,0-.13.46.62.31.17.68.54.13.28-.23.06.17.4.17.28-.07.15-.19.09.42.26.47.74.62,1L101.1,76a1.66,1.66,0,0,1,.25.3v-.18c.07.12.15.22.1.25.16.08.1-.21.36,0,.06.2.42.44.31.59-.3-.53-.09.14-.41-.26a1,1,0,0,1,.21.3s0,0-.07,0c.19.57.29.13.6.65-.12,0-.08.21,0,.29-.12-.21.07-.18.24,0,.14.37.26.34.36.52l-.09-.22c.12,0,.21.2.35.44-.06.06-.15-.2-.14-.1.27.21.15.7.42,1,0,.2-.15.09-.11.26.31.38.07.51.33.94.07-.18,0-.19.26.1l-.35-.74.33.43c-.08-.23-.23-.47-.28-.61.19.19.14.19.2,0,0,.38.32.6.34,1L104,81c.08.58.46.94.56,1.7v-.25c.13.07.12.46.23.69-.1,0-.1.15-.14.26s.07.55.28.59l-.08.36c0,.61.4.66.38,1.26-.11-.17-.17.1-.27-.29,0,.2,0,.38.07.38s.16.54.08.72.15.11.15.34c0,0-.05,0-.05,0s.07.35.18.16c-.36.6,0,1.73-.4,2.23,0,.43-.06.95-.12,1.34,0,0-.05,0,0-.08-.22.51.19.38,0,1-.23.27,0-.34-.12-.17-.34,0-.11.74-.43,1.08l0-.1c-.21.27-.14.77-.33,1.25a0,0,0,0,0,0,0,4.13,4.13,0,0,1-.36,1.51c0-.2,0-.24-.12-.21-.08.21.21,0,0,.46-.12.1-.3.37-.46.33.07-.12.12-.25.18-.38-.24.12-.24.49-.38.66l-.06-.06c-.3.56-.14.67-.5,1.27l.08,0c0,.43-.27.2-.37.59l-.23,0a8.2,8.2,0,0,1-.62,1.2,10,10,0,0,1,.43-1.07,2.8,2.8,0,0,0-.49.85c.05-.1.08-.23.17-.29a2.17,2.17,0,0,1-.61,1.06c-.23-.32-.93.91-1.43.9a4.79,4.79,0,0,1-1,.89,12.68,12.68,0,0,0-1.17.79c.45,0-.23.18,0,.4a.78.78,0,0,1-.3.18l-.72.21c-.19,0,.16-.17.11-.22-.45.24-.25,0-.58.1.11.06-.08.22-.35.34l.42-.09c-.53.52-.66.06-1.23.52l.16-.18a8.76,8.76,0,0,0-1.49.89c-.07,0-.18-.06,0-.14-.42.12-.85.38-1.3.54a4.29,4.29,0,0,1-1.22.31l0-.09c-.15.06-.25.22-.47.17,0,0,.06-.09,0-.08a1.64,1.64,0,0,1-.64.18l.18-.11a2.87,2.87,0,0,0-1.06.23,6.28,6.28,0,0,1-1,.23c0-.23-.68-.24-1-.3v0a7.35,7.35,0,0,0-1.34,0c-.42,0-.83,0-1.3,0a7.76,7.76,0,0,0-1.26-.41,6.21,6.21,0,0,1-1.49-.49c.12.09-.08.16-.24.12s-.63,0-.52-.23l.07,0c-.09-.25-.53-.32-.84-.49l-.16.22a4.26,4.26,0,0,0-1.4-.81c-.49-.24-.94-.46-1.06-.73a4,4,0,0,1-.67-.29l.09-.11c-.46-.4-.72-.56-1.31-1l.18,0c-.31-.29-.66,0-1-.32l.06-.23c-.59-.48-.91-1.2-1.56-1.61a.16.16,0,0,1,.18,0c-.26-.24-.72-1.14-.88-.86.15-.12-.44-.63-.74-.92l.15,0a1.57,1.57,0,0,1-.66-.57c0-.11,0-.14.09,0-.13-.36-.26-.19-.43-.62l.16.1c-.18-.34-.22-.28-.4-.43s-.28-.69-.19-.8a.54.54,0,0,1-.34-.39s.09,0,.12.05c-.2-.61-.49-.84-.53-1.31a.13.13,0,0,0,.06-.1c.16.49.29.89.27.85s0-.44.28-.2a3.29,3.29,0,0,1-.66-1.14.14.14,0,0,1,0-.06l0,0a.8.8,0,0,0-.1-.23,1.86,1.86,0,0,0-.05-.34c.1-.07,0-.47-.1-.67-.13,0-.17-.22-.22,0,0,0,0,0,.06.17a.2.2,0,0,0,0,.08h0l.13.5a.68.68,0,0,1-.18-.54,1.62,1.62,0,0,1-.29-.23c.11-.32.09-.88.22-1a7.46,7.46,0,0,0-.55-1.84c0-.18.07-.22.11-.29a1.13,1.13,0,0,0,.07.28c-.09-.35-.08-1.06-.27-1.14.07-.46.17.25.14-.38l.05.09a3.49,3.49,0,0,0,0-1.64,3.28,3.28,0,0,1,.23-1.72c0,.09-.06.14-.09.15.46-1.48.61-3.2,1.54-4.48a1.18,1.18,0,0,0,.18-.76h.17c0-.16.05-.32.08-.48.24-.62.84-.8,1.14-1.58l-.14,0c.19-.23.5-.79.57-.68a.19.19,0,0,1,.08-.21l.07,0a4,4,0,0,1,.36-.64c.42-.38.18.27.73-.33.18-.24.42-.79.3-.75s-.24.2-.31.15l.16-.23c-.13-.2-.14-.54-.74-.13l-.23.47-.19,0,.27-.31c-.24.1-.27.28-.33.45a.35.35,0,0,0-.24.07l-.15.51c-.11,0,0-.29-.25-.06,0,.25.29-.05.12.3-.22.12-.25,0-.34.29-.07,0-.07-.07,0-.18-.09.25-.37.55-.35.73-.26.12-.45.7-.61.57a2.1,2.1,0,0,1-.19.67c0-.5-.44.72-.64.49,0,.38-.39,1.06-.51,1.61a.24.24,0,0,1,0-.14,2.79,2.79,0,0,1-.38.49c.17.11.05.58.08.86-.3.29-.14-.29-.35-.24.16,0-.07.67.1.59-.2.24-.13.22-.34.31.22.12-.06.27,0,.54-.22.38-.25,0-.29.51C67.86,82.36,67.87,81.94,67.87,81.94Zm.68,10.78h0l-.09-.2Zm.3.86-.12-.37s.09,0,.12.05S68.84,93.44,68.85,93.58Zm.37-2.08c0,.13,0,.18,0,.21l-.07-.23h0A.13.13,0,0,1,69.22,91.5Z"/><path class="cls-3" d="M69,91.31a.11.11,0,0,1,0-.06v.09l0,0Z"/><path class="cls-3" d="M89.74,68.61h0a.05.05,0,0,1,0,0Z"/><polygon class="cls-3" points="76.5 103.37 76.52 103.34 76.44 103.33 76.5 103.37"/><path class="cls-3" d="M84.85,68a.1.1,0,0,0-.07,0Z"/><path class="cls-3" d="M82.72,68.29l-.31,0Z"/><path class="cls-3" d="M81.09,68.64a.2.2,0,0,0,0,.07h0Z"/><path class="cls-3" d="M103.82,77.83l0,.06C104,78,103.9,77.92,103.82,77.83Z"/><path class="cls-3" d="M98.56,72l.24.1C98.7,72.05,98.61,72,98.56,72Z"/><polygon class="cls-3" points="106.23 86.33 106.23 86.33 106.23 86.39 106.23 86.33"/><path class="cls-3" d="M99.07,72.38a.76.76,0,0,0-.27-.24A1.55,1.55,0,0,0,99.07,72.38Z"/><path class="cls-3" d="M74.72,72l-.07,0s0,0,0,0Z"/><path class="cls-3" d="M74.66,72l0,.08A.15.15,0,0,0,74.66,72Z"/><path class="cls-3" d="M74.49,72.26l.12-.15S74.49,72.2,74.49,72.26Z"/><path class="cls-3" d="M76.56,70.74v0A.11.11,0,0,0,76.56,70.74Z"/><path class="cls-3" d="M77.13,70.39a2.54,2.54,0,0,0-.58.25v0C76.6,70.57,77,70.54,77.13,70.39Z"/><path class="cls-3" d="M79.86,69.72l-.51.19c.11,0,.25,0,0,.14C80.07,69.92,79.21,70,79.86,69.72Z"/><path class="cls-3" d="M81.48,69.24c-.27.12,0,.08,0,.11C81.66,69.25,81.7,69.23,81.48,69.24Z"/><path class="cls-3" d="M93.37,69.69l-.07.11C93.51,69.86,93.32,69.76,93.37,69.69Z"/><path class="cls-3" d="M95.79,70.06a1.29,1.29,0,0,0-.16-.17l-.15,0A2.85,2.85,0,0,1,95.79,70.06Z"/><polygon class="cls-3" points="96.52 71.55 96.43 71.52 96.77 71.67 96.52 71.55"/><path class="cls-3" d="M104.94,88.7l.16,0C105.08,88.49,104.91,88.45,104.94,88.7Z"/><path class="cls-3" d="M102.23,96.91a.65.65,0,0,0-.32.38C102,97.14,102.21,97,102.23,96.91Z"/><polygon class="cls-3" points="79.19 103.38 79.37 103.41 79.06 103.31 79.19 103.38"/><path class="cls-3" d="M81.86,74.66c0,.06,0,.14.14.08l0-.18Z"/><path class="cls-3" d="M82.72,74.69c.11-.12.22-.31.09-.43-.09.2-.14.15-.22.38-.11,0-.22,0-.22,0s-.19,0-.21.15a.47.47,0,0,0,.53-.16C82.75,74.6,82.72,74.66,82.72,74.69Z"/><path class="cls-3" d="M93.6,76.28l0,0Z"/><path class="cls-3" d="M98.08,81.48s0-.06-.06,0S98.07,81.5,98.08,81.48Z"/><path class="cls-3" d="M98.37,82.63v-.07S98.35,82.62,98.37,82.63Z"/><path class="cls-3" d="M93.6,76.28l.13.14S93.67,76.34,93.6,76.28Z"/><path class="cls-3" d="M84.17,73.88a.22.22,0,0,0-.09.07l.09,0Z"/><path class="cls-3" d="M90.8,75.08l-.06,0-.06,0Z"/><path class="cls-3" d="M88.52,74.57c.06,0,.09-.13.12-.18a.15.15,0,0,1-.13.07A.49.49,0,0,0,88.52,74.57Z"/><path class="cls-3" d="M84.81,74.35l-.07,0Z"/><path class="cls-3" d="M92.32,75.75v.06A.06.06,0,0,0,92.32,75.75Z"/><path class="cls-3" d="M79.16,75.74s0,0,0,0S79.18,75.73,79.16,75.74Z"/><path class="cls-3" d="M82,75l0,0,0,.07Z"/><path class="cls-3" d="M98.77,84.72h0S98.75,84.69,98.77,84.72Z"/><path class="cls-3" d="M88.85,99c.24.1-.34.21,0,.3C88.83,99.28,89.13,99.08,88.85,99Z"/><path class="cls-3" d="M84.24,73.89l.09,0Z"/><path class="cls-3" d="M88.87,99.33Z"/><path class="cls-3" d="M98.77,89.54a.09.09,0,0,0,.07,0Z"/><path class="cls-3" d="M99.22,85.92l0,.09A.51.51,0,0,0,99.22,85.92Z"/><path class="cls-3" d="M98.4,91.42a.2.2,0,0,0-.06.12h0A.14.14,0,0,1,98.4,91.42Z"/><polygon class="cls-3" points="97.53 93.21 97.58 93.19 97.61 93.14 97.53 93.21"/><path class="cls-3" d="M74.88,80.63l.16,0C74.93,80.58,75,80.28,74.88,80.63Z"/><path class="cls-3" d="M84.19,74a.07.07,0,0,1,0-.07l-.07,0S84.17,74,84.19,74Z"/><path class="cls-3" d="M99.4,91.9l-.14.32A1.92,1.92,0,0,0,99.4,91.9Z"/><path class="cls-3" d="M76.18,95.18l-.06-.06A.17.17,0,0,0,76.18,95.18Z"/><path class="cls-3" d="M98.84,93.15a.37.37,0,0,0-.17.13.11.11,0,0,0,0,0Z"/><path class="cls-3" d="M75,80.6Z"/><path class="cls-3" d="M76,78.53c-.2.26,0,.23.09.35-.19.34-.22.07-.37.12-.11.22-.08.47-.17.62,0,0-.06,0-.07,0,0,.29-.4.65-.39,1h0a.4.4,0,0,1,.24.08c-.06.13,0,.29-.14.28,0-.07,0-.1,0-.16l0,.16c-.21,0,0-.21-.07-.27a2.89,2.89,0,0,1-.24.84c-.18,0,.18-.5-.09-.29l.21-.29c-.36.13.11-.18-.26-.09-.24.41-.16.51-.38.92,0,.13.14,0,.19.15-.06.67-.58.34-.53.87.07.16.26.27.07.56l-.16-.16c-.13.43.2.32,0,.74-.06-.1,0-.36,0-.3-.23.26,0,.24,0,.46H73.6c0,.48,0,1,0,1.54,0,0-.09-.13-.15,0a5.37,5.37,0,0,1-.06,1c0,.35-.06.71-.1,1l.15.23c0,.06,0,.11-.09.06,0,.25.1,0,.17.12s-.06.19-.11.1a5.2,5.2,0,0,1,.39,1.7l-.06-.08c0,.37.39.32.33.68l0-.05c.17.77.58,1.53.66,2.15.23,0,.24.76.54.65a3,3,0,0,0,.24,1c.07.16.29.11.44.26l-.13.09.3.14L76,95l.15.13c0-.06,0-.17,0-.19a1,1,0,0,1,.32.71l.59.46c-.06,0-.16,0-.25-.09.38.18-.07.16.28.33,0-.06.08,0,.11-.06,0,.2.36.47.6.64l-.11,0A9.9,9.9,0,0,0,79.06,98c-.15-.18,0-.29.15-.2l0,.17c.15,0-.11-.16.15-.12s0,.23-.12.21l.27.1s-.08,0-.13.08c.15,0,.32.39.55.32v0a8.61,8.61,0,0,0,1.26.59c.07-.13.23,0,.41,0a8.18,8.18,0,0,0,1.07.55c.31,0,.12-.09.28-.13,0,.13.41.23.16.26a4.6,4.6,0,0,0,1.33.18c-.06-.07-.14-.1-.09-.14s.26.1.23.16h0c.74,0,1.67.57,2.28.31h0l.61-.16c.28,0-.17.1,0,.18.65-.21,1-.08,1.57-.28.25.18.61.06,1,0a4.41,4.41,0,0,1,1.07-.25L91,99.76c.11-.13.19,0,.3,0,0-.06-.18,0-.11-.1A24.17,24.17,0,0,0,94.73,98c.4-.26-.06-.53.54-.71l0,.23a10,10,0,0,1,1-1,6,6,0,0,0,.91-1.1c0,.07,0,.11,0,.17.22-.07.45-.58.37-.63.1-.11.09,0,.18,0s.18-.48.33-.5,0,.07,0,.1c0-.14.33-.5.15-.47.23-.27.3-.6.5-.8-.06-.24.32-.51.15-.65.19.12.45-.48.4-.73,0,.1.14-.15.2,0,.08-.23.12-.47,0-.46.43-.35.06-1,.47-1.1a10.56,10.56,0,0,0,.08-1.09c0-.36,0-.69,0-1,.24,0-.07.73.16.73a11.4,11.4,0,0,1-.08-1.64c0-.16.1.09.13.15a10,10,0,0,0-.15-1.78s.05.06.08.11c0-.11,0-.26-.11-.24l0,.11c-.13.19-.37-.4-.45-.41.32.15,0-.55.41-.31,0-.07-.09-.15-.16-.12s0-.16.14-.06c-.11-.39-.21-.22-.28-.57,0,0,.08.06.15.08a1,1,0,0,1-.3-.61s.06,0,.08.05c-.12-.51-.5-.77-.58-1.33.25.08,0-.21.16-.3a1.48,1.48,0,0,0-.16-.27l0,.15c-.11-.25-.33-.4-.37-.64l.15.15L98.6,81l.06.29c-.2-.2-.2.13-.3-.21,0,0-.1-.24-.09-.41h0a.63.63,0,0,1-.29-.36c0-.07.19-.07.21-.11-.2,0-.35-.52-.58-.56a.14.14,0,0,0,.15-.06l-.17,0c0-.12,0-.14,0-.17-.2-.31-.12.23-.3-.18,0,0,0,0,.1,0a9.84,9.84,0,0,0-.8-1c.07-.21.28.24.3,0-.41-.42-1-.75-1.37-1.15l.06.09c-.23.15-.21-.39-.52-.48.07,0,.17,0,.14,0A5.13,5.13,0,0,0,94,76l.1,0a7.67,7.67,0,0,0-.69-.5c-.1,0-.21-.06-.19.07-.49-.71-1.36-.48-1.86-1,.07,0,.2,0,.14,0L91,74.43c0,.13,0,.09.13.22a.58.58,0,0,1-.39,0c.26,0,.06-.19,0-.27s0,.06,0,.1c-.23-.27-.12.21-.47,0l0,0a1.41,1.41,0,0,1-.46,0c0-.14.17,0,.2-.12-.22,0-.49.12-.67,0,.11,0,.25,0,.35,0-.19-.21-.23-.16-.39-.22h0l-.38-.14.09.06c-.34.31-.59-.06-1,.16.4-.19.07-.12.12-.27s-.25-.11-.2-.15c-.19.11-.31-.11-.58,0,0,0-.2,0-.15-.14-.25,0,0,.09,0,.15-.37.14-.88-.19-1.41.05s-.51.32-.91.46c-.15-.06.09-.19.09-.19a.93.93,0,0,0-.62.08s0-.07-.09-.11-.08.2-.31.18a.5.5,0,0,1,.13-.23c-.2.09-.38.23-.57.32-.08-.07.09-.16.15-.23-.23.1-.59.22-.62.38h.16c-.08,0-.08-.1,0-.14a.2.2,0,0,1,.32,0l-.13.07c.22.24.57-.19.88-.24l-.08.23.26-.24c.08,0,.14.15,0,.21.23.06.18-.1.38,0,0,0,0,0,0,0l.19-.09s.06.14-.07.13c.38.07.58-.23.73-.1l0,0c.51-.11,0-.16.42-.36l.28.37,0-.15c.06,0,.16,0,.15.07.19-.11,0-.07.08-.17.25.12.71-.06.76.19.1-.11-.24-.1,0-.17.06.27.32,0,.55.12-.09.13-.3,0-.08.17.16-.22.45.08.64.08,0-.18.44,0,.78,0,0,0,.58.24.86.39l0,0c.11-.15.41-.06.64,0,0,.11-.1.13-.23.14l.2.07a.36.36,0,0,1,.28,0l-.1.11c.27.09.61,0,.91.27.07-.11-.13-.46.27-.36,0,.07,0,.18-.16.17a.29.29,0,0,1,.19.05l-.19,0c.13.12.12,0,.23,0,0,.09.07.11,0,.17s-.08-.09-.15-.08a.75.75,0,0,1,.29.31.12.12,0,0,1,.17-.08c.26.12,0,.15.16.27.1,0,.22.12.29,0,.07,0,0,.12.06.17s.6.34.54.12l0,0h0c.52.11.78.66,1.22.89l0,0c.26.14.5.41.73.47.06.06.09.2,0,.22.18.12.26.09.41.39-.21-.11,0,.11-.2-.13.16.24.15.34.45.48-.16,0,0,.27.14.34l-.06-.21a2.67,2.67,0,0,1,.28.32l-.18,0c.18.58.92.63.87,1.2.18.07-.09-.32.09-.28a2.86,2.86,0,0,1,.1.68c.1.36.4.17.52.55,0-.08.15-.19.32,0s-.08.41-.2.28,0-.1,0-.1-.13-.16-.14,0h.06c0,.14.16.47,0,.43.13.16.12,0,.09-.11.06.35.24.48.29.84,0-.06.06-.14.08-.08.1.51.18.18.32.5,0,.22-.23,0,0,.31,0,.23-.14.09-.21,0,.22.26.07.59.1.77l-.08-.15a.66.66,0,0,1,.08.25l.1-.12c0,.1,0,.18,0,.19s.18-.12.33,0c0,.14.16.39,0,.46,0-.42-.14.07-.24-.26a.54.54,0,0,1,0,.24s0,0,0,0c-.08.41.2.14.25.55-.09,0-.15.12-.12.18,0-.16.13-.1.22,0s.09.28.1.42v-.16c.1,0,.1.18.13.36-.07,0,0-.17-.08-.1.16.2-.15.48,0,.76-.06.13-.17,0-.21.13.14.32-.12.34,0,.67.12-.09.09-.11.19.14l0-.56.15.36c0-.17,0-.35,0-.45.1.17.07.15.17.07-.19.23.08.47-.06.73l-.3,0c-.14.38.09.71-.07,1.21l.08-.15c.1.09,0,.32,0,.49-.09,0-.15.06-.22.12s-.1.36.08.45l-.19.19c-.16.39.16.55,0,.92-.06-.15-.19,0-.17-.28,0,.13-.1.23,0,.26s0,.39-.14.48c0,.07.11.12,0,.26s0,0,0,0,0,.25.12.17c-.47.24-.46,1.09-.91,1.25a8.92,8.92,0,0,1-.42.82s0,0,0-.06c-.3.24.09.35-.25.63-.25.07.07-.24-.06-.16-.3-.16-.26.44-.59.53l0-.07c-.23.09-.26.47-.52.72,0,0,0,0,0,0a2.2,2.2,0,0,1-.57.91c0-.17.07-.16-.07-.21-.1.12.18.12,0,.36-.12,0-.32.12-.43,0,.07,0,.14-.13.21-.19-.22,0-.28.24-.42.3l0-.07c-.33.28-.22.44-.61.71l.07,0c-.1.31-.24,0-.38.28l-.18-.13a4.19,4.19,0,0,1-.67.65,4.34,4.34,0,0,1,.51-.64c-.15.08-.49.3-.52.43,0,0,.1-.13.18-.14a1.1,1.1,0,0,1-.63.56c-.11-.37-.84.3-1.19.07a2.37,2.37,0,0,1-.83.31,8.69,8.69,0,0,0-.94.15c.29.24-.19.06-.09.35-.16.06-.22,0-.24,0l-.51-.12c-.12-.07.14-.08.12-.15-.35,0-.16-.11-.4-.16.06.1-.1.17-.3.16l.29.1c-.47.23-.43-.22-.91,0l.15-.1c-.24.07-.9,0-1.16.24,0,0-.1-.12,0-.14-.58-.05-1.35.13-1.79-.11l.06-.06c-.11,0-.22.11-.34,0s.06-.06,0-.08a.8.8,0,0,1-.45,0l.14,0c-.53-.23-.92,0-1.4-.17.08-.22-.33-.42-.52-.56l0,0c-.59-.32-1.11-.33-1.7-.61-.21-.38-1-.83-1.42-1.34,0,.09-.13.12-.22.06s-.41-.17-.26-.3l0,0c.06-.22-.21-.37-.36-.56l-.21.15a2,2,0,0,0-.63-.89c-.25-.28-.49-.53-.45-.76-.15-.08-.24-.24-.37-.33l.12-.07a8.41,8.41,0,0,0-.54-1l.14,0c-.11-.26-.52-.15-.64-.39l.16-.16c-.24-.45-.2-1-.55-1.41a.11.11,0,0,1,.13.07c-.09-.22-.1-.91-.36-.76.18,0-.11-.51-.24-.77l.14,0a.85.85,0,0,1-.34-.51c0-.08.1-.09.08,0,0-.26-.16-.18-.13-.5l.11.11c0-.27-.08-.24-.19-.38s0-.51.15-.55a.32.32,0,0,1-.16-.33s.08,0,.1.06c.06-.44-.14-.66,0-1a.08.08,0,0,0,.08,0,3.8,3.8,0,0,1-.06.61c.13,0,.17-.28.33,0a1.68,1.68,0,0,1-.18-.89s0,0,0,0v0a.37.37,0,0,0,0-.18.81.81,0,0,0,.07-.22c.11,0,.11-.3.14-.44-.14,0-.09-.19-.23,0,0,0,0,0,0,.12v0l0,.35a.33.33,0,0,1,0-.39,1.5,1.5,0,0,1-.19-.23c.22-.16.39-.5.53-.52a3.52,3.52,0,0,0,0-1.32c0-.13.12-.11.17-.14s0,.15,0,.2c0-.25.23-.69.08-.81.19-.26.09.22.23-.18l0,.07a1.61,1.61,0,0,0,.42-1,1.63,1.63,0,0,1,.59-1s-.07.06-.11.06c.73-.77,1.2-1.88,2.19-2.37.26-.16.2-.27.28-.46l.14.07.15-.32c.29-.36.81-.19,1.16-.65l-.12,0c.19-.09.52-.38.55-.26s0-.13.1-.12l0,.06a4,4,0,0,1,.38-.34c.38-.11.09.3.59.09.17-.12.45-.46.36-.48s-.22,0-.26,0L82,75c0-.23,0-.52-.51-.46l-.26.27-.15,0,.27-.13c-.2,0-.25.1-.33.21a.22.22,0,0,0-.19-.05l-.21.34c-.07-.06,0-.24-.17-.17s.23.11,0,.3c-.19,0-.19-.11-.31.07,0,0,0-.1,0-.16-.12.15-.38.26-.4.41-.22,0-.47.33-.58.15a1,1,0,0,1-.26.42c.07-.38-.49.34-.6.07,0,.31-.53.6-.73,1,0,0,0-.09,0-.1a1.38,1.38,0,0,1-.41.18c.12.16-.07.44-.1.65-.32.07-.06-.27-.25-.34.12.1-.19.45,0,.47-.22.07-.15.09-.35.06.17.19-.1.16-.08.4-.26.15-.22-.09-.36.22C75.89,78.81,76,78.53,76,78.53Zm-2.4,7.13h0v0Zm0,.63,0-.27a.07.07,0,0,1,.1.07S73.61,86.2,73.56,86.29Zm1.09-1.18c0,.09,0,.12-.05.13v-.17h0A.1.1,0,0,1,74.65,85.11Z"/><path class="cls-3" d="M74.5,84.91s0,0,0,0l0,0,0,0Z"/><path class="cls-3" d="M93.54,76.22h0s0,0,0,0Z"/><polygon class="cls-3" points="75.7 94.64 75.73 94.62 75.67 94.59 75.7 94.64"/><path class="cls-3" d="M90.69,74.37s0,0,0-.05S90.67,74.35,90.69,74.37Z"/><path class="cls-3" d="M89.25,74l-.2-.08Z"/><path class="cls-3" d="M88.13,73.74a.09.09,0,0,0,0,.06h0Z"/><path class="cls-3" d="M100.15,85.76v0C100.2,85.91,100.18,85.84,100.15,85.76Z"/><path class="cls-3" d="M98.27,80.67l.15.12C98.38,80.7,98.35,80.64,98.27,80.67Z"/><polygon class="cls-3" points="99.42 91.87 99.42 91.86 99.4 91.9 99.42 91.87"/><path class="cls-3" d="M98.52,81a.41.41,0,0,0-.1-.23A.8.8,0,0,0,98.52,81Z"/><path class="cls-3" d="M83.16,74.11h0v0Z"/><path class="cls-3" d="M83.11,74.14l-.06,0S83.1,74.16,83.11,74.14Z"/><path class="cls-3" d="M82.94,74.25l.11-.08S83,74.2,82.94,74.25Z"/><path class="cls-3" d="M84.67,73.85v-.06S84.67,73.82,84.67,73.85Z"/><path class="cls-3" d="M85.13,73.77a1.25,1.25,0,0,0-.44,0v0C84.74,73.71,85,73.87,85.13,73.77Z"/><path class="cls-3" d="M87,74.29l-.37,0c.07,0,.15.13,0,.14C87.12,74.54,86.56,74.27,87,74.29Z"/><path class="cls-3" d="M88.18,74.44c-.2,0,0,.08,0,.11C88.29,74.51,88.32,74.51,88.18,74.44Z"/><path class="cls-3" d="M95.5,77.9l-.1.08C95.53,78.07,95.44,77.94,95.5,77.9Z"/><path class="cls-3" d="M97.09,78.64a1.36,1.36,0,0,0,0-.17l-.14,0Z"/><polygon class="cls-3" points="96.92 79.95 96.86 79.91 97.05 80.08 96.92 79.95"/><path class="cls-3" d="M97.61,92.85l.16,0C97.79,92.78,97.65,92.68,97.61,92.85Z"/><path class="cls-3" d="M93.77,97.29a.27.27,0,0,0-.31.13C93.58,97.36,93.73,97.35,93.77,97.29Z"/><polygon class="cls-3" points="77.7 95.13 77.82 95.18 77.64 95.05 77.7 95.13"/><text class="cls-4" transform="matrix(-0.22, 0.97, -0.97, -0.22, 29.78, 69.19)">I</text><text class="cls-4" transform="matrix(-0.03, 1, -1, -0.03, 27.44, 80.54)">I</text><text class="cls-4" transform="translate(27.32 92.12) rotate(80.86)">I</text><text class="cls-4" transform="translate(29.02 101.64) rotate(73.14)">:</text><text class="cls-4" transform="translate(31 108.12) rotate(65.72)"> </text><text class="cls-4" transform="translate(34.73 117.11) rotate(51.84)">R</text><text class="cls-4" transform="translate(47.43 132.02) rotate(36.1)">e</text><text class="cls-4" transform="translate(57.54 139.26) rotate(23.65)">b</text><text class="cls-4" transform="translate(71.24 144.82) rotate(9.92)">e</text><text class="cls-4" transform="matrix(1, -0.02, 0.02, 1, 83.73, 146.71)">l</text><text class="cls-4" transform="translate(92.21 146.52) rotate(-8.13)">l</text><text class="cls-4" transform="translate(99.91 145.34) rotate(-15.59)">i</text><text class="cls-4" transform="matrix(0.9, -0.43, 0.43, 0.9, 107.35, 143.4)">o</text><text class="cls-4" transform="matrix(0.78, -0.63, 0.63, 0.78, 119.6, 137.34)">n</text></g></g></g></svg>