<svg xmlns="http://www.w3.org/2000/svg" viewBox="0 0 147.27 147.35"><defs><style>.cls-1,.cls-4{fill:#d3d3d3;stroke-linecap:round;stroke-linejoin:round;}.cls-1{stroke:#d3d3d3;}.cls-2{fill:#202020;}.cls-3{font-size:21px;font-family:OldNewspaperTypes;}.cls-4{stroke:#000;stroke-width:0.5px;}</style></defs><g id="Layer_2" data-name="Layer 2"><g id="industrialization_graphic" data-name="industrialization graphic"><g id="TOP_-4" data-name="TOP -4"><path class="cls-1" d="M126.36,28.36l3.16-1.88a70.36,70.36,0,0,1,4.84,6.41l-2.66,2.5q1.73,2.61,3.21,5.36l3.46-1.15a70.42,70.42,0,0,1,3.34,7.3l-3.11,1.85c.77,1.94,1.43,3.93,2,6l3.56-.38a68.31,68.31,0,0,1,1.69,7.86l-3.35,1.11q.48,3.12.67,6.27l3.49.39a71.69,71.69,0,0,1,0,8l-3.47.36q-.21,3.14-.7,6.28l3.3,1.12A71.1,71.1,0,0,1,144,93.59l-3.46-.4c0,.15-.08.3-.13.45q-.84,2.83-1.9,5.54l3,1.81a73.81,73.81,0,0,1-3.4,7.28l-3.27-1.12c-1,1.87-2.11,3.68-3.29,5.42l2.49,2.37a70.12,70.12,0,0,1-4.89,6.38l-2.93-1.78q-2.08,2.4-4.38,4.58l1.91,2.84a73,73,0,0,1-6.14,5.19l-2.48-2.38c-1.71,1.26-3.46,2.44-5.27,3.53l1.27,3.21a68,68,0,0,1-7.11,3.74l-1.93-2.88c-1.93.87-3.89,1.64-5.9,2.32l.55,3.42A72.86,72.86,0,0,1,89,145.23L87.72,142q-3.09.65-6.26,1l-.19,3.45a71.73,71.73,0,0,1-8,.4l-.54-3.43q-3.15,0-6.31-.39l-.94,3.36a70.86,70.86,0,0,1-7.93-1.31l.21-3.53c-1.26-.3-2.52-.64-3.78-1-.77-.23-1.52-.47-2.28-.72L50,143a72,72,0,0,1-7.45-3l1-3.44c-1.91-.92-3.75-1.91-5.54-3l-2.33,2.74A72.71,72.71,0,0,1,29,131.73l1.71-3.19q-2.48-1.95-4.74-4.08l-2.9,2.18c-.42-.4-.83-.8-1.25-1.22-1.49-1.49-2.91-3-4.25-4.63L20,118c-1.32-1.61-2.57-3.28-3.74-5l-3.36,1.54a71.31,71.31,0,0,1-4.13-6.89l3-2.25c-.94-1.85-1.79-3.73-2.57-5.66l-3.68.8A72.44,72.44,0,0,1,3,92.92l3.43-1.57q-.79-3-1.3-6.06H1.33a73.83,73.83,0,0,1-.83-8l3.71-.8q-.12-3.08,0-6.18L.53,69.48a74.23,74.23,0,0,1,.89-8l3.86,0c.36-2,.82-4,1.36-6L3.13,53.87a71,71,0,0,1,2.59-7.61l3.8.86q1.19-2.86,2.6-5.58L9,39.18a70.08,70.08,0,0,1,4.17-6.86L16.73,34c1.18-1.68,2.43-3.31,3.74-4.87l-2.51-3q1.84-2.14,3.88-4.18.82-.83,1.68-1.62l3.08,2.38q2.26-2.09,4.71-4l-1.82-3.46a70.6,70.6,0,0,1,6.66-4.49l2.52,3c1.77-1,3.59-2,5.44-2.85l-1-3.79a71.79,71.79,0,0,1,7.47-2.93l1.81,3.45C54.3,7,56.28,6.48,58.28,6l-.19-3.87A71.09,71.09,0,0,1,66,.89l1,3.72q3.06-.3,6.16-.33L73.82.5a69.49,69.49,0,0,1,8,.47L82,4.78q3,.38,6.09,1l1.42-3.55a73,73,0,0,1,7.74,2.17l-.64,3.75q3,1,5.75,2.3l2.14-3.13a71.13,71.13,0,0,1,7.08,3.8l-1.4,3.47c1.77,1.09,3.49,2.26,5.14,3.49l2.7-2.54a71.3,71.3,0,0,1,6.11,5.23l-2.08,3C123.58,25.27,125,26.79,126.36,28.36Z"/><path class="cls-2" d="M74,58.65s0,.13.11.13l.1-.16Z"/><path class="cls-2" d="M74.9,59c.17-.06.37-.19.28-.35-.18.15-.21.08-.4.26-.13,0-.23-.07-.21-.13s-.21,0-.29.05a.63.63,0,0,0,.64.07S74.92,59,74.9,59Z"/><path class="cls-2" d="M85.8,65.57l0-.08A.19.19,0,0,0,85.8,65.57Z"/><path class="cls-2" d="M88.26,73.14c0-.07,0-.09,0-.09S88.24,73.15,88.26,73.14Z"/><path class="cls-2" d="M88.08,74.5l0-.08A.09.09,0,0,0,88.08,74.5Z"/><path class="cls-2" d="M85.8,65.57l.09.21S85.86,65.67,85.8,65.57Z"/><path class="cls-2" d="M76.79,58.87l-.13,0h.12Z"/><path class="cls-2" d="M83.36,63l0,0h-.09Z"/><path class="cls-2" d="M81.17,61.43s.14-.07.19-.11a.18.18,0,0,1-.16,0A.17.17,0,0,0,81.17,61.43Z"/><path class="cls-2" d="M77.28,59.56h0Z"/><path class="cls-2" d="M84.7,64.41s0,0,0,0S84.69,64.43,84.7,64.41Z"/><path class="cls-2" d="M70.66,58.63a0,0,0,0,0,0,0S70.68,58.63,70.66,58.63Z"/><path class="cls-2" d="M74,59h0s0,.06,0,.08Z"/><path class="cls-2" d="M87.6,76.92h0C87.6,76.84,87.59,76.88,87.6,76.92Z"/><path class="cls-2" d="M70.48,87.77c.22.19-.45,0-.1.28C70.36,88,70.77,87.93,70.48,87.77Z"/><path class="cls-2" d="M76.86,58.9l.12,0A.3.3,0,0,0,76.86,58.9Z"/><path class="cls-2" d="M70.38,88.05h0l0,0Z"/><path class="cls-2" d="M85.4,82.09h.09S85.45,82.07,85.4,82.09Z"/><path class="cls-2" d="M87.49,78.39l-.06.09A.24.24,0,0,0,87.49,78.39Z"/><path class="cls-2" d="M84.13,83.9s-.07,0-.11.11h0S84.07,83.94,84.13,83.9Z"/><polygon class="cls-2" points="82.4 85.43 82.45 85.43 82.51 85.38 82.4 85.43"/><path class="cls-2" d="M64,61.89a.41.41,0,0,1,.16,0C64,61.86,64.27,61.59,64,61.89Z"/><path class="cls-2" d="M76.78,59a.07.07,0,0,1,.08-.05h-.08S76.76,58.93,76.78,59Z"/><path class="cls-2" d="M84.86,84.75l-.29.27A3.45,3.45,0,0,0,84.86,84.75Z"/><path class="cls-2" d="M58.83,77.87l0-.08A.2.2,0,0,0,58.83,77.87Z"/><path class="cls-2" d="M83.71,85.82a.45.45,0,0,0-.23.07.11.11,0,0,0,0,0Z"/><path class="cls-2" d="M64.11,61.91Z"/><path class="cls-2" d="M66.08,60.19c-.33.19-.06.25-.08.38-.36.27-.25,0-.43,0-.22.18-.31.44-.48.56s-.06,0,0-.06c-.15.3-.71.52-.86.87h-.07a.39.39,0,0,1,.2.17c-.12.11-.15.29-.28.23.08-.06.06-.1.07-.16l-.1.15c-.23,0,.14-.2.06-.3a3.7,3.7,0,0,1-.65.77c-.15-.09.42-.44.06-.33l.35-.21c-.41,0,.19-.15-.21-.18a10.07,10.07,0,0,0-.81.79c0,.16.12.07.11.22-.39.67-.72.15-.94.71,0,.18.13.36-.2.6l-.07-.23c-.33.4,0,.41-.39.75,0-.12.19-.35.13-.31-.34.19-.07.27-.23.48L61,65c-.26.49-.52,1-.76,1.6,0,0,0-.17-.14-.07a7.71,7.71,0,0,1-.53,1.08c-.18.37-.37.73-.55,1.06l0,.32c0,.06-.1.09-.11,0-.13.26.08,0,.1.19s-.14.18-.15.07a7.28,7.28,0,0,1-.35,2l0-.11c-.12.41.22.51,0,.87v-.07c-.15.89-.08,1.88-.25,2.58.21.12-.06.91.26.93a4.48,4.48,0,0,0-.14,1.13c0,.2.23.26.32.48l-.15,0,.23.28-.14.22.09.21c0-.09,0-.21.07-.2a1.39,1.39,0,0,1,0,.89l.4.75c-.07,0-.13-.13-.21-.22.3.37-.12.14.15.48,0-.07.09,0,.13,0a2,2,0,0,0,.36.94h-.13a12.56,12.56,0,0,0,1,1.75c-.08-.24.11-.29.22-.12l-.09.16c.15,0-.06-.22.18-.06s-.05.25-.19.16l.24.22s-.1,0-.16,0c.16,0,.19.54.44.59l0,0a9.25,9.25,0,0,0,1.07,1.19c.11-.09.23.1.42.15a10.12,10.12,0,0,0,.91,1c.31.18.15,0,.33,0-.06.11.34.41.08.32a5.8,5.8,0,0,0,1.31.8c0-.09-.11-.16,0-.17s.23.21.18.26h0c.79.31,1.55,1.3,2.29,1.33h0l.71.12c.3.14-.21,0,0,.19.78.09,1.15.38,1.79.43.18.26.63.3,1.08.36a6.5,6.5,0,0,1,1.24.21l0-.09c.18-.08.21.06.33.09s-.18-.09-.07-.13a24.81,24.81,0,0,0,4.46-.14c.54-.1.19-.51.9-.47l-.14.21a12.22,12.22,0,0,1,1.55-.62,7.94,7.94,0,0,0,1.45-.75c0,.07,0,.11-.11.16.26,0,.73-.42.69-.5.14-.07.07.06.19,0s.41-.41.57-.39,0,.08-.06.1c.09-.13.57-.39.38-.42.36-.18.59-.48.88-.62.06-.26.56-.4.47-.61.12.19.66-.32.74-.59,0,.11.2-.11.2,0,.2-.22.35-.44.23-.48.58-.2.51-.95,1-1a9.83,9.83,0,0,0,.59-1.1c.17-.37.38-.7.51-1.06.21.15-.4.74-.18.84a15.31,15.31,0,0,1,.68-1.76c.11-.16,0,.13,0,.21a12.13,12.13,0,0,0,.66-2,.36.36,0,0,1,0,.15c0-.13.11-.28,0-.3v.13c-.2.15-.16-.57-.24-.61.23.28.24-.59.51-.17,0-.08,0-.2-.09-.19s.11-.15.15,0c.07-.45-.1-.32,0-.72,0,0,.06.09.11.15a1.37,1.37,0,0,1,0-.79s.08,0,.06.1c.11-.6-.15-1,0-1.67.2.2.08-.22.27-.25a1.49,1.49,0,0,0,0-.36l-.09.15c0-.31-.15-.58-.09-.85l.08.23,0-.57-.06.32c-.11-.3-.24,0-.2-.36,0,.08,0-.3.08-.46h0a.84.84,0,0,1-.15-.52c.05-.07.21,0,.24,0-.17-.13-.12-.71-.33-.86,0,0,.15,0,.16,0l-.15-.1c0-.14,0-.17.1-.16-.08-.42-.2.18-.22-.33,0,0,0,0,.07.09a11.28,11.28,0,0,0-.4-1.39c.13-.18.18.38.28.18-.25-.64-.67-1.25-.92-1.84l0,.11c-.28,0-.08-.49-.34-.73.06.06.18,0,.14,0a6.84,6.84,0,0,0-.93-1.29l.1,0a7.55,7.55,0,0,0-.52-.83c-.1,0-.19-.17-.21,0a1.83,1.83,0,0,0-.74-1,3,3,0,0,1-.81-.87c.07.06.21.11.15.06l-.52-.41c0,.12,0,.11,0,.27a.73.73,0,0,1-.39-.2c.26.14.13-.15.06-.27,0,0-.06,0-.08.07-.14-.37-.19.15-.47-.24l.06,0a1.74,1.74,0,0,1-.47-.24c0-.16.18.06.26,0-.22-.16-.56-.12-.69-.35a2,2,0,0,1,.36.16c-.11-.29-.17-.26-.32-.39h0l-.34-.3.07.1c-.47.13-.59-.34-1.11-.32.49,0,.12-.08.22-.2-.08-.09-.21-.21-.15-.22-.25,0-.28-.25-.63-.23,0,0-.2-.11-.11-.2-.26-.09,0,.11,0,.16-.44,0-.86-.57-1.51-.58s-.68.08-1.17,0c-.14-.12.18-.13.18-.13a1.12,1.12,0,0,0-.7-.18c.06,0,0-.08,0-.15s-.16.15-.41,0a.71.71,0,0,1,.23-.16c-.24,0-.49.06-.74.06,0-.1.17-.11.26-.15-.28,0-.72,0-.82.1l.17.06c-.1,0,0-.12,0-.14.25-.06.33.11.34.16h-.18c.14.31.69.07,1,.15l-.18.17.39-.1c.06.07.08.19-.09.18.22.16.23,0,.41.15,0,0,0,0,0,0h.25c-.06,0,0,.15-.13.08.38.23.71,0,.82.23h0c.59.12.1-.13.59-.14l.15.46.11-.12c.06,0,.17.08.13.13.25,0,0-.08.15-.12.23.22.79.26.74.52.14,0-.22-.21.1-.14,0,.28.35.13.54.36-.14.08-.33-.1-.15.13.26-.13.45.28.66.37.1-.15.46.2.81.36,0,0,.53.5.77.77l0,0c.16-.09.45.14.66.3-.08.08-.14.07-.28,0,.07.05.12.11.19.17a.4.4,0,0,1,.29.12l-.14.06c.24.22.61.33.84.71.11-.07,0-.51.39-.22,0,.06-.11.15-.21.08s.13.07.16.15l-.2-.06c.09.18.14,0,.23.14-.07.06,0,.13,0,.17s-.06-.13-.13-.15a.9.9,0,0,1,.19.44s.1-.08.19,0,0,.16.07.33c.12,0,.18.23.3.15.06.08,0,.13,0,.19.16.1.49.64.5.39v0l0,0h0c.48.37.55,1.05.9,1.49l0,0c.22.27.35.66.55.84,0,.09,0,.25-.05.23.13.22.22.22.26.6-.17-.21,0,.11-.15-.22.07.33,0,.42.26.71-.16-.07-.07.29,0,.42v-.24a2.3,2.3,0,0,1,.16.46l-.19,0c0,.69.65,1.1.39,1.67.14.16,0-.38.19-.24a3.51,3.51,0,0,1-.16.76c0,.43.31.36.28.82.06-.06.21-.13.28.2s-.24.4-.29.21,0-.11,0-.11-.06-.23-.12-.1l.07,0c-.06.16,0,.58-.14.49.06.23.1.1.13-.08-.09.4,0,.62-.06,1,0-.06.11-.12.1-.06-.11.6.1.27.1.69-.11.22-.21-.11-.17.31-.07.25-.16,0-.2-.07.11.39-.17.68-.22.88V76a1,1,0,0,1,0,.31l.14-.09c0,.11-.06.2-.11.19s.21,0,.28.2c-.09.14,0,.48-.19.49.15-.46-.16,0-.11-.38a.62.62,0,0,1-.05.28s0,0,0,0c-.25.4.12.24,0,.7-.07-.08-.19.06-.2.14.06-.18.17-.05.19.14-.15.28,0,.34-.09.49l.08-.17c.07.09,0,.24,0,.45-.07,0,0-.2,0-.14.06.28-.35.45-.37.8-.11.12-.16,0-.24.06,0,.39-.28.31-.36.7.16,0,.14-.08.12.22l.22-.61,0,.44c.08-.18.12-.4.18-.5,0,.22,0,.19.12.15-.28.16-.14.52-.39.74l-.26-.14c-.31.35-.25.79-.64,1.26l.15-.13c0,.13-.19.32-.25.51-.08-.07-.17,0-.26,0,.06,0-.28.34-.15.5l-.27.13c-.34.35-.11.63-.47.94,0-.17-.18-.06,0-.34-.11.11-.22.2-.17.25s-.2.4-.36.44,0,.17-.09.29,0,0,0,0-.15.24,0,.21c-.59.08-1,1-1.52,1-.26.23-.57.5-.82.68,0,0,0,0,0-.06-.42.13-.08.37-.56.53-.29,0,.18-.21,0-.18-.23-.25-.48.35-.87.32l.07,0c-.28,0-.5.36-.88.51a0,0,0,0,0,0,0,2.67,2.67,0,0,1-1,.67c.07-.16.15-.12,0-.22-.16.08.12.18-.21.33-.13,0-.38,0-.46-.13l.31-.11c-.2-.11-.4.14-.58.14v-.08c-.48.14-.45.34-1,.45l.06,0c-.26.25-.26-.07-.54.12l-.12-.19a5.71,5.71,0,0,1-1,.36,4.93,4.93,0,0,1,.83-.41,1.75,1.75,0,0,0-.74.21c.07,0,.17-.09.25-.07a1.4,1.4,0,0,1-.93.28c0-.38-1,0-1.3-.4a3.18,3.18,0,0,1-1,0,8.7,8.7,0,0,0-1.09-.25c.22.34-.23,0-.24.27-.19,0-.26-.05-.27-.07l-.5-.32c-.1-.12.19,0,.19-.09-.38-.13-.13-.17-.36-.32,0,.12-.18.11-.39,0l.27.22c-.6,0-.38-.39-1-.43l.2,0a4.85,4.85,0,0,0-1.34-.3c0-.06,0-.16.07-.13-.61-.31-1.49-.51-1.86-.94l.08,0c-.12,0-.27,0-.36-.16s.09,0,0-.07a1.06,1.06,0,0,1-.46-.25l.17,0a2,2,0,0,0-.71-.46,3.44,3.44,0,0,1-.69-.39c.16-.16-.2-.56-.34-.79h0c-.5-.6-1-.88-1.51-1.44a4.22,4.22,0,0,0-.44-1A5.11,5.11,0,0,1,61,80.07c0,.12-.16.06-.23,0s-.34-.37-.15-.43l0,.06c.14-.2-.08-.49-.15-.75l-.26,0a2.56,2.56,0,0,0-.29-1.24c-.13-.41-.27-.78-.15-1a3.49,3.49,0,0,1-.22-.53h.14c0-.48-.07-.71-.14-1.3l.11.11c0-.33-.42-.39-.44-.71l.21-.1c-.06-.59.21-1.16.05-1.76a.14.14,0,0,1,.09.14c0-.28.29-1,0-1,.19,0,.11-.59.1-.92l.12.08a1,1,0,0,1-.09-.7c0-.08.12,0,.06.06.15-.27-.07-.26.1-.59l0,.15c.09-.29,0-.28,0-.47s.24-.54.37-.53a.42.42,0,0,1,0-.42s.06.07.06.1c.25-.44.17-.76.44-1a.1.1,0,0,0,.11,0,4.38,4.38,0,0,1-.34.61c.12.06.28-.22.33.08a2.21,2.21,0,0,1,.24-1l.05,0v0a.46.46,0,0,0,.08-.19,1.06,1.06,0,0,0,.17-.2c.11,0,.25-.28.34-.42-.13-.06,0-.23-.2-.13,0,0,0,0-.06.14a.14.14,0,0,0,0,.06h0l-.21.34a.44.44,0,0,1,.19-.4c0-.12-.06-.25-.07-.32.28-.09.6-.39.75-.35a4.72,4.72,0,0,0,.69-1.36c.07-.13.17-.07.23-.08s-.1.14-.1.2c.14-.25.55-.63.47-.81.31-.2,0,.26.3-.11v.09a2.13,2.13,0,0,0,.92-.91,2.07,2.07,0,0,1,1.1-.82c-.08,0-.11,0-.14,0,1.11-.52,2.14-1.44,3.4-1.56.34-.06.34-.19.51-.34l.12.12c.09-.09.2-.17.3-.26.48-.23.93.12,1.53-.19l-.1-.09c.23,0,.73-.16.7,0s.07-.11.16-.07l0,.08a2.81,2.81,0,0,1,.56-.18c.45,0,0,.31.59.31.23,0,.68-.26.59-.31s-.25,0-.26-.12L74,59c0-.23.23-.47-.35-.62l-.39.16-.13-.11.33,0c-.19-.1-.31,0-.44.07a.25.25,0,0,0-.17-.12l-.38.24c0-.09.16-.2-.1-.22s.19.18-.1.29c-.2-.08-.16-.18-.37-.06,0-.05,0-.1.09-.14-.19.1-.52.1-.6.24-.22-.11-.65.14-.67-.07a1.59,1.59,0,0,1-.48.3c.26-.34-.67.14-.66-.15-.18.27-.82.38-1.19.64,0,0,0-.07.08-.08a1.48,1.48,0,0,1-.5,0c0,.2-.28.4-.42.6-.35,0,.07-.29-.09-.42.08.14-.41.37-.26.44-.26,0-.2,0-.38-.06.07.24-.18.12-.28.36-.34.06-.18-.16-.46.09C65.84,60.43,66.08,60.19,66.08,60.19Zm-5.76,6.44h0l.07-.16Zm-.33.65.15-.28c.06,0,.09,0,0,.11S60.08,67.2,60,67.28Zm1.57-.84c0,.1-.09.11-.12.11l.09-.17v0Z"/><path class="cls-2" d="M61.5,66.18l0-.05-.06,0,0,.06Z"/><path class="cls-2" d="M85.76,65.48h0v0S85.77,65.47,85.76,65.48Z"/><polygon class="cls-2" points="58.57 77.09 58.61 77.08 58.56 77.02 58.57 77.09"/><path class="cls-2" d="M83.5,62.28a.07.07,0,0,0,0-.06S83.49,62.25,83.5,62.28Z"/><path class="cls-2" d="M82.15,61.23,82,61.06A1.31,1.31,0,0,0,82.15,61.23Z"/><path class="cls-2" d="M81.06,60.48l-.06,0h0Z"/><path class="cls-2" d="M88.41,78.6a.07.07,0,0,0,0,.05C88.39,78.77,88.41,78.69,88.41,78.6Z"/><path class="cls-2" d="M88.75,72.37l.09.19C88.83,72.45,88.83,72.36,88.75,72.37Z"/><polygon class="cls-2" points="84.89 84.72 84.89 84.72 84.86 84.75 84.89 84.72"/><path class="cls-2" d="M88.85,72.85a.69.69,0,0,0,0-.29A.71.71,0,0,0,88.85,72.85Z"/><path class="cls-2" d="M75.63,58.66l-.07,0s0,0,0,0Z"/><path class="cls-2" d="M75.55,58.66h-.07S75.54,58.68,75.55,58.66Z"/><path class="cls-2" d="M75.33,58.7l.15,0S75.37,58.66,75.33,58.7Z"/><path class="cls-2" d="M77.34,59l0,0Z"/><path class="cls-2" d="M77.86,59.17c-.12,0-.28-.19-.46-.2l0,0C77.47,59,77.72,59.22,77.86,59.17Z"/><path class="cls-2" d="M79.7,60.49l-.38-.2c.05.08.11.18-.07.12C79.68,60.76,79.19,60.26,79.7,60.49Z"/><path class="cls-2" d="M80.85,61.15c-.21-.08,0,.07-.06.1C80.94,61.27,81,61.28,80.85,61.15Z"/><path class="cls-2" d="M87.12,68.15l-.13,0C87.08,68.33,87,68.16,87.12,68.15Z"/><path class="cls-2" d="M88.37,69.69a1.62,1.62,0,0,0,0-.2l-.14,0A1.89,1.89,0,0,1,88.37,69.69Z"/><polygon class="cls-2" points="87.74 70.97 87.71 70.9 87.82 71.17 87.74 70.97"/><path class="cls-2" d="M82.66,85.1l.14.09C82.87,85.08,82.78,84.93,82.66,85.1Z"/><path class="cls-2" d="M76.54,88.09a.39.39,0,0,0-.39,0C76.3,88.09,76.47,88.13,76.54,88.09Z"/><polygon class="cls-2" points="60.3 78.56 60.39 78.67 60.27 78.44 60.3 78.56"/><path class="cls-2" d="M75.56,63.19a.08.08,0,0,0,.06.14l.1-.15Z"/><path class="cls-2" d="M76.14,63.63c.12-.05.29-.16.25-.32-.15.13-.16.06-.32.21-.1,0-.15-.08-.13-.14s-.14-.07-.21,0a.35.35,0,0,0,.44.13S76.15,63.6,76.14,63.63Z"/><path class="cls-2" d="M83,69.4v-.06A.13.13,0,0,0,83,69.4Z"/><path class="cls-2" d="M83.84,74.89s0-.06,0-.06S83.82,74.9,83.84,74.89Z"/><path class="cls-2" d="M83.52,75.81l0-.06S83.51,75.79,83.52,75.81Z"/><path class="cls-2" d="M83,69.4l0,.16C83,69.55,83,69.47,83,69.4Z"/><path class="cls-2" d="M77.51,63.62a.2.2,0,0,0-.1,0h.09Z"/><path class="cls-2" d="M81.52,67.4l0,0h-.07Z"/><path class="cls-2" d="M80.17,66.08s.13-.06.18-.1-.1,0-.13,0A.19.19,0,0,0,80.17,66.08Z"/><path class="cls-2" d="M77.72,64.32h0Z"/><path class="cls-2" d="M82.28,68.51l0,0Z"/><path class="cls-2" d="M73.21,62.72v0S73.23,62.72,73.21,62.72Z"/><polygon class="cls-2" points="75.5 63.55 75.47 63.56 75.44 63.63 75.5 63.55"/><path class="cls-2" d="M82.88,77.39Z"/><path class="cls-2" d="M70,83c.12.19-.32,0-.13.27C69.91,83.25,70.22,83.21,70,83Z"/><path class="cls-2" d="M77.56,63.66l.07,0Z"/><path class="cls-2" d="M69.91,83.31h0l0,0Z"/><path class="cls-2" d="M80.86,80.71l.07,0A.1.1,0,0,0,80.86,80.71Z"/><path class="cls-2" d="M82.73,78.43l0,.06Z"/><path class="cls-2" d="M79.84,81.87s-.07,0-.1.06h0S79.79,81.88,79.84,81.87Z"/><polygon class="cls-2" points="78.48 82.74 78.52 82.75 78.56 82.72 78.48 82.74"/><path class="cls-2" d="M68.11,64.32a.33.33,0,0,1,.13.07C68.16,64.32,68.37,64.14,68.11,64.32Z"/><path class="cls-2" d="M77.49,63.7s0-.05.07,0l-.06,0A.07.07,0,0,0,77.49,63.7Z"/><path class="cls-2" d="M80.45,82.8l-.24.16Z"/><path class="cls-2" d="M62.75,75.08l0-.06A.14.14,0,0,0,62.75,75.08Z"/><path class="cls-2" d="M79.51,83.43a.54.54,0,0,0-.18,0s0,0,0,0Z"/><path class="cls-2" d="M68.24,64.39Z"/><path class="cls-2" d="M69.78,63.3c-.26.09,0,.21-.07.33-.27.17-.19-.07-.33-.12-.17.12-.24.34-.37.4s-.05,0,0-.07c-.12.23-.56.29-.68.57l-.05,0a.49.49,0,0,1,.16.2c-.1.06-.12.21-.22.13.06,0,0-.08,0-.13l-.08.11c-.18-.09.11-.14,0-.25-.18.18-.34.45-.52.51-.13-.12.33-.28,0-.27l.28-.11c-.33-.1.16-.07-.16-.21-.35.17-.33.3-.66.49,0,.12.1.09.09.22-.31.46-.6-.07-.77.35,0,.15.11.34-.17.45l-.06-.21c-.28.24,0,.35-.33.52,0-.1.16-.25.11-.22-.29.06,0,.2-.19.33l-.15-.09A12.42,12.42,0,0,0,65,67.29c0-.05,0-.14-.13-.09a4.09,4.09,0,0,1-.49.71c-.17.23-.36.46-.54.67l0,.24s-.1.05-.1,0c-.14.17.08.06.09.17s-.14.11-.15,0a3.11,3.11,0,0,1-.43,1.36l0-.08c-.15.27.18.41,0,.63v-.06a15.09,15.09,0,0,1-.5,1.79c.2.11-.17.63.14.69a2.33,2.33,0,0,0-.31.78c0,.14.19.2.24.37l-.16,0,.18.22-.17.14,0,.16c0-.07.06-.15.1-.14a.73.73,0,0,1-.11.64l.24.57c-.07,0-.11-.1-.16-.17.21.29-.15.09.05.35,0,0,.09,0,.12,0a1.17,1.17,0,0,0,.14.72L63,77a8.18,8.18,0,0,0,.53,1.35c0-.19.16-.22.23-.09l-.13.12c.13,0,0-.17.19,0s-.12.19-.21.11l.15.18s-.08,0-.15,0c.14,0,0,.43.26.47l0,0a6.51,6.51,0,0,0,.64,1c.12-.07.18.08.34.12a4.46,4.46,0,0,0,.49.86c.22.15.14,0,.28,0-.09.1.17.35,0,.28a3.54,3.54,0,0,0,.87.67c0-.07,0-.13,0-.14s.13.18.08.22h0c.55.26.88,1.18,1.45,1.22h0l.51.13c.19.13-.17,0-.06.17.57.09.77.4,1.23.47.19.47,1.17.4,1.57.71v-.09c.14-.06.14.08.22.12s-.11-.11,0-.14a23.19,23.19,0,0,0,3.18.45c.4,0,.18-.47.68-.3l-.11.17a5.63,5.63,0,0,1,1.16-.29,4.49,4.49,0,0,0,1.1-.39s0,.1-.08.12c.19.06.56-.21.52-.3.12,0,.06.07.15.09s.32-.29.45-.22,0,.06,0,.08.45-.22.29-.29c.29-.08.47-.3.7-.35,0-.21.45-.2.38-.41.1.2.53-.11.6-.32,0,.09.16,0,.16.08.17-.13.29-.28.19-.35.49,0,.42-.66.82-.55.37-.5.66-1,1-1.46.18.16-.35.49-.16.62.29-.45.27-.83.62-1.21.1-.09,0,.11,0,.17a7,7,0,0,0,.65-1.32s0,.07,0,.12.12-.18,0-.22v.1c-.19.06-.13-.46-.2-.51.21.26.25-.38.5,0,0-.06,0-.15-.08-.16s.1-.09.14,0c.08-.31-.08-.25,0-.53,0,0,0,.08.09.13a.69.69,0,0,1,0-.56s.07,0,.05.07c.13-.41-.07-.76.13-1.18.18.17.1-.14.29-.13a1.11,1.11,0,0,0,0-.26l-.1.08c0-.22-.08-.42,0-.6l.06.17V74.8l-.1.22c-.07-.23-.24,0-.15-.28,0,.06,0-.21.14-.32h0a.43.43,0,0,1-.07-.37c.06,0,.2,0,.24,0-.15-.11,0-.51-.2-.64a.16.16,0,0,0,.16,0l-.14-.08c0-.1,0-.12.13-.1,0-.31-.23.11-.15-.26,0,0,0,0,0,.07,0-.36-.13-.68-.14-1,.17-.13.1.28.23.14-.11-.48-.39-.94-.49-1.38v.08c-.27,0,0-.36-.16-.55,0,.05.17,0,.13,0a3.47,3.47,0,0,0-.55-1l.08,0a6.62,6.62,0,0,0-.25-.65c-.09,0-.13-.12-.19,0,0-.74-.77-.9-.85-1.51,0,0,.14.09.11,0L82,66.94c-.07.11,0,.1,0,.23a.41.41,0,0,1-.28-.16c.19.11.15-.13.13-.23s-.07,0-.09.06c0-.31-.2.13-.32-.2l0,0c-.1-.07-.24-.09-.32-.2s.14,0,.22,0c-.14-.13-.43-.09-.47-.3a1.48,1.48,0,0,1,.25.14c0-.25-.07-.23-.15-.34h0l-.2-.26,0,.08c-.41.12-.39-.28-.8-.28.38,0,.12-.07.23-.17,0-.08-.11-.2-.06-.21-.2,0-.15-.23-.43-.2,0,0-.13-.1,0-.19-.18-.08,0,.1,0,.14-.34,0-.52-.54-1-.56s-.52,0-.86,0c-.07-.12.16-.12.16-.12a.63.63,0,0,0-.47-.2s0-.08,0-.14-.15.13-.31,0a.48.48,0,0,1,.2-.14c-.17,0-.36,0-.54,0,0-.09.14-.09.22-.12-.21,0-.51-.09-.61,0l.11.07c-.07,0,0-.12,0-.13a.15.15,0,0,1,.21.17h-.12c0,.32.48.11.71.21l-.17.16.3-.08c0,.07,0,.19-.1.18.13.15.17,0,.27.15s0,0,0,0h.18c-.05,0,0,.14-.12.07.23.24.51.06.55.25h0c.41.13.1-.12.47-.12V65l.11-.11s.11.08.06.12c.2,0,0-.07.15-.11.11.22.53.26.43.49.12,0-.12-.19.11-.13-.09.25.24.12.33.33-.13.07-.23-.09-.15.12.23-.12.27.25.41.32.12-.13.31.17.55.3,0,0,.29.43.41.66h0c.16-.08.33.12.47.24a.2.2,0,0,1-.25,0l.11.14a.29.29,0,0,1,.22.09l-.14.06c.15.17.43.26.52.56.12,0,.16-.41.41-.18,0,0-.14.12-.21.07s.1.05.1.11l-.16,0c0,.15.12,0,.17.11s0,.1-.09.13,0-.1-.07-.11a.49.49,0,0,1,0,.35.12.12,0,0,1,.18,0c.13.19-.06.13,0,.27s.09.17.22.1,0,.11,0,.15.27.49.35.3v0h0c.33.29.25.8.46,1.14h-.05c.14.2.18.49.34.63s0,.18-.11.16c.08.17.16.17.12.45-.12-.16-.06.07-.1-.17,0,.24-.06.3.11.52-.14-.06-.12.2-.06.3l.06-.17a1.32,1.32,0,0,1,.05.33l-.17,0c-.16.47.43.81.09,1.19.12.12.09-.26.22-.15,0,.22-.27.44-.27.51-.1.28.25.28.16.59.07,0,.23-.06.26.18s-.28.24-.31.1,0-.08,0-.07,0-.17-.1-.09l.05,0c-.07.1-.1.39-.19.31,0,.17.09.08.14,0-.13.26,0,.43-.17.69,0,0,.12-.06.11,0-.17.4.07.2,0,.49s-.2-.11-.19.19-.16,0-.19-.08c.07.28-.21.44-.27.57v-.14a.59.59,0,0,1,0,.2l.13,0c0,.07-.06.13-.11.11s.21,0,.26.2,0,.34-.21.31c.17-.3-.15,0-.09-.3a.38.38,0,0,1-.06.19s0,0,0,0c-.26.24.11.2,0,.51a.12.12,0,0,0-.19,0c0-.12.16,0,.17.15-.15.16,0,.23-.1.33l.08-.1c.06.08,0,.17,0,.31-.06,0,0-.14,0-.1.05.22-.33.25-.36.5-.1.06-.14-.08-.22,0,0,.29-.25.17-.33.44.15,0,.13,0,.12.2l.19-.41,0,.33c.08-.12.11-.28.17-.34,0,.17,0,.14.11.14-.26.06-.13.37-.36.48l-.23-.18c-.28.18-.22.54-.56.81l.13-.07c0,.12-.16.21-.21.34-.07-.07-.15,0-.23,0s-.22.2-.11.37l-.23,0c-.28.19-.08.49-.37.66,0-.14-.15-.11,0-.3-.09.07-.17.11-.13.17s-.16.29-.29.27,0,.16-.07.23,0,0,0,0-.12.16,0,.19c-.47-.08-.78.56-1.19.44a5,5,0,0,1-.63.4s0,0,0-.05c-.31,0-.06.33-.42.36s.14-.14,0-.16c-.17-.29-.37.2-.65.09l0,0c-.2,0-.37.24-.65.29,0,0,0,0,0,0-.14.23-.5.33-.77.43.06-.14.11-.09,0-.21-.12,0,.07.2-.17.28-.09,0-.28-.08-.32-.22a1.85,1.85,0,0,0,.23,0c-.14-.15-.29,0-.42,0v-.08c-.35,0-.34.25-.72.27l0,0c-.21.21-.18-.11-.39,0l-.06-.2a3.88,3.88,0,0,1-.75.21,3,3,0,0,1,.63-.29c-.14,0-.46,0-.54.1s.13-.07.18,0a.78.78,0,0,1-.68.16c.1-.37-.7-.17-.83-.53a1.56,1.56,0,0,1-.7-.13,3.79,3.79,0,0,0-.71-.3c.08.34-.16,0-.23.25-.13,0-.17-.06-.18-.08L69.62,83c0-.12.14,0,.16-.08-.25-.13,0-.16-.19-.31,0,.11-.15.1-.28,0l.15.22c-.44,0-.19-.38-.6-.43l.15,0c-.2,0-.63-.36-.92-.28,0,0,0-.15.08-.12-.37-.28-1-.44-1.2-.81l.08,0c-.08-.05-.22,0-.24-.14s.08,0,0-.06-.26-.08-.31-.2l.13,0c-.25-.4-.64-.39-.93-.68.18-.14,0-.46-.07-.64h0c-.27-.47-.65-.67-.95-1.1,0-.38-.35-1-.37-1.55,0,.09-.17,0-.22,0s-.24-.28,0-.31v0c.17-.14,0-.35,0-.54l-.26,0a1.22,1.22,0,0,0,0-.88c-.07-.3-.14-.57,0-.71-.08-.12-.07-.27-.13-.39h.14a6.17,6.17,0,0,0,.05-.9l.09.09c0-.23-.37-.33-.36-.55l.22,0c0-.41.33-.76.22-1.2,0,0,.09,0,.08.11,0-.19.34-.66,0-.68.19,0,.15-.39.15-.64l.12.09c-.09-.24-.14-.26-.07-.52,0,0,.12,0,0,0,.16-.16,0-.2.12-.4l0,.12c.1-.19,0-.19,0-.34s.24-.34.36-.31a.26.26,0,0,1,0-.31s.06.07.06.1c.24-.27.16-.54.41-.67a.08.08,0,0,0,.09,0l-.3.39c.11.06.25-.1.3.14,0-.2,0-.57.21-.72h0v0a.2.2,0,0,0,.06-.12.61.61,0,0,0,.15-.12c.1,0,.21-.15.29-.24-.11-.08,0-.18-.17-.15,0,0,0,0-.05.09l0,0h0l-.18.22a.27.27,0,0,1,.17-.27A2.75,2.75,0,0,1,66,67c.25,0,.53-.14.65-.08.2-.29.53-.61.55-.93.06-.09.14,0,.2,0s-.09.1-.09.15c.12-.18.45-.38.38-.56.25-.09,0,.22.24,0v.07a1.1,1.1,0,0,0,.71-.55,1,1,0,0,1,.84-.45s-.08,0-.1,0c.83-.19,1.62-.81,2.52-.69.24,0,.25-.11.38-.23l.07.14.23-.19c.36-.14.65.29,1.09.07l-.06-.1c.16,0,.52-.06.49.06s0-.1.12,0v.08a2.75,2.75,0,0,1,.41-.11c.3.1-.08.31.36.38.16,0,.5-.17.45-.23s-.16-.07-.16-.15l.16,0c.07-.23.24-.45-.14-.66L75,63l-.08-.12.24,0c-.12-.12-.22,0-.32,0a.22.22,0,0,0-.11-.14l-.29.19c0-.09.14-.17,0-.23-.14.1.11.21-.11.27-.12-.11-.08-.19-.24-.1s0-.1.07-.13c-.14.07-.37,0-.45.15-.14-.14-.47,0-.47-.18a.77.77,0,0,1-.37.21c.22-.28-.48,0-.45-.26-.15.24-.62.21-.91.39,0,0,0-.06.07-.05a1.22,1.22,0,0,1-.37-.07c0,.19-.23.31-.33.47-.26-.12.06-.26,0-.42,0,.15-.32.26-.21.37-.19-.07-.15,0-.29-.15,0,.24-.13.08-.21.27-.26,0-.14-.19-.36,0C69.59,63.47,69.78,63.3,69.78,63.3Zm-4.71,4h0l.07-.11Zm-.3.42a1.41,1.41,0,0,0,.14-.18.06.06,0,0,1,0,.1S64.85,67.7,64.77,67.74Zm1.41-.24c0,.07-.07.07-.1.06l.07-.11v0A.21.21,0,0,1,66.18,67.5Z"/><path class="cls-2" d="M66.13,67.28a0,0,0,0,1,0,0h0v0Z"/><path class="cls-2" d="M83,69.33h0a0,0,0,0,1,0,0A0,0,0,0,0,83,69.33Z"/><polygon class="cls-2" points="62.64 74.5 62.67 74.5 62.64 74.45 62.64 74.5"/><path class="cls-2" d="M81.84,66.78a0,0,0,0,0,0,0Z"/><path class="cls-2" d="M81,65.89l-.1-.15A1.28,1.28,0,0,0,81,65.89Z"/><path class="cls-2" d="M80.33,65.23a.1.1,0,0,0,0,0h0Z"/><path class="cls-2" d="M83.59,78.8a0,0,0,0,1,0,0C83.57,78.92,83.59,78.87,83.59,78.8Z"/><path class="cls-2" d="M84.42,74.42l.06.15C84.49,74.49,84.5,74.43,84.42,74.42Z"/><polygon class="cls-2" points="80.47 82.78 80.47 82.78 80.45 82.8 80.47 82.78"/><path class="cls-2" d="M84.45,74.77a.29.29,0,0,0,0-.2A.46.46,0,0,0,84.45,74.77Z"/><path class="cls-2" d="M76.71,63.34l0,0v0Z"/><path class="cls-2" d="M76.66,63.34h0S76.65,63.36,76.66,63.34Z"/><path class="cls-2" d="M76.49,63.36h.12A.13.13,0,0,0,76.49,63.36Z"/><path class="cls-2" d="M77.87,63.82l0,0S77.88,63.8,77.87,63.82Z"/><path class="cls-2" d="M78.23,64c-.08-.05-.17-.19-.3-.22l0,0C78,63.73,78.11,64,78.23,64Z"/><path class="cls-2" d="M79.28,65.24c-.07-.07-.15-.12-.23-.19,0,.08,0,.17-.09.12C79.2,65.49,79,65,79.28,65.24Z"/><path class="cls-2" d="M80,65.84c-.14-.07,0,.06-.07.08S80.06,66,80,65.84Z"/><path class="cls-2" d="M83.58,71.33l-.13,0C83.5,71.46,83.5,71.34,83.58,71.33Z"/><path class="cls-2" d="M84.48,72.5a.84.84,0,0,0,.06-.14l-.12,0Z"/><polygon class="cls-2" points="83.64 73.35 83.61 73.3 83.68 73.49 83.64 73.35"/><path class="cls-2" d="M78.67,82.5l.11.12C78.84,82.55,78.77,82.39,78.67,82.5Z"/><path class="cls-2" d="M74.17,84a.2.2,0,0,0-.28,0C74,83.93,74.11,84,74.17,84Z"/><polygon class="cls-2" points="64.05 75.66 64.12 75.74 64.05 75.58 64.05 75.66"/><text class="cls-3" transform="matrix(0.21, -0.98, 0.98, 0.21, 125.74, 89.46)">I</text><text class="cls-3" transform="translate(127.58 79.8) rotate(-86.69)">:</text><text class="cls-3" transform="translate(127.95 72.94) rotate(-94.8)"> </text><text class="cls-3" transform="translate(127.58 62.49) rotate(-112.4)">M</text><text class="cls-3" transform="translate(118.16 42.48) rotate(-130.92)">e</text><text class="cls-3" transform="matrix(-0.87, -0.5, 0.5, -0.87, 109.01, 31.69)">m</text><text class="cls-3" transform="matrix(-0.98, -0.17, 0.17, -0.98, 89.01, 21.52)">o</text><text class="cls-3" transform="matrix(-1, 0.06, -0.06, -1, 75.03, 19.49)">r</text><text class="cls-3" transform="translate(63.01 20.41) rotate(162.94)">y</text><path class="cls-4" d="M79.79,71.56a6.48,6.48,0,1,1-12.24,4.22l-23.48-.86a2.33,2.33,0,0,1-2.25-2.42h0a2.34,2.34,0,0,1,2.42-2.25l23.63.87a5.85,5.85,0,0,1,.7-1.17,6.48,6.48,0,0,1,9.08-1.26A6.32,6.32,0,0,1,79.79,71.56Z"/></g></g></g></svg>