<svg xmlns="http://www.w3.org/2000/svg" viewBox="0 0 145.54 145.55"><defs><style>.cls-1,.cls-2,.cls-4{stroke:#d3d3d3;stroke-linecap:round;stroke-linejoin:round;}.cls-2{fill:#d3d3d3;}.cls-2,.cls-4{stroke-width:0.5px;}.cls-3{fill:#d9d9d9;}.cls-4{fill:none;}</style></defs><g id="Layer_2" data-name="Layer 2"><g id="industrialization_graphic" data-name="industrialization graphic"><g id="Layer_23" data-name="Layer 23"><path class="cls-1" d="M122.09,27.17c.54.59,1.07,1.18,1.59,1.78l4.17-3q1.43,1.66,2.71,3.39l-3.82,3.41c.48.64.94,1.29,1.39,1.94l4.46-2.51c.83,1.19,1.6,2.42,2.33,3.65l-4.16,3c.4.69.8,1.38,1.18,2.08l4.7-2c.68,1.29,1.32,2.58,1.92,3.89l-4.45,2.5c.33.73.64,1.46.95,2.2L139.92,46c.54,1.34,1,2.7,1.49,4.07l-4.67,2c.25.76.49,1.52.71,2.29l5-.94c.39,1.39.73,2.8,1,4.22l-4.82,1.46c.17.78.33,1.57.46,2.36l5-.39c.23,1.42.42,2.86.57,4.3l-4.92.93c.08.79.15,1.6.2,2.4l5,.15c.08,1.44.12,2.89.1,4.33l-4.95.39c0,.81,0,1.61-.07,2.42l4.92.68c-.08,1.45-.19,2.89-.36,4.33l-5-.15q-.13,1.2-.33,2.4l4.81,1.2c-.23,1.44-.5,2.85-.82,4.26L138.37,88c-.17.79-.37,1.57-.58,2.35l4.64,1.72c-.38,1.39-.81,2.78-1.28,4.15L136.37,95c-.27.77-.54,1.53-.84,2.29l4.41,2.19c-.53,1.34-1.11,2.66-1.72,4l-4.6-1.7c-.35.73-.71,1.46-1.08,2.18l4.11,2.65c-.67,1.27-1.39,2.53-2.15,3.76l-4.35-2.17c-.42.69-.86,1.38-1.32,2.06l3.78,3q-1.2,1.78-2.54,3.51L126,114.22c-.5.65-1,1.29-1.54,1.92l3.41,3.42c-.93,1.09-1.9,2.17-2.91,3.22l-3.74-3c-.57.59-1.15,1.17-1.74,1.73l3,3.76c-1.06,1-2.14,2-3.24,2.89l-3.39-3.41c-.63.53-1.26,1-1.91,1.54l2.57,4q-1.72,1.33-3.52,2.53l-3-3.76c-.68.46-1.37.9-2.07,1.33l2.13,4.3q-1.86,1.13-3.78,2.13l-2.57-4.05c-.73.38-1.47.75-2.21,1.09l1.64,4.51c-1.31.61-2.65,1.17-4,1.69L97,135.8c-.77.3-1.53.58-2.31.85l1.13,4.63c-1.37.47-2.75.88-4.14,1.26l-1.63-4.46c-.79.21-1.59.4-2.39.58l.62,4.71c-1.41.31-2.83.57-4.26.8l-1.12-4.59c-.82.12-1.63.23-2.46.33l.12,4.72c-1.44.16-2.88.27-4.33.34l-.62-4.68c-.82,0-1.64.06-2.47.06l-.39,4.7c-1.45,0-2.9,0-4.34-.13l-.11-4.71c-.82-.06-1.64-.12-2.46-.21L65,144.63c-1.44-.15-2.87-.35-4.3-.59l.4-4.72c-.8-.14-1.61-.3-2.42-.47l-1.41,4.52c-1.41-.3-2.81-.66-4.2-1.05l.91-4.66c-.8-.23-1.59-.47-2.37-.73l-1.88,4.35c-1.37-.45-2.73-.95-4.07-1.49l1.42-4.54c-.77-.31-1.53-.64-2.28-1l-2.34,4.13c-1.31-.61-2.6-1.25-3.88-1.94l1.89-4.36c-.72-.39-1.44-.8-2.15-1.22l-2.78,3.85c-1.23-.74-2.45-1.52-3.64-2.35l2.34-4.13c-.67-.47-1.34-1-2-1.45L29,130.33q-1.72-1.31-3.37-2.73l2.78-3.85c-.62-.54-1.22-1.09-1.83-1.66l-3.54,3.17c-.48-.45-.95-.91-1.42-1.38s-1.1-1.12-1.64-1.7l3.2-3.54c-.56-.6-1.1-1.22-1.64-1.84l-3.89,2.78c-.94-1.1-1.85-2.23-2.71-3.38l3.58-3.2c-.48-.66-1-1.33-1.42-2L13,113.36c-.82-1.2-1.6-2.43-2.33-3.66l3.93-2.81c-.41-.71-.81-1.42-1.2-2.14l-4.45,1.9c-.68-1.28-1.32-2.58-1.91-3.89l4.23-2.38c-.34-.74-.65-1.49-1-2.25L5.62,99.54c-.54-1.34-1-2.7-1.48-4.07l4.47-1.91c-.25-.77-.48-1.55-.7-2.33l-4.79.9c-.38-1.39-.73-2.8-1-4.21L6.76,86.5c-.17-.8-.32-1.59-.45-2.39l-4.86.37c-.24-1.42-.43-2.86-.58-4.3l4.81-.91c-.08-.8-.14-1.61-.19-2.43L.61,76.7C.52,75.26.49,73.82.5,72.37L5.39,72c0-.81,0-1.62.09-2.42L.6,68.88q.12-2.17.36-4.32l4.94.14c.1-.8.22-1.6.35-2.4L1.44,61.1c.23-1.43.51-2.85.83-4.26l4.94.69c.18-.79.38-1.56.59-2.34L3.12,53.45c.37-1.39.8-2.77,1.27-4.15l4.87,1.23c.26-.76.55-1.52.84-2.26L5.61,46c.52-1.34,1.1-2.66,1.72-4l4.72,1.75c.35-.73.7-1.44,1.08-2.15L8.89,38.92c.68-1.27,1.39-2.53,2.15-3.76l4.52,2.25c.42-.69.85-1.36,1.3-2l-3.93-3.17q1.2-1.78,2.54-3.51l4.26,2.74c.49-.64,1-1.26,1.52-1.87L17.68,26q1.38-1.64,2.9-3.22l4,3.2c.56-.57,1.12-1.13,1.7-1.69l-3.18-4q1.59-1.5,3.25-2.88l3.59,3.62c.61-.52,1.24-1,1.87-1.49L29,15.24c1.15-.89,2.33-1.72,3.52-2.53l3.21,4c.66-.44,1.34-.87,2-1.28l-2.28-4.61q1.86-1.12,3.78-2.13L42,13.07c.71-.37,1.42-.71,2.14-1.05L42.4,7.17c1.32-.61,2.65-1.18,4-1.7l2.28,4.63c.74-.28,1.48-.55,2.23-.81l-1.23-5c1.37-.46,2.75-.88,4.15-1.26L55.6,7.87c.76-.2,1.53-.39,2.3-.57l-.68-5.12c1.41-.31,2.83-.57,4.26-.8l1.24,5c.78-.12,1.56-.23,2.35-.31L64.94.93C66.38.76,67.82.65,69.27.59L70,5.7c.79,0,1.58,0,2.37,0L72.75.5c1.45,0,2.9,0,4.34.14l.13,5.16c.79,0,1.58.12,2.36.21l1-5.09c1.44.15,2.87.35,4.3.59l-.44,5.17c.78.14,1.55.29,2.33.46l1.54-5c1.41.3,2.82.66,4.21,1l-1,5.11c.77.22,1.52.45,2.27.7l2.06-4.77c1.37.45,2.73,1,4.07,1.49l-1.54,5c.73.3,1.46.61,2.18.94l2.57-4.51c1.3.6,2.6,1.24,3.87,1.93l-2.06,4.75c.7.38,1.39.77,2.07,1.18l3-4.2q1.84,1.11,3.65,2.35l-2.56,4.49c.66.45,1.3.92,1.93,1.39l3.46-3.83q1.71,1.3,3.36,2.73l-3,4.17c.61.52,1.19,1.05,1.77,1.59l3.83-3.42c.48.45,1,.91,1.42,1.38s1.11,1.12,1.64,1.7Z"/><circle class="cls-2" cx="72.74" cy="73" r="6.29" transform="translate(-19.35 26.75) rotate(-18.43)"/><path class="cls-3" d="M71.47,58.59s0,.14.12.12l.08-.17Z"/><path class="cls-3" d="M72.36,58.87c.15-.09.33-.24.22-.38-.15.16-.19.1-.34.29-.13,0-.23,0-.21-.11s-.21,0-.27.08a.58.58,0,0,0,.61,0S72.37,58.84,72.36,58.87Z"/><path class="cls-3" d="M83.3,64l0-.07Z"/><path class="cls-3" d="M86.36,70.88c0-.06,0-.08,0-.08S86.35,70.89,86.36,70.88Z"/><path class="cls-3" d="M86.32,72.18v-.07S86.31,72.17,86.32,72.18Z"/><path class="cls-3" d="M83.3,64l.1.18S83.36,64.07,83.3,64Z"/><path class="cls-3" d="M74.13,58.52l-.12,0h.12Z"/><path class="cls-3" d="M80.74,61.82l0,0-.08,0Z"/><path class="cls-3" d="M78.51,60.55s.13-.09.18-.14a.16.16,0,0,1-.16,0A.31.31,0,0,0,78.51,60.55Z"/><path class="cls-3" d="M74.66,59.16h0Z"/><path class="cls-3" d="M82.13,63a.11.11,0,0,0,0,.05A.07.07,0,0,0,82.13,63Z"/><path class="cls-3" d="M68.31,58.9v0S68.33,58.89,68.31,58.9Z"/><path class="cls-3" d="M71.5,59l0,0a.21.21,0,0,0,0,.08Z"/><path class="cls-3" d="M86.1,74.51h0C86.09,74.44,86.09,74.47,86.1,74.51Z"/><path class="cls-3" d="M71,86.44c.23.16-.41.09-.06.29C71,86.67,71.33,86.57,71,86.44Z"/><path class="cls-3" d="M74.2,58.54h0Z"/><path class="cls-3" d="M71,86.73h0l0,0Z"/><path class="cls-3" d="M84.54,79.6a.15.15,0,0,0,.09,0Z"/><path class="cls-3" d="M86.16,75.91l0,.1A.93.93,0,0,0,86.16,75.91Z"/><path class="cls-3" d="M83.54,81.45a.22.22,0,0,0-.1.11h0A.11.11,0,0,1,83.54,81.45Z"/><polygon class="cls-3" points="82.06 83.06 82.11 83.06 82.15 83 82.06 83.06"/><path class="cls-3" d="M62.28,62.65a.42.42,0,0,1,.16,0C62.34,62.62,62.55,62.34,62.28,62.65Z"/><path class="cls-3" d="M74.13,58.6a.13.13,0,0,1,.07-.06h-.07S74.11,58.59,74.13,58.6Z"/><path class="cls-3" d="M84.35,82.21l-.24.28C84.18,82.42,84.27,82.31,84.35,82.21Z"/><path class="cls-3" d="M59,78.29,59,78.21A.22.22,0,0,0,59,78.29Z"/><path class="cls-3" d="M83.37,83.33a.67.67,0,0,0-.21.09.13.13,0,0,0,0,.06Z"/><path class="cls-3" d="M62.44,62.66Z"/><path class="cls-3" d="M64.12,60.83c-.29.21,0,.24,0,.37-.31.3-.24,0-.41,0-.19.2-.24.45-.39.58s-.07,0-.06,0c-.11.3-.62.56-.73.91a.06.06,0,0,1-.06,0,.38.38,0,0,1,.21.15c-.1.11-.11.29-.23.25.06-.07,0-.11,0-.17l-.08.16c-.22,0,.11-.21,0-.3a3.47,3.47,0,0,1-.53.8c-.16-.08.35-.46,0-.32l.31-.24c-.39,0,.18-.16-.22-.16-.38.35-.34.47-.69.84,0,.15.13,0,.14.2-.3.67-.69.2-.83.76,0,.17.17.34-.12.59L60.38,65c-.28.41.08.38-.3.75,0-.11.15-.36.09-.31-.3.21,0,.26-.16.48l-.17,0c-.2.49-.38,1-.56,1.59,0,0-.05-.16-.14,0a6.31,6.31,0,0,1-.4,1.07c-.13.37-.28.73-.42,1.06l.07.29c0,.06-.08.1-.1,0-.1.26.09,0,.12.18s-.11.18-.14.08A6,6,0,0,1,58.14,72l0-.1c-.09.39.27.46.11.82l0-.07c-.06.86.11,1.79,0,2.47.22.09,0,.86.35.85a4,4,0,0,0,0,1.09c0,.19.26.21.36.42l-.14,0,.25.24-.12.22.11.19c0-.08,0-.2.05-.2a1.24,1.24,0,0,1,.13.84l.46.67c-.07,0-.14-.1-.22-.18.32.32-.11.14.18.44,0-.07.1,0,.13,0a1.83,1.83,0,0,0,.43.86H60a10.5,10.5,0,0,0,1.12,1.56c-.1-.22.08-.29.21-.14l-.09.16c.16,0-.07-.2.18-.07s0,.24-.17.17l.24.19s-.09,0-.15,0c.16,0,.23.5.48.52l0,0a9.09,9.09,0,0,0,1.12,1c.1-.1.24.07.43.09a8.52,8.52,0,0,0,1,.91c.31.13.14,0,.32,0-.06.12.36.36.1.3a5.08,5.08,0,0,0,1.32.62c0-.08-.11-.14,0-.16s.24.18.19.23h0c.78.21,1.58,1.1,2.29,1h0l.69,0c.29.1-.2,0,0,.18.74,0,1.12.24,1.73.22.2.24.62.24,1.06.25a5.58,5.58,0,0,1,1.2.07l0-.09c.16-.09.2,0,.32.06s-.18-.07-.08-.12a25.74,25.74,0,0,0,4.21-.56c.5-.15.12-.53.8-.55l-.11.22a9.88,9.88,0,0,1,1.4-.74,7.79,7.79,0,0,0,1.31-.86c0,.06,0,.11-.09.16.25,0,.65-.47.59-.54.14-.09.09,0,.19,0s.35-.44.51-.42,0,.07-.05.1c.07-.14.5-.43.31-.44.33-.21.51-.52.78-.68,0-.25.49-.43.37-.62.15.17.6-.37.65-.64,0,.11.18-.12.2,0,.16-.22.28-.45.16-.48.55-.23.38-1,.83-1a9,9,0,0,0,.44-1.1c.12-.37.29-.7.37-1,.22.11-.3.74-.08.81a15.26,15.26,0,0,1,.46-1.74c.09-.15.06.13.07.2a11.39,11.39,0,0,0,.42-1.91s0,.07,0,.14c0-.12.08-.28,0-.28v.12c-.17.16-.22-.53-.3-.56.26.25.17-.58.49-.21,0-.08,0-.18-.11-.17s.08-.15.14,0c0-.44-.13-.3-.1-.69,0,0,.07.09.12.14a1.23,1.23,0,0,1-.1-.74s.07,0,.06.08c0-.57-.25-1-.17-1.58.22.17.06-.21.24-.26a2,2,0,0,0-.08-.33l-.07.14c0-.29-.21-.53-.19-.78l.11.2L87,70.55l0,.32c-.13-.27-.23.07-.23-.32,0,.07,0-.28,0-.45h0a.81.81,0,0,1-.19-.47c0-.07.21,0,.24,0-.19-.1-.19-.66-.41-.78a.13.13,0,0,0,.16,0l-.16-.08c0-.14,0-.16.09-.16-.12-.39-.18.19-.25-.29,0,0,0,0,.08.07a11.22,11.22,0,0,0-.52-1.27c.12-.19.21.34.29.14-.3-.58-.76-1.11-1.06-1.65l0,.11c-.27.07-.12-.47-.4-.66.07,0,.18,0,.15,0a5.83,5.83,0,0,0-1-1.12h.1a9.07,9.07,0,0,0-.57-.73c-.1,0-.19-.14-.2,0-.32-.87-1.26-1-1.65-1.63.07.05.2.08.15,0l-.54-.34c0,.13,0,.11.07.26a.67.67,0,0,1-.39-.14c.26.1.11-.16,0-.28,0,0-.06.05-.07.09-.17-.35-.18.16-.48-.19l0,0a2.11,2.11,0,0,1-.47-.19c0-.15.18,0,.25,0-.22-.12-.54,0-.69-.25a1.89,1.89,0,0,1,.36.11c-.13-.27-.19-.24-.34-.35l0,0L79.09,60l.08.09c-.44.18-.6-.26-1.09-.18.47-.06.11-.09.2-.22-.09-.08-.23-.18-.17-.2-.23,0-.28-.22-.61-.15,0,0-.21-.08-.12-.18-.27-.06,0,.1,0,.15-.43,0-.87-.45-1.49-.39s-.64.15-1.1.15c-.15-.1.15-.15.15-.15a1.06,1.06,0,0,0-.67-.1s0-.08-.06-.14-.15.17-.39.08a.72.72,0,0,1,.2-.18c-.23,0-.46.1-.69.13-.06-.09.15-.12.23-.17-.27,0-.69,0-.77.18l.17,0c-.1,0,0-.12,0-.14.23-.09.33.06.34.11l-.17,0c.16.3.66,0,1,0L74,59l.36-.15c.06.06.1.18-.07.19.23.13.22,0,.4.1,0,0,0,0,0,0l.24,0c-.06,0,0,.16-.12.1.38.19.68,0,.8.14h0c.57.05.09-.14.55-.21l.18.44.1-.13s.16.06.12.11c.24,0,0-.07.14-.13.24.19.77.16.75.42.13-.07-.23-.18.08-.15,0,.28.35.09.55.29-.13.1-.33,0-.13.15.23-.16.45.22.65.28.09-.16.45.14.81.25,0,0,.54.43.79.67l0,0c.15-.12.44.08.66.21-.07.08-.13.09-.27,0l.19.14a.37.37,0,0,1,.29.08l-.13.07c.25.19.62.25.86.59.11-.08,0-.5.37-.26,0,.06-.1.16-.2.1s.14,0,.17.13l-.2,0c.1.16.13,0,.24.1-.07.07,0,.13,0,.17s-.07-.12-.13-.13a.76.76,0,0,1,.21.41.12.12,0,0,1,.19,0c.24.21,0,.16.1.32.11,0,.19.2.3.1.06.07,0,.13,0,.19.15.08.52.55.51.31l0,0,0,0h0c.49.29.62.94,1,1.32l0,0c.23.22.39.58.61.72,0,.09,0,.24,0,.23.15.2.24.19.31.55-.18-.19,0,.11-.16-.2.09.3,0,.4.31.65-.16-.05,0,.28.06.4v-.24a2.19,2.19,0,0,1,.19.42H85.3c0,.66.74,1,.54,1.54.15.13,0-.36.16-.25a3.23,3.23,0,0,1-.09.74c0,.41.34.31.36.74,0-.06.2-.15.3.16s-.2.4-.27.23,0-.11,0-.11-.08-.21-.13-.08l.07,0c0,.16,0,.56-.09.48.09.21.11.08.12-.09-.05.39.1.58,0,1,0-.07.1-.13.1-.07-.05.58.12.25.16.64-.08.22-.22-.08-.13.31s-.15.05-.2,0c.14.35-.11.65-.13.85l0-.19a.72.72,0,0,1,0,.29l.13-.1c0,.11,0,.2-.08.2s.2-.08.29.16c-.07.14,0,.45-.13.48.1-.45-.16,0-.16-.35a.52.52,0,0,1,0,.27s0,0,0,0c-.21.41.14.22.07.66-.08-.07-.19.08-.18.15,0-.17.16-.06.2.12-.12.28,0,.32,0,.47l.06-.16c.08.07,0,.22,0,.42-.07,0,0-.19,0-.12.09.25-.29.45-.27.78-.09.13-.16,0-.23.08,0,.37-.24.32-.27.69.15,0,.13-.08.15.2l.13-.6,0,.43c.06-.18.07-.39.12-.49,0,.21,0,.18.14.13-.26.18-.09.5-.3.74l-.28-.11c-.26.36-.14.77-.47,1.25l.13-.14c.07.12-.14.32-.18.51-.08-.06-.16,0-.25.06.06,0-.23.35-.09.5l-.24.15c-.29.35,0,.6-.34.94,0-.17-.18,0-.06-.33-.09.12-.19.21-.13.25-.11,0-.15.41-.3.46s.06.16,0,.29,0,0,0,0-.12.25.06.21c-.55.12-.84,1-1.34,1-.22.23-.49.52-.71.72,0,0,0,0,0-.07-.38.17,0,.38-.47.57-.28,0,.15-.21,0-.18-.25-.23-.42.38-.79.38l0,0c-.26,0-.43.4-.77.58,0,0,0,0,0-.05a2.45,2.45,0,0,1-.91.75c.06-.16.13-.13,0-.22-.14.09.13.17-.16.35-.13,0-.37,0-.45-.09a2.44,2.44,0,0,0,.28-.14c-.21-.09-.37.17-.54.19v-.08c-.44.18-.38.37-.88.53l.07,0c-.21.28-.26,0-.5.17l-.13-.17a5.65,5.65,0,0,1-.92.45,5.58,5.58,0,0,1,.74-.49,1.62,1.62,0,0,0-.68.28c.07,0,.15-.1.23-.09a1.27,1.27,0,0,1-.85.37c0-.39-1,0-1.26-.27a2.87,2.87,0,0,1-1,.06,8.14,8.14,0,0,0-1-.13c.24.31-.22,0-.2.3-.18,0-.25,0-.26,0l-.5-.27c-.11-.1.17,0,.17-.11-.38-.08-.14-.15-.37-.27,0,.12-.16.13-.37.06l.28.18c-.57.08-.4-.34-1-.31l.19-.05a4.26,4.26,0,0,0-1.3-.15s-.07-.15.06-.13A6.44,6.44,0,0,1,66.33,85l.08,0c-.12,0-.26,0-.35-.11s.08,0,0-.08a.87.87,0,0,1-.46-.18h.16c-.5-.41-1-.34-1.41-.65.14-.18-.23-.52-.39-.72l0,0c-.53-.52-1.06-.72-1.58-1.2-.12-.46-.85-1.2-1.1-1.86,0,.11-.15.08-.23,0s-.36-.31-.18-.39l0,.05c.11-.2-.12-.45-.21-.69l-.25.08A2.4,2.4,0,0,0,60.11,78c-.18-.37-.34-.71-.24-.93a2.82,2.82,0,0,1-.27-.48l.13,0a10.21,10.21,0,0,0-.25-1.22l.11.1c0-.31-.45-.33-.5-.63l.2-.11c-.11-.55.09-1.12-.13-1.66a.13.13,0,0,1,.11.11c0-.26.17-1-.13-.91.19,0,0-.57,0-.89l.13.07a.93.93,0,0,1-.17-.65c0-.08.12-.06.07,0,.11-.27-.1-.24,0-.57l.07.14c.06-.28,0-.27-.06-.45s.18-.53.31-.53a.38.38,0,0,1,0-.4c.05,0,.06.06.07.09.2-.44.08-.73.32-1a.09.09,0,0,0,.09,0,4.65,4.65,0,0,1-.25.62c.12,0,.25-.24.33,0a2.12,2.12,0,0,1,.11-1l.06,0v0a.32.32,0,0,0,0-.19,1.21,1.21,0,0,0,.14-.2c.12,0,.21-.3.28-.43-.13,0,0-.22-.2-.11,0,0,0,0,0,.13a.25.25,0,0,0,0,.07v0l-.16.35a.41.41,0,0,1,.14-.4c0-.11-.09-.23-.11-.3.27-.1.55-.42.69-.4a4.2,4.2,0,0,0,.51-1.35c.05-.13.15-.08.22-.1s-.09.15-.08.2c.1-.25.46-.65.35-.81.28-.22,0,.25.29-.13v.08a2,2,0,0,0,.77-.95,1.87,1.87,0,0,1,.95-.88c-.06,0-.1.05-.13,0,1-.59,1.87-1.58,3.05-1.81.32-.09.3-.21.45-.38l.12.11.26-.28c.43-.27.9,0,1.43-.32l-.1-.08c.22,0,.67-.23.66-.11s0-.12.14-.08l0,.07a3.82,3.82,0,0,1,.51-.23c.43,0,0,.32.59.25.22-.06.61-.32.53-.36s-.24,0-.26-.09l.21-.07c0-.24.17-.5-.39-.59l-.36.19-.13-.09.31-.05c-.19-.08-.29,0-.41.11a.24.24,0,0,0-.18-.1l-.33.27c-.06-.08.13-.21-.12-.21s.2.16-.06.3c-.2-.07-.17-.16-.35,0,0,0,0-.1.07-.15-.17.12-.49.15-.55.29-.22-.09-.6.2-.65,0a1.17,1.17,0,0,1-.42.34c.21-.35-.61.2-.64-.09-.14.29-.74.45-1.06.74,0,0,0-.08.08-.08a2,2,0,0,1-.48.07c.07.19-.22.41-.33.62-.34,0,0-.29-.13-.4.09.13-.36.39-.2.45-.25,0-.19,0-.38,0,.1.23-.16.14-.22.38-.32.08-.19-.14-.43.12C63.92,61.08,64.12,60.83,64.12,60.83ZM59.33,67.5h0l.06-.16Zm-.25.65.11-.28a.06.06,0,0,1,.07.1S59.16,68.06,59.08,68.15Zm1.44-.93c0,.1-.07.12-.1.12l.07-.17v0A.16.16,0,0,1,60.52,67.22Z"/><path class="cls-3" d="M60.44,67a.08.08,0,0,1,0,0l-.06,0,0,0Z"/><path class="cls-3" d="M83.25,63.9v0Z"/><polygon class="cls-3" points="58.7 77.57 58.74 77.56 58.69 77.51 58.7 77.57"/><path class="cls-3" d="M80.82,61.08l0,0S80.8,61.06,80.82,61.08Z"/><path class="cls-3" d="M79.43,60.22l-.18-.14A.89.89,0,0,0,79.43,60.22Z"/><path class="cls-3" d="M78.33,59.62a.12.12,0,0,0,0,.05h0Z"/><path class="cls-3" d="M87.09,76v0C87.09,76.2,87.1,76.12,87.09,76Z"/><path class="cls-3" d="M86.77,70.1a1.63,1.63,0,0,1,.11.17C86.87,70.17,86.85,70.09,86.77,70.1Z"/><polygon class="cls-3" points="84.38 82.17 84.38 82.17 84.35 82.21 84.38 82.17"/><path class="cls-3" d="M86.92,70.55a.61.61,0,0,0,0-.28A1.35,1.35,0,0,0,86.92,70.55Z"/><path class="cls-3" d="M73,58.44H73v0Z"/><path class="cls-3" d="M72.94,58.45l-.07,0S72.93,58.47,72.94,58.45Z"/><path class="cls-3" d="M72.73,58.51l.14,0C72.82,58.47,72.76,58.47,72.73,58.51Z"/><path class="cls-3" d="M74.67,58.64l0,0S74.68,58.61,74.67,58.64Z"/><path class="cls-3" d="M75.17,58.7a1.58,1.58,0,0,0-.45-.15l0,0C74.79,58.53,75.05,58.77,75.17,58.7Z"/><path class="cls-3" d="M77,59.79l-.38-.14c0,.07.12.16-.06.12C77,60.06,76.53,59.63,77,59.79Z"/><path class="cls-3" d="M78.19,60.31c-.22-.05,0,.08,0,.1C78.28,60.42,78.32,60.42,78.19,60.31Z"/><path class="cls-3" d="M84.79,66.29l-.12,0C84.77,66.46,84.72,66.31,84.79,66.29Z"/><path class="cls-3" d="M86.16,67.6a1.21,1.21,0,0,0,0-.19l-.14,0A2.53,2.53,0,0,1,86.16,67.6Z"/><polygon class="cls-3" points="85.65 68.89 85.61 68.83 85.74 69.07 85.65 68.89"/><path class="cls-3" d="M82.26,82.71l.15.08C82.46,82.69,82.35,82.55,82.26,82.71Z"/><path class="cls-3" d="M76.79,86.15a.34.34,0,0,0-.37,0C76.57,86.17,76.73,86.2,76.79,86.15Z"/><polygon class="cls-3" points="60.54 78.76 60.64 78.86 60.5 78.66 60.54 78.76"/><circle class="cls-4" cx="72.74" cy="73" r="10.36"/></g></g></g></svg>