<svg xmlns="http://www.w3.org/2000/svg" viewBox="0 0 193.48 193.92"><defs><style>.cls-1{fill:none;}.cls-1,.cls-2{stroke:#d3d3d3;stroke-linecap:round;stroke-linejoin:round;stroke-width:0.5px;}.cls-2{fill:#d3d3d3;}.cls-3{fill:#d9d9d9;}</style></defs><g id="Layer_2" data-name="Layer 2"><g id="industrialization_graphic" data-name="industrialization graphic"><g id="TOP"><path class="cls-1" d="M69.05,44.76l-9.2,28.52a1.27,1.27,0,0,1-2.12.49L48.8,64.46a1.27,1.27,0,0,0-2.15,1.14l6.29,29.31a1.27,1.27,0,0,1-1.59,1.48L39,92.79a1.26,1.26,0,0,0-1.29,2.06l20.1,22.24a1.27,1.27,0,0,1-.64,2.08l-12.52,3.07a1.27,1.27,0,0,0-.09,2.44l28.52,9.21a1.26,1.26,0,0,1,.49,2.11l-9.31,8.93a1.27,1.27,0,0,0,1.14,2.15l29.31-6.29a1.26,1.26,0,0,1,1.48,1.59l-3.6,12.38a1.27,1.27,0,0,0,2.07,1.29L116.86,136a1.26,1.26,0,0,1,2.08.63L122,149.11a1.26,1.26,0,0,0,2.43.09l9.21-28.52a1.26,1.26,0,0,1,2.11-.49l8.93,9.31a1.27,1.27,0,0,0,2.15-1.14l-6.29-29.31a1.26,1.26,0,0,1,1.59-1.48l12.38,3.6a1.27,1.27,0,0,0,1.3-2.07l-20.1-22.23a1.27,1.27,0,0,1,.64-2.08l12.52-3.08a1.26,1.26,0,0,0,.08-2.43l-28.52-9.21A1.26,1.26,0,0,1,120,58L129.27,49a1.27,1.27,0,0,0-1.14-2.15L98.82,53.17a1.27,1.27,0,0,1-1.48-1.59l3.6-12.38a1.26,1.26,0,0,0-2.06-1.29L76.64,58a1.27,1.27,0,0,1-2.08-.63L71.49,44.84A1.27,1.27,0,0,0,69.05,44.76Z"/><path class="cls-1" d="M156.38,22.87a11.45,11.45,0,0,1,0,16.19,11.79,11.79,0,0,1-4.51,2.73l-1.05.22L142,43.92,98.71,53.19a1.19,1.19,0,0,1-1.4-1.5L100,42.61l21.41-10.78L130,27.47l14.56-7.33C148.45,18.32,153.19,19.68,156.38,22.87Z"/><circle class="cls-1" cx="146.91" cy="30.17" r="4.92"/><path class="cls-1" d="M130,27.47l-8.66,4.36a69.6,69.6,0,1,0,35,101.46,3.67,3.67,0,0,1,4.9-1.29h0a3.7,3.7,0,0,1,1.37,5.19A77,77,0,1,1,130,27.47Z"/><circle class="cls-2" cx="96.91" cy="97.02" r="13.4" transform="translate(-40 89.3) rotate(-41.8)"/><path class="cls-3" d="M146.33,14.06c-.29-.12-.19,0,.57.5l.61.19Z"/><path class="cls-3" d="M151.14,17.52c.89.52,2,1.09,1.49.58-.93-.46-1.1-.65-2.11-1.13-.74-.46-1.26-.87-1.1-.84-.29-.13-1.14-.76-1.59-.92a33.59,33.59,0,0,0,3.43,2.25C151.5,17.68,151.22,17.53,151.14,17.52Z"/><path class="cls-3" d="M192.57,89.24l0-.55C192.54,88.84,192.55,89,192.57,89.24Z"/><path class="cls-3" d="M182.35,140.52a2.1,2.1,0,0,0,.23-.54A3.83,3.83,0,0,0,182.35,140.52Z"/><path class="cls-3" d="M177.72,148.27l.29-.44A3,3,0,0,0,177.72,148.27Z"/><path class="cls-3" d="M192.57,89.24l.06,1.42A8.35,8.35,0,0,0,192.57,89.24Z"/><path class="cls-3" d="M160.74,24.46l-.61-.48.56.47Z"/><path class="cls-3" d="M187.74,66.46l-.13-.41c-.06-.11-.12-.22-.18-.31Z"/><path class="cls-3" d="M180.48,50.13a1.3,1.3,0,0,0,.51.52,4.11,4.11,0,0,1-.51-.73S180.45,50,180.48,50.13Z"/><path class="cls-3" d="M163.33,27.6l-.38-.33Z"/><path class="cls-3" d="M191,78.85a.65.65,0,0,0,0,.17S191,79,191,78.85Z"/><path class="cls-3" d="M127.46,5.08s0,0,0,0S127.59,5.12,127.46,5.08Z"/><path class="cls-3" d="M146.14,14.38l-.25-.13a.15.15,0,0,0-.1,0Z"/><path class="cls-3" d="M167.62,161.29l0,0C167.94,160.9,167.78,161.09,167.62,161.29Z"/><path class="cls-3" d="M31.67,167c1.16,1.28-2.13-1.81-.36.08C31.18,166.83,33.16,168.5,31.67,167Z"/><path class="cls-3" d="M161.08,24.78l.56.48Z"/><path class="cls-3" d="M31.31,167h0l.19.19Z"/><path class="cls-3" d="M137.26,183.71a2.42,2.42,0,0,0,.38-.1A1.16,1.16,0,0,0,137.26,183.71Z"/><path class="cls-3" d="M161,168.34l-.55.44Z"/><path class="cls-3" d="M123.55,189a9.67,9.67,0,0,0-1,.27l.15,0A5.23,5.23,0,0,1,123.55,189Z"/><path class="cls-3" d="M108.55,192.11h.28l.48-.07Z"/><path class="cls-3" d="M81,1.54a4.31,4.31,0,0,1,.73,0C81.43,1.48,83.67,1.05,81,1.54Z"/><path class="cls-3" d="M160.7,24.52a1.69,1.69,0,0,1,.38.26l-.39-.33C160.64,24.43,160.62,24.44,160.7,24.52Z"/><path class="cls-3" d="M123.25,190.27l-2.37.65Z"/><path class="cls-3" d="M3.3,72.39l.13-.55A4.21,4.21,0,0,0,3.3,72.39Z"/><path class="cls-3" d="M113.73,192.45c-.44,0-.91.09-1.38.15a2.34,2.34,0,0,0-.28.09Z"/><path class="cls-3" d="M81.69,1.54Z"/><path class="cls-3" d="M97.82,0c-2.35,0-1.1.16-1.6.26C93.43.41,94.92.17,94,.11s-1.65.13-2.36.2-1.37.2-2,.24c-.1,0-.35,0-.06-.07C87.7.72,84.08,1,82,1.54a1.18,1.18,0,0,1-.28,0c.36,0,.43.11.37.19a13.91,13.91,0,0,1-2.31.41,4.42,4.42,0,0,0,1-.26l-1.07.25c-1,0,1.46-.33,1.44-.45l-3.26.69c-1.06.27-2.06.53-2.87.69-.37-.09,3.74-.91,1.57-.57.82-.18,1.66-.32,2.5-.44-2,.08,1.53-.25-.29-.22a34.45,34.45,0,0,0-3.47.76c-.9.24-1.82.42-3.43.87-.7.29.27.06-.43.36-1.13.36-1.93.57-2.54.71s-1,.25-1.41.33a12.45,12.45,0,0,0-3,.91A14.58,14.58,0,0,1,61,7.3l.72-.48C58.71,8,60.13,7.76,57,9c.52-.32,2.3-1.09,1.85-.91a19.82,19.82,0,0,0-2.93,1.41H55.5A99.67,99.67,0,0,0,45.87,15c.15-.16.68-.55-.1-.12-2.05,1.28-4.15,2.77-6.26,4.21s-4.09,3-5.86,4.54l-1.26,1.27c-.32.27-.61.47-.3.14-1.36,1.21,0,.14-.6.78-.75.71-1,.87-.61.39-2.34,2.2-6.2,6.67-8.49,9.15l.4-.53c-1.73,2-1.61,2.51-3.23,4.33l.27-.39A130.8,130.8,0,0,0,11,52.44a22.69,22.69,0,0,1-1.36,2.88,8.66,8.66,0,0,0-1.05,2.62,49.08,49.08,0,0,0-2.86,6.29c-.46,1.14-.42,1.79-.87,3.23H4.71l-.48,2c-.17.33-.32.67-.48,1l-.32,1.39a3.26,3.26,0,0,1,.39-1c-.25,1.08-.62,2.37-.94,3.41A17.78,17.78,0,0,1,2.32,76l-.49,2.58c-.16.86-.25,1.73-.38,2.59a15.06,15.06,0,0,1,.15-1.68c-.3,2.79-.24.47-.51,3,.09-.33.06.2.08.26a21.8,21.8,0,0,0-.44,2.81C.61,86.78.42,88,.39,89.12l-.08-.43c-.11,2-.32,4-.29,6.11C0,95.86,0,96.93,0,98l.12,3.26c0-1.57.2-1.21.25.06l-.14.52c.13.82,0-1.34.2.35s-.11,1.11-.24.17l.22,2c0,.12-.11-.34-.18-.46.18.8.08,3.44.45,4.58l0,.12L1,111.46c.13.84.29,1.6.42,2.33.27,1.46.53,2.82,1,4.55a16.63,16.63,0,0,1,.78,2.41c.32,1.26.66,2.6,1,4s.86,2.83,1.35,4.32c.8,2.07.33.57.75,1.48-.06.19,1.08,3.12.41,1.63.66,1.77,1.18,2.87,1.73,4.08l.92,2c.38.73.83,1.59,1.39,2.64-.19-.48-.43-1-.26-.76a6.61,6.61,0,0,1,.73,1.7l-.12-.2c1.33,2.33,2.77,5.07,4.31,7.6.72,1.29,1.55,2.48,2.3,3.59.38.55.75,1.08,1.11,1.58s.75.93,1.1,1.33l-.16-.18c1,1.12,1.84,2.31,2.87,3.38,1.3,1.56-.87-.87.05.33.82.87,1.53,1.67,2.18,2.42l1.92,2a46.6,46.6,0,0,0,3.87,3.8c.24.3.54.64.9,1s.79.74,1.24,1.15c.92.8,1.94,1.75,3.07,2.61l3.35,2.57c1.11.78,2.13,1.52,2.94,2.17l-.15-.21A19.82,19.82,0,0,1,43.68,178c-.06-.12-.94-.69-.35-.37a129,129,0,0,0,12,6.82,93.5,93.5,0,0,0,13,5.25,9.77,9.77,0,0,0,2.7.6,15.1,15.1,0,0,1,3.32.82L73.13,191a96.86,96.86,0,0,0,20.39,2.75,4.09,4.09,0,0,1-1.06,0,24,24,0,0,0,3.13.11,11.94,11.94,0,0,0,2.1-.1c1,0,.24.09.89.11,1.41,0,3.54-.24,4.29-.2.13,0-.39.08-.65.1.92-.12,4.28-.33,3.39-.39a34.24,34.24,0,0,0,3.56-.4c1.12-.17,2.19-.27,3.18-.43,1.25-.39,4.24-.65,4.59-1-.14.25,4.33-.76,5.81-1.36-.5.21,1.34-.3.77,0,1.75-.46,3.3-1.06,3-1.06,3.26-.74,6.21-2.45,8.07-2.85a101.88,101.88,0,0,0,13.33-7.18,10.35,10.35,0,0,1-2.25,1.51,9.15,9.15,0,0,0-2,1.3l2.7-1.6,2.29-1.54c1.52-1,3-2,4.83-3.32,1-.64-.49.46-.79.72,1.88-1.3,3.58-2.72,5.29-4l2.41-2.07c.4-.34.78-.69,1.17-1l1.1-1.07s-.3.34-.59.64c.58-.56,1.38-1.26,1.24-1.27l-.55.55c-1,.77,2.11-2.4,2.14-2.56-.73,1.19,2.83-2.84,1.6-1,.35-.39.78-.9.64-.86.56-.55.76-.7.27-.08a14.28,14.28,0,0,0,1.5-1.78c.26-.34.49-.66,1.35-1.64a6.94,6.94,0,0,1-.43.69c.78-1.06,1.6-2.1,3-3.82-.05.12.13-.05-.27.46a50.18,50.18,0,0,0,3-4.18c.92-1.38,1.87-2.78,3-4.52-.47,1.15.81-1.15,1.08-1.24.39-.63.75-1.28,1.09-1.94l-.52.73c.95-1.71,1.72-3.25,2.52-4.71q-.27.67-.6,1.32c.59-1.07,1.08-2.19,1.62-3.27l-1,1.81c.79-1.8-.3.09.89-2.21-.22.48.9-1.72,1.36-2.63h0a33.86,33.86,0,0,1,1.28-3.14c.21-.32.08.36.21.15.2-.94,1.61-4.27,1.81-5.47-.08.39,0,.44.06.33l.13-.8c.31-.85.37-1,.4-.81.85-2.57-.49.75.59-2.28-.07.24,0,.13-.15.64,1-3.08,1.59-6,2.24-8.93.36-.82-.5,2.55-.14,1.6a109.66,109.66,0,0,0,1.76-12.9l-.07.77c-.23-.59.35-3.07.32-5.17,0,.52.12.68.1.54,0-1.42,0-2.87,0-4.51s-.15-3.45-.33-5.59l.11.53c-.09-1.67-.26-4.4-.52-6.19-.14-.53-.26-1.55-.28-.92-.36-5.59-2.05-10.41-3.15-15.22.16.57.44,1.34.31.88-.37-1.35-.88-2.66-1.33-4a8.22,8.22,0,0,0,.3,1.41c-.23-.48-.65-1.59-1-2.58.65,1.77.19-.09-.05-.87,0,.14-.12-.11-.13,0-.6-2.12-.35-.26-1.3-3.11l.11.13c-.41-1-1-1.94-1.4-3.06-.08-.51.53,1.07.67,1.1-.71-1.55-1.56-3-2.15-4.4.35.63.82,1.56,1.13,2.21a18,18,0,0,0-1.22-2.87l0,.11c-.42-.87-.81-1.75-1.24-2.6a6.8,6.8,0,0,1,.3.67,24.2,24.2,0,0,1-1.77-2.82c-.29-.51-.58-1.05-.91-1.6s-.74-1.1-1.16-1.68c1.66,2.25.35.33.59.43-.35-.64-.91-1.61-.7-1.37a17.7,17.7,0,0,1-1-1.58A17.56,17.56,0,0,0,176,41.63c0-.1-.83-1.19-.56-1-1-1.43.17.39,0,.3a85.74,85.74,0,0,0-6.43-8c-1.16-1.23-1.92-1.89-2.62-2.56l-1.1-1L163.91,28c-.71-.79.75.47.75.47a36.25,36.25,0,0,0-3.34-3.15c.28.18.05-.06-.29-.42a22.64,22.64,0,0,1-2-1.6c.25.15.59.33,1.1.69l-1.78-1.42-1.88-1.35c-.27-.33.83.48,1.3.78a34.79,34.79,0,0,0-4.2-2.94l.9.69c-.53-.37-.2-.29.2,0a6.16,6.16,0,0,1,1.72,1.48l-.9-.67a13.76,13.76,0,0,0,2.28,1.89c1,.75,2.1,1.63,2.95,2.37l-.85-.46,1.86,1.38c.33.37.5.67-.35,0,1.13,1.15,1.09.93,2,2,.1.12,0,.08-.07,0l1.18,1c-.25-.19.08.28-.59-.41l2.45,2.45a13.37,13.37,0,0,1,1.46,1.57l-.17-.16c2.67,2.86.37.16,2.44,2.27l1,1.74.37.2c.25.31.73,1,.59.88,1,1.12-.11-.25.5.38.54.82,1.39,1.85,2.07,2.79a9.5,9.5,0,0,1,1.23,2c.49.51-1-1.57.26.08a4.87,4.87,0,0,0,.87,1.4A21.49,21.49,0,0,1,178.34,46c-.4-.39-1.23-1.85-.39-.29a10.86,10.86,0,0,1,1.28,1.93c.45.8.85,1.69,1.25,2.32a7.74,7.74,0,0,1,1.06,1.66c.54,1,1.14,2.28,1.73,3.38-.08-.13,1.93,4.32,2.7,6.52l-.05,0a25.16,25.16,0,0,1,1.78,4.26c-.13,0-.26-.32-.62-1.2.19.52.35,1,.53,1.56a16.68,16.68,0,0,1,.72,1.84l-.26-.35c.18.52.36,1,.55,1.57l.5,1.64a34.43,34.43,0,0,1,1,3.73c.16.13-.16-2.28.59.62,0,.12-.13.26-.33-.5.06.25.26.88.34,1.39l-.38-1.14c.24,1.27.25.63.47,1.64-.11,0,.1.76,0,.63s-.16-.88-.29-1.26a18.35,18.35,0,0,1,.48,3c0-.11.13,0,.3.81.39,2.15,0,.76.19,2,.18.51.28,1.91.43,1.92a3.88,3.88,0,0,1,0,1c.1.56.3,1.87.41,2.88s.18,1.74.21,1.1l0-.3,0,.19h0c.11.92.2,1.87.28,2.82s0,1.93.08,2.89c.07,1.93,0,3.86,0,5.71h0c0,1.1-.08,2.33-.12,3.47s-.09,2.22-.15,3-.26,1.52-.29,1.24a26.05,26.05,0,0,1-.56,4.27,8.38,8.38,0,0,1,.22-1.73c-.4,2.16-.53,2.63-.81,5,0-.8-.5,1.58-.68,2.6l.41-1.48c-.23,1.15-.46,2.15-.69,3.16l0-.59c-1.25,4.28-1.78,7.89-3.29,11-.3,1.15.94-2.24.69-1.21-.75,1.92-1.72,3.85-2,4.44-1.22,2.54-.78,2.53-2.1,5.17.22-.31.52-.57-.41,1.44-.94,1.84-1.35,2.15-.81,1,.21-.45.33-.65.34-.62.28-.61.65-1.4.23-.7l-.07.27c-.25.44-.7,1.3-1.05,2s-.66,1.11-.54.8c-.71,1.38-.24.63.36-.36-1.4,2.24-2,3.63-3.5,5.88.26-.35.53-.65.3-.29a19,19,0,0,0-1.42,2.31,5.84,5.84,0,0,1-.9,1.51c-1,1.2.14-.58-1.36,1.69-1,1.32-.33.2,0-.37-.34.52-.67,1-1,1.48s-.7.87-1,1.26l-1.69,2,.76-1c-.46.63-.84,1.14-1.26,1.64.2-.16.37-.34.56-.51a5.66,5.66,0,0,1-.95,1c-.46.65.55-.33-.4.92a23.74,23.74,0,0,1-2.35,2.54c2.18-2.35-.34.17,1.42-1.89-.33.41-.74.9-1.26,1.46-.1.07.05-.1.18-.27-2.21,2.13-.84,1.14-3,3.44.22-.35-.63.42-1,.77.93-.87.55-.31-.26.54-1.53,1.36-1.58,1.57-2.36,2.3l.91-.82a15.79,15.79,0,0,1-2.07,2c-.13,0,1-.87.55-.57-1.12,1.14-2.78,2.25-4.49,3.64-.85.58-.18-.07-.91.45-1.87,1.62-2.23,1.48-4.29,3.06.68-.33.78-.43-.66.71l3.45-2.51L151.3,176c1-.75,2.2-1.6,2.81-2.07-1,.87-.91.74-.34.48-1.56.85-2.79,2.12-4.58,3.12l-.11-.28c-1.33.75-2.44,1.53-3.7,2.31s-2.6,1.63-4.39,2.48c.38-.18.78-.33,1.16-.54-.41.37-2.19,1.12-3.32,1.75.06-.14-.67.19-1.19.37.09,0-2.66,1.17-2.92,1.5-.56.19-1.11.41-1.68.57-3,1.1-3.31,1.63-6.27,2.54.85-.39-.5,0,1.44-.74a11.08,11.08,0,0,0-1.86.67c-.3.06-1,.33-1.68.58a17.79,17.79,0,0,1-2,.55,7.76,7.76,0,0,1-1.63.6c-.13,0,0,0,0,0s-1.75.51-.73.38c-3.16.45-8.7,1.92-11.51,1.89-1.11.17-2.34.34-3.55.43s-2.4.24-3.42.29c.13,0,0,0,.39-.06-2.82,0-1.72.36-4.94.33-.82-.09-.39-.11.11-.11s1.08,0,.57,0a8,8,0,0,0-2.37-.14,24.22,24.22,0,0,1-3.65-.13h.52c-1.64-.23-4-.08-6.71-.46,0,0,.14,0,0,0a28.59,28.59,0,0,1-3.68-.32c-1.41-.21-2.93-.37-4.2-.66.81.05,1.16.18.71,0-1.14-.22.29.28-2-.17a15,15,0,0,1-2.53-.84c.7.19,1.42.31,2.14.47a13.38,13.38,0,0,0-1.92-.49c-.7-.17-1.4-.31-2-.48l.16,0c-3.25-.82-3.33-.72-6.77-1.82l.34.17c-1.94-.44-1.52-.67-3.42-1.21l-.48-.39L61,186l-1.64-.64c-1.17-.48-2.5-.95-3.55-1.47l5.38,2c-1.19-.5-4-1.73-4.68-1.91.49.19,1.11.41,1.56.64a39.86,39.86,0,0,1-5.72-2.49c.57-.09-5.82-3.33-7.18-4.67l-1.46-.87-1.4-1c-.93-.67-1.88-1.32-2.8-2-1.83-1.47-3.74-3-5.71-4.74,1.22,1.46-1.18-1-1.14-.56A11,11,0,0,1,31.32,167l-2.57-2.72c-.27-.35-.06-.15.22.12s.65.59.64.52c-1.9-1.91-.71-.89-1.88-2.23.17.34-.76-.57-1.78-1.72l1.38,1.67A16.47,16.47,0,0,1,25,160.06a23.87,23.87,0,0,0-2.25-2.72l.85.85c-1.34-1.42-4.42-5.64-5.67-7.1-.17-.3-.36-.72.15,0-2.6-3.85-5.74-8.65-7.12-12l.22.28A15.43,15.43,0,0,1,10,137s.21.29,0-.08-1-2.06-1.47-3.13l.47.86c-.88-2.09-1.47-3.72-2.15-5.23s-1.18-3-1.78-4.8c.24-.07-.73-3.51-1.07-5.25l0,0c-.3-1.29-.57-2.48-.84-3.61s-.44-2.23-.66-3.31-.38-2.15-.57-3.25-.38-2.24-.47-3.46c0-.76-.05-1.79-.12-3s-.07-2.52-.12-3.92,0-2.86,0-4.28.14-2.78.24-4c-.08.74-.16-.13-.13-1,.08-1.14.17-3.17.33-3l-.05.4c.31-.83.46-3.18.81-5l-.21-.34c.29-1.17.52-2.54.87-4s.56-2.9,1-4.29.66-2.73,1-3.85a26.86,26.86,0,0,1,1-2.64c.26-1.14.78-2.48,1.13-3.58l.11.11c.58-1.5,1-2.62,1.56-3.8.26-.6.52-1.22.83-1.91l.48-1.11.61-1.25-.27.77c1-2,.86-2.73,1.84-4.56l.49-.45c.95-1.7,1.93-3.41,3-5l1.58-2.47c.56-.8,1.1-1.61,1.61-2.43,0,.07,0,.2-.38.72,1-1.55,4.4-5.58,3.76-5.25.13,0,2.6-3.07,4-4.7l-.13.33a34.75,34.75,0,0,1,2.81-3.32c.42-.42.43-.3-.14.24,1.45-1.34,1-1.16,2.8-2.75l-.59.67a29.24,29.24,0,0,0,2.1-2.12,24.19,24.19,0,0,1,3.26-2.57,12.51,12.51,0,0,1,2-1.69c.15-.06-.17.23-.34.38.69-.5,1.27-.95,1.8-1.37l1.46-1.09a29.49,29.49,0,0,1,2.71-1.87.67.67,0,0,0,.38-.14c-2.24,1.49-4,2.76-3.85,2.62.08.11,1.87-1.12.56,0l2.58-2c1-.72,2.07-1.41,3-2l.26-.11-.18.13c.42-.24.78-.49,1.12-.72.6-.32,1-.51,1.55-.83.28,0,2.18-1.2,3.16-1.66-.14-.08,1.14-.7-.1-.21.16-.06-.18.11-.82.44l-.39.24,0,0L49.14,14a18.38,18.38,0,0,1,2.55-1.49c.44-.35,1-.69,1.24-.89.71-.24,1.72-.66,2.6-1a13.18,13.18,0,0,1,1.86-.65c1.49-.71,3.26-1.52,4.94-2.16l2.33-1c.71-.27,1.33-.53,1.81-.75a5,5,0,0,1,1.4-.34c-.51.19-1.13.39-1.39.52,1.75-.71,5.32-1.65,5.71-1.94,2.31-.54-1.25.49,1.9-.35l-.41.15c1.58-.28,3-.6,4.34-.92s2.66-.56,4-.85,2.68-.46,4.14-.67S89.2,1.37,91,1.3a4.17,4.17,0,0,1-.84,0,92.45,92.45,0,0,1,24.61,1.51,29,29,0,0,0,3.86.67l.45.25c.78.12,1.56.29,2.34.43s1.58.39,2.32.62,1.44.52,2.18.8,1.49.56,2.33.84,1.72.64,2.74,1l-.48-.29c.71.29,1.86.68,2.78,1.06a6.27,6.27,0,0,1,1.46.71,4.42,4.42,0,0,1,1,.39v.09c.59.24,1.18.46,1.75.7l1.72.78c2.58,1.37-.52,0,3.23,2A25,25,0,0,0,146,14.51a7.67,7.67,0,0,1-1.4-.94l1.29.68c.34-.08,1.45.27-1.59-1.63l-2.25-1.09-.67-.46c.64.3,1.25.64,1.86,1a10.26,10.26,0,0,0-2.5-1.26,4.66,4.66,0,0,0-.88-.58l-2.29-.88c-.23-.21,1.08.29-.4-.43-1.1-.37.92.62-.85-.07a7.76,7.76,0,0,0-2-1c-.15-.14.13,0,.65.14-.59-.21-1.34-.55-2-.81a13.14,13.14,0,0,0-1.67-.52c-.56-.28-1.55-.65-2.37-1s-1.51-.51-1.42-.6c-.39-.07-2.14-.51-3.24-.85,1,.2,0-.16-1.2-.47s-2.63-.72-2.33-.79c-.77-.1-2.15-.37-3.67-.68-.76-.15-1.55-.33-2.33-.47s-1.54-.23-2.22-.3a3.87,3.87,0,0,1,.7.06c-1.53-.26-2-.41-2.93-.61a29.23,29.23,0,0,1-3.92-.08c-1.86-.4,1.16-.1.59-.35a5.87,5.87,0,0,1-1.54,0c-.75,0-1.44,0-1.12.06a9.82,9.82,0,0,1-2-.34C102,.5,100.91.2,99.71.35a13.23,13.23,0,0,0-2.84-.2C95.77.06,97.82,0,97.82,0ZM45.89,15h0l1-.61Zm-3.84,2.52,1.64-1.13c.17,0,0,.08-.34.35A10.36,10.36,0,0,0,42.05,17.51Zm8.73-4.25a5,5,0,0,1-.94.49l1.09-.63.06-.06A.81.81,0,0,1,50.78,13.26Z"/><path class="cls-3" d="M51.82,12.46l.26-.14a3.52,3.52,0,0,0-.39.17l-.21.17Z"/><path class="cls-3" d="M192.54,88.6v.09a1.15,1.15,0,0,1,0-.2Z"/><polygon class="cls-3" points="4.67 67.45 4.71 67.45 4.8 67.06 4.67 67.45"/><path class="cls-3" d="M187.56,64a2.57,2.57,0,0,0-.09-.32A3.2,3.2,0,0,0,187.56,64Z"/><path class="cls-3" d="M183.27,53.92l-.65-1.41C182.9,53.12,183.1,53.57,183.27,53.92Z"/><path class="cls-3" d="M179.27,46.54c-.08-.08-.11-.1-.14-.11h0Z"/><path class="cls-3" d="M162,168.64l-.23.22C161.22,169.4,161.6,169.05,162,168.64Z"/><path class="cls-3" d="M184.89,136.47l-.45,1.2C184.73,137,185,136.52,184.89,136.47Z"/><path class="cls-3" d="M123.52,190.2h0l-.27.07Z"/><path class="cls-3" d="M183.62,139.32c.34-.62.6-1.15.82-1.65C184.18,138.18,183.86,138.79,183.62,139.32Z"/><path class="cls-3" d="M154.94,19.71l-.31-.25h-.06Z"/><path class="cls-3" d="M154.57,19.45l-.37-.25C154.37,19.32,154.51,19.42,154.57,19.45Z"/><path class="cls-3" d="M153.4,18.69l.8.51A6.38,6.38,0,0,0,153.4,18.69Z"/><path class="cls-3" d="M163.39,26.94l.13,0A.24.24,0,0,0,163.39,26.94Z"/><path class="cls-3" d="M165.83,29.29c-.55-.6-1.38-1.49-2.21-2.25l-.1-.05C164,27.31,165.24,28.79,165.83,29.29Z"/><path class="cls-3" d="M174.44,40.41c-.54-.77-1.12-1.51-1.67-2.26.25.42.59,1-.2,0C174.6,41,172.23,37.46,174.44,40.41Z"/><path class="cls-3" d="M179.19,47.72c-.82-1.26-.06.06-.13,0C179.6,48.52,179.72,48.72,179.19,47.72Z"/><path class="cls-3" d="M192.15,108.24l-.11-.17C191.93,109.23,192.09,108.09,192.15,108.24Z"/><path class="cls-3" d="M190.65,120.24c.12-.36.25-.72.35-1.09v-.55C190.9,119.15,190.79,119.7,190.65,120.24Z"/><polygon class="cls-3" points="187.79 126.84 187.93 126.35 187.38 128.21 187.79 126.84"/><path class="cls-3" d="M111.23,191.64l.38.1C112.38,191.57,112.51,191.38,111.23,191.64Z"/><path class="cls-3" d="M66.2,187.83a22.33,22.33,0,0,0-2.4-.92A25.28,25.28,0,0,0,66.2,187.83Z"/><path class="cls-3" d="M2.89,79.53l-.09.91c.08-.57.14-1.14.26-1.7C3,79,2.93,79.26,2.89,79.53Z"/></g></g></g></svg>