<svg xmlns="http://www.w3.org/2000/svg" viewBox="0 0 247.59 247.62"><defs><style>.cls-1{stroke:#d3d3d3;stroke-linecap:round;stroke-linejoin:round;}</style></defs><g id="Layer_2" data-name="Layer 2"><g id="industrialization_graphic" data-name="industrialization graphic"><g id="Layer_25" data-name="Layer 25"><path class="cls-1" d="M228.8,78.46a3.12,3.12,0,0,0,4.94,2.07l4-2.93a.72.72,0,0,1,1.1.31q2.06,5.13,3.68,10.54a123.5,123.5,0,0,1,4.58,22.88.7.7,0,0,1-.05.35l-10.26,25.49a3.12,3.12,0,0,0,3.24,4.26l5.66-.63a.73.73,0,0,1,.8.82A123.56,123.56,0,0,1,237.15,174a.76.76,0,0,1-.22.28L214.31,192a3.11,3.11,0,0,0,.68,5.31l5.64,2.48a.73.73,0,0,1,.28,1.11A123.53,123.53,0,0,1,196.85,224a.75.75,0,0,1-.33.14l-29.07,4.12a3.12,3.12,0,0,0-2.07,4.94l3.69,5a.72.72,0,0,1-.32,1.1q-4.5,1.74-9.21,3.16a124.35,124.35,0,0,1-23.49,4.64.7.7,0,0,1-.35-.05l-27-10.85a3.12,3.12,0,0,0-4.27,3.24l.66,5.87a.72.72,0,0,1-.83.8,123,123,0,0,1-32.93-10.21.71.71,0,0,1-.27-.21L53.92,213.75a3.13,3.13,0,0,0-5.32.67l-2.1,4.79a.72.72,0,0,1-1.12.27,123.35,123.35,0,0,1-23.92-26.27.84.84,0,0,1-.12-.31l-3.68-26a3.12,3.12,0,0,0-4.94-2.07l-3.54,2.61a.73.73,0,0,1-1.11-.33c-.92-2.48-1.77-5-2.54-7.59a124.36,124.36,0,0,1-5-28.3.7.7,0,0,1,.05-.32L9.7,108.18a3.12,3.12,0,0,0-3.24-4.26l-3.66.41a.73.73,0,0,1-.8-.84A123.48,123.48,0,0,1,13.81,67.81a.82.82,0,0,1,.2-.25L32.15,53.35A3.11,3.11,0,0,0,31.48,48l-2.94-1.28a.74.74,0,0,1-.27-1.13A123.43,123.43,0,0,1,56.35,20.39a.91.91,0,0,1,.31-.12L79,17.1a3.12,3.12,0,0,0,2.08-4.94L79.23,9.64a.72.72,0,0,1,.32-1.1q4.38-1.68,8.94-3a123.85,123.85,0,0,1,27.6-5,.7.7,0,0,1,.32.05l21.31,8.59A3.13,3.13,0,0,0,142,5.9l-.39-3.47a.73.73,0,0,1,.83-.8,123.54,123.54,0,0,1,35,10.78.75.75,0,0,1,.26.21l14.85,19a3.12,3.12,0,0,0,5.32-.67l1.65-3.79a.73.73,0,0,1,1.11-.28,122.72,122.72,0,0,1,24.42,25.7.7.7,0,0,1,.13.32Z"/></g></g></g></svg>